<?xml version="1.0" standalone="no"?>
<!DOCTYPE svg PUBLIC "-//W3C//DTD SVG 1.1//EN" "http://www.w3.org/Graphics/SVG/1.1/DTD/svg11.dtd" >
<svg xmlns="http://www.w3.org/2000/svg">
<metadata>
This is a custom SVG webfont generated by Font Squirrel.
Copyright   : Copyright c 20082012 by littleBits Electronics Inc All rights reserved Produced by Tom Grace
Designer    : Luma Eldin based on the handwriting of YoungJin Chung
Foundry     : littleBits Electronics Inc Produced by Tom Grace
</metadata>
<defs>
<font id="littleBitsRegular" horiz-adv-x="325" >
<font-face units-per-em="2048" ascent="1331" descent="-717" />
<missing-glyph horiz-adv-x="491" />
<glyph unicode=" "  horiz-adv-x="491" />
<glyph unicode="&#x09;" horiz-adv-x="491" />
<glyph unicode="&#xa0;" horiz-adv-x="491" />
<glyph unicode="!" horiz-adv-x="438" d="M51 1141q-12 33 1.5 63.5t45.5 42.5q31 10 60.5 -3t42.5 -44q63 -166 75 -465q12 -260 50 -370q10 -33 -6.5 -63t-49.5 -40q-6 -4 -22 -4q-59 0 -76 57q-47 152 -55 412q-17 285 -66 414zM231 -63.5q-2 32.5 19 57.5q23 27 55.5 29t59.5 -21l32 -31l2 -2q23 -25 22 -58.5 t-24 -55.5q-27 -20 -57 -21q-35 0 -57 25v2q-12 8 -25 22q-25 21 -27 53.5z" />
<glyph unicode="&#x22;" horiz-adv-x="600" d="M69.5 1004.5q8.5 35.5 41 56t69.5 10.5t56 -43q39 -59 32 -149q0 -39 -20 -121q-20 -68 -88 -68q-6 0 -23 4q-37 8 -55.5 41t-7.5 70q23 106 6 131q-19 33 -10.5 68.5zM329.5 764q-14.5 35 0.5 70q39 98 24 129q-14 35 -1.5 68.5t45 50t69.5 3t51 -50.5q29 -68 17 -151 q-8 -45 -37 -117q-27 -66 -95 -57q-4 0 -12 3t-12 3q-35 14 -49.5 49z" />
<glyph unicode="#" horiz-adv-x="851" d="M29 319q4 29 28.5 45.5t53.5 10.5q4 0 61 -6q45 -4 72 -11l2 2l4 5q2 4 10 8q-2 27 -2 73h-29q-86 -8 -137 17q-27 12 -37 39.5t2 54.5q14 25 41 35t56 -2q16 -8 67 -4q39 2 84 0q4 2 8 7t6 7q0 47 23 174q12 49 14 74q4 29 28 46t52 13q29 -6 46.5 -28.5t15.5 -53.5 q-12 -49 -17 -82q-16 -80 -18 -110q6 0 20.5 1t22.5 1q68 4 94 0l6 8q2 14 12 70q8 45 9 61q0 29 21.5 49.5t50 20.5t49 -20.5t20.5 -49.5q-2 -16 -12 -90q0 -6 -4 -18q2 -2 8 -4.5t8 -4.5q27 -10 38 -36.5t1 -55.5q-23 -43 -66 -43q-12 0 -28 6q-2 2 -7.5 4.5t-7.5 2.5 q0 -2 -2 -3q2 -29 -2 -75q18 -2 62 -2q29 2 49 -18.5t22 -49.5q0 -29 -20.5 -50.5t-48.5 -23.5h-27q-51 0 -92 9q-4 -8 -18 -17q4 -61 -31 -174q-16 -57 -17 -61q-14 -53 -67 -54h-17q-29 8 -44 33t-9 53q16 63 19 70q20 66 26 96q-25 0 -37 -2q-47 -4 -90 2q-4 -4 -6 -4 l-10 -10q0 -37 -23 -109q-18 -53 -12 -67q14 -27 5 -54.5t-36 -39.5q-12 -10 -32 -11q-43 0 -62 41q-33 63 4 174q2 16 11 35l-35 6q-59 4 -74 9q-29 6 -45 29t-10 52zM399 406q6 0 17.5 1t19.5 1q59 4 90 -2l25 26v17q4 33 4 49q-12 -2 -39 -2q-74 -4 -100 0l-17 -17v-73z " />
<glyph unicode="$" horiz-adv-x="903" d="M-4 77q-6 32 12 60q18 27 51 33t60 -10q12 -8 55 -39q160 -104 229 -123q4 199 31 336q-63 2 -135 35q-76 39 -131 120q-55 86 -64 183q-10 104 41 186q41 70 117 100q39 18 90 25v2q-2 2 -2 4q-8 33 7.5 62.5t48.5 40.5q31 10 60.5 -6.5t39.5 -47.5q12 -39 8 -100 q86 4 139 -12q57 -12 101 -45q47 -31 77 -93q10 -31 -2 -61.5t-43 -42.5q-10 -8 -30 -8q-53 0 -74 49q-25 53 -127 53q0 -12 10 -94q20 -164 2 -252q152 6 232 -115q51 -84 47 -198q-6 -111 -68 -191q-47 -70 -129 -98q-45 -16 -94 -16q-4 -53 8 -76q14 -29 4 -60.5 t-39 -48.5q-10 -8 -36 -8q-49 0 -72 41q-39 70 -23 174q-123 20 -315 154q-47 31 -53 35q-27 20 -33 52zM264 686q6 -57 39 -106q39 -68 113 -80q4 59 -10 164q-12 78 -13 159q-80 0 -110 -51q-23 -31 -19 -86zM565 -23q51 0 84 45.5t36 106.5t-23 100q-20 41 -76 43 q-21 -105 -21 -295z" />
<glyph unicode="%" horiz-adv-x="954" d="M53 997q29 59 109 68q47 18 88 18q106 0 168 -71q51 -68 35 -160q-27 -74 -82 -113q-59 -35 -121 -34q-119 0 -189 92q-59 94 -8 200zM96 100q-18 35 13 72q213 315 546 975l11 16q16 33 52 45.5t70 -4.5q33 -16 44.5 -53t-7.5 -70l-8 -18q-338 -657 -543 -967 q-14 -53 -63 -67q-12 -6 -25 -6q-29 0 -53 18t-33 47q-4 8 -4 12zM221 893q25 -6 29 -6q20 0 24 8q-8 8 -24 8q-10 0 -27 -8zM514 274q-33 133 70 252q41 51 131 52q57 0 108 -29q70 -41 88 -109q23 -94 -43 -186q-53 -80 -141 -107q-55 -16 -115 11q-75 30 -98 116z M690 328q43 31 45 63q-12 4 -20 4h-6q-12 -25 -15 -41q-4 -10 -4 -26z" />
<glyph unicode="&#x26;" horiz-adv-x="749" d="M31 727q2 133 92 221q57 57 137 92t158 35q35 0 88 -12q111 -35 156 -100.5t49 -131.5q12 -147 -111 -311q-78 -104 -176 -176q18 -20 98 -137q0 -2 6.5 -9.5t8.5 -11.5l12 9l26 14q14 10 43 10q45 0 68 -37q16 -29 8 -62.5t-35 -47.5l-24 -15q23 -27 27 -28 q33 -10 50 -38t9 -60.5t-37 -49t-61 -8.5q-70 16 -121 94q-66 -45 -119 -65q-98 -37 -176 -8q-59 25 -86 59q-35 41 -45 94q-14 86 33 182q35 66 90 121q-74 74 -117 160q-57 115 -51 217zM195.5 756q-9.5 -47 1 -90t30.5 -84q31 -66 86 -117q88 55 156 151q88 117 84 201 q-8 66 -94 90q-12 6 -41 6q-106 0 -180 -77q-33 -33 -42.5 -80zM233 78q6 -27 25 -31q51 -20 145 45q-6 14 -16 29q-63 94 -80 110q-39 -43 -53 -75q-27 -47 -21 -78z" />
<glyph unicode="'" d="M50 767q-11 36 7 69q47 90 37 125q-12 37 4.5 70.5t53.5 45.5q35 12 68.5 -5t45.5 -56q23 -70 0 -154q-6 -25 -47 -112q-14 -27 -44 -40.5t-58 -4.5q-12 4 -23 8q-33 18 -44 54z" />
<glyph unicode="(" horiz-adv-x="559" d="M109 578q18 279 225 430q31 23 68.5 16.5t58.5 -35.5q23 -29 17.5 -66.5t-36.5 -58.5q-135 -104 -153 -301q-8 -115 34 -232.5t119 -195.5q29 -27 29 -63.5t-29 -63.5q-25 -27 -63.5 -26.5t-63.5 24.5q-106 106 -161 260t-45 312z" />
<glyph unicode=")" horiz-adv-x="567" d="M70 67.5q2 36.5 30 63.5q160 150 175.5 366t-123.5 371q-25 29 -23 67t31 62q27 25 64.5 23t62.5 -31q195 -221 170 -510q-12 -137 -70 -258q-59 -123 -164 -225q-23 -23 -61.5 -23t-67.5 29q-26 29 -24 65.5z" />
<glyph unicode="*" horiz-adv-x="634" d="M14 922q4 20 21.5 31.5t36.5 4.5q23 -4 96 0q72 4 98 0q-2 6 -2 13q-51 37 -86 100q-35 49 -45 57q-35 37 0 72q12 16 32.5 16.5t37.5 -14.5q27 -23 61 -80q23 -37 35 -49q37 57 68 152q6 20 24.5 30.5t38.5 4.5q49 -16 33 -64q-31 -115 -92 -199q23 -4 73 0q74 4 127 -8 q18 -4 29.5 -21.5t7.5 -37.5q-10 -39 -49 -39h-12q-23 8 -98 4q-68 -4 -107 4v-2q51 -41 111 -147q23 -47 43 -74q27 -41 -13 -72q-10 -8 -26 -8q-29 0 -43 20q-18 27 -49 84q-31 59 -62 95q-10 -18 -47 -97q0 -4 -4 -12q-12 -29 -45 -29q-14 0 -21 2q-47 27 -26 68l6 12 q29 74 59 121q-16 -2 -49 -2q-88 -4 -123 2q-20 4 -31.5 21.5t-7.5 40.5z" />
<glyph unicode="+" horiz-adv-x="587" d="M41 391q-8 33 10.5 60.5t50.5 33.5q55 10 123 11q0 20 1 53t1 45q-2 33 21.5 56.5t58.5 25.5h2q33 0 55.5 -22.5t24.5 -55.5q0 -33 -4 -111q33 -4 47 -4q8 0 21.5 -1t19.5 -1q33 -2 55.5 -27.5t20.5 -60.5q-2 -31 -25.5 -52.5t-54.5 -21.5q-12 0 -49 5l-47 4 q-6 -76 -4 -123q2 -33 -20.5 -56.5t-57.5 -25.5h-2q-33 0 -56.5 22.5t-23.5 53.5q-2 39 2 135q-57 -4 -74 -4q-33 -8 -60.5 10t-35.5 51z" />
<glyph unicode="," horiz-adv-x="352" d="M9 -188.5q11 36.5 44 53.5q35 18 54.5 70.5t9.5 95.5q-8 35 11 67.5t54 42.5q37 10 70 -9t41 -56q25 -98 -17 -209q-43 -113 -139 -162q-20 -10 -41 -10q-57 0 -82 47q-16 33 -5 69.5z" />
<glyph unicode="-" horiz-adv-x="632" d="M51 356q2 39 30 62.5t66 19.5q63 -2 177 21q135 23 157 22q39 0 66.5 -24.5t27.5 -61.5q4 -37 -18 -64.5t-59 -31.5h-6q-33 0 -134 -18q-74 -16 -122 -21q-47 -6 -101 -2q-39 4 -63.5 31.5t-20.5 66.5z" />
<glyph unicode="." horiz-adv-x="342" d="M77 44q-3 38 21.5 66.5t62.5 30.5t66 -22l25 -25h2q27 -27 26 -64.5t-28 -64.5q-31 -27 -64 -26q-37 0 -65 28v2q-2 0 -14 13q-29 24 -32 62z" />
<glyph unicode="/" horiz-adv-x="561" d="M8 27.5q-12 33.5 6 68.5q66 133 219 492q90 213 162 366q16 35 52 48.5t69 -3t46 -51.5t-3 -67l-158 -365q-168 -383 -227 -500q-23 -51 -80 -51q-27 0 -39 12q-35 17 -47 50.5z" />
<glyph unicode="&#x2215;" horiz-adv-x="561" d="M8 27.5q-12 33.5 6 68.5q66 133 219 492q90 213 162 366q16 35 52 48.5t69 -3t46 -51.5t-3 -67l-158 -365q-168 -383 -227 -500q-23 -51 -80 -51q-27 0 -39 12q-35 17 -47 50.5z" />
<glyph unicode="0" horiz-adv-x="800" d="M55 436q-6 131 35 248q47 133 143 193q68 41 144 38q78 -4 149 -41q88 -18 148 -94q51 -70 65 -172q27 -168 -30 -350q-59 -199 -187 -262q-51 -20 -90 -21q-25 0 -59 11q-68 18 -125 80q-86 49 -139 153q-44 94 -54 217zM217 442q6 -111 51 -180q72 172 140 488 q-55 16 -89 -11q-49 -31 -78.5 -115t-23.5 -182zM395 152q29 -18 56 -11q63 29 106 166q45 152 23 277q-2 37 -25 84q-74 -330 -160 -516z" />
<glyph unicode="1" horiz-adv-x="667" d="M51 750q-12 31 2.5 61.5t46.5 40.5q10 6 43 18q133 61 217 41q47 -14 62 -61q27 -133 14 -397q-8 -193 0 -281q82 -14 121 -4q31 8 60.5 -8.5t38 -49t-8 -61.5t-49.5 -39q-35 -8 -80 -8t-127 16l-6 2h-6q-31 -20 -62 -30q-31 -14 -67 -15q-31 0 -57 11q-31 10 -46.5 39.5 t-3.5 60.5q10 33 41 47t62 4q6 0 16 2q12 6 14 6q-10 109 -2 314q10 176 -2 291l-30 -13q-20 -8 -33 -12q-29 -14 -53 -23q-33 -10 -63 2.5t-42 45.5z" />
<glyph unicode="2" horiz-adv-x="790" d="M8 27q-18 53 27 88q2 2 34.5 27.5t85 66.5t93.5 72q47 35 77.5 61.5t86 82.5t90.5 123.5t41 139.5q4 55 -21 80q-70 57 -258 20l-16 -6l-2 -49q6 -37 33 -121q10 -31 -4.5 -60.5t-47.5 -39.5q-31 -10 -61.5 4t-40.5 45q-29 92 -39 152q-12 94 23 149q41 68 124 84 q268 55 396 -59q86 -78 71 -213q-14 -174 -153 -340q-74 -86 -205 -182l-25 -23h35q281 -4 342 -25l68 -22q33 -10 48 -40t5 -62q-8 -25 -29.5 -40.5t-46.5 -15.5q-10 0 -26 4l-70 25q-49 12 -301 16l-256 2q-58 1 -78 56z" />
<glyph unicode="3" horiz-adv-x="706" d="M26 80q-3 33 19 59q20 27 52 30t59 -17q92 -76 200 -27q51 23 84 64.5t35 84.5q2 63 -76 121h-4q-84 -18 -121 -18q-55 0 -94 18q-33 12 -45 43t0 62q14 31 44 44t61 1q35 -12 120 6q6 0 19 4q70 55 90 104q12 35 -4 60q-27 39 -92 45q-84 6 -172 -45q-29 -18 -60.5 -11 t-50.5 35q-16 29 -9 61t36 50q137 86 272 70q141 -12 209 -117q63 -92 23 -201q-27 -68 -80 -121q31 -29 53 -59q43 -70 43 -156q-6 -92 -66 -176q-63 -80 -149 -114q-68 -33 -148 -33h-32q-102 10 -187 78q-26 22 -29 55z" />
<glyph unicode="4" horiz-adv-x="776" d="M67.5 574.5q4.5 39.5 16.5 115.5q14 86 14 105q0 35 23.5 58.5t56.5 23.5t56.5 -25t23.5 -57q0 -57 -16 -133q-27 -164 0 -234q45 -6 120 -4q23 186 80 463q6 33 33 51t60 12q35 -8 53 -35.5t10 -60.5q-49 -248 -72 -418q25 2 49.5 5t42 6.5t32 5.5t22.5 2l8 2 q33 4 60.5 -15.5t29.5 -52.5q6 -33 -13.5 -59.5t-51.5 -34.5l-27 -4q-27 -2 -75 -7t-93 -10q-4 -145 12 -225q8 -33 -10 -60.5t-53 -35.5l-6 -2h-9q-27 0 -50 18.5t-29 46.5q-16 84 -17 246h-20q-41 0 -60 2q-131 8 -164 74q-27 55 -34 126t-2.5 110.5z" />
<glyph unicode="5" horiz-adv-x="716" d="M49 649q4 82 41 154q25 47 76 45q86 -2 264 10q25 2 74 4t74 4q33 2 57 -21.5t26.5 -56t-20.5 -56t-57 -25.5q-47 -2 -142 -11q-137 -8 -225 -10q-8 -33 -6 -65q117 14 215 -17q119 -37 172 -129q53 -78 53 -178q-2 -94 -55 -172q-55 -76 -141 -102q-49 -16 -101 -17 q-39 0 -100 14q-31 8 -107 58l-28 18q-29 18 -36 50t9.5 61t50 36t62.5 -12q4 -2 14 -8t17 -10l61 -39q111 -29 166 43q59 86 2 170q-29 47 -90 66q-78 25 -195 0q-51 -14 -80 32q-51 66 -51 164z" />
<glyph unicode="6" horiz-adv-x="665" d="M57 377q-12 96 31 188q35 82 113 150q76 70 164 94q98 31 192 8q33 -10 50.5 -38.5t9 -61.5t-38 -49.5t-62.5 -8.5q-102 29 -209 -63q-66 -59 -88 -137q47 8 105 8q106 0 170 -43q90 -59 98 -178q0 -20 -2 -31q-27 -86 -92.5 -135t-151.5 -49q-135 0 -219 100 q-86 102 -68 238q-2 2 -2 8zM219 295q4 -29 29 -57q41 -47 98 -47.5t84 59.5q-8 55 -106 55q-48 0 -105 -10z" />
<glyph unicode="7" horiz-adv-x="696" d="M2 776q-8 33 8.5 61.5t49 36t61.5 -9.5q45 -25 176 -2q90 16 139 15q88 0 156 -50q37 -27 33 -69q-6 -111 -52 -316q-53 -244 -51 -383q2 -33 -20.5 -57.5t-55.5 -26.5h-2q-33 0 -56 22.5t-26 55.5q-6 135 52 424q29 115 45 236q-33 8 -131 -11q-193 -33 -289 25 q-29 16 -37 49z" />
<glyph unicode="8" horiz-adv-x="624" d="M43 215q6 82 55 150q12 20 52 59q-47 68 -72 147q-39 158 35 275q6 12 18 20q150 109 291 43q68 -35 108.5 -109.5t40.5 -160.5q0 -135 -86 -227q45 -49 72 -125q39 -135 -6 -238q-37 -90 -131 -127q-43 -14 -96 -14q-59 0 -123 20q-16 4 -23 11q-68 47 -103.5 121.5 t-31.5 154.5zM205 205q-6 -76 57 -127q113 -31 144 37q23 53 -3 118q-18 57 -67 99h-37q-90 -49 -94 -127zM233.5 616.5q18.5 -69.5 67.5 -124.5h37q72 49 72 145t-64 129q-43 20 -106 -18q-25 -62 -6.5 -131.5z" />
<glyph unicode="9" horiz-adv-x="710" d="M57 696q20 63 76 125q82 92 201 135q63 20 108 15q12 -2 23.5 -4t23 -8.5t19.5 -9.5t20.5 -12t17.5 -11t19.5 -15.5t17.5 -15.5t19 -16.5t18.5 -16.5t8.5 -9t10 -11q4 -2 9 -8.5t12.5 -26t3.5 -39.5q-12 -31 -74 -379q-68 -379 -55 -495q4 -33 -17.5 -58.5t-54.5 -30.5 q-10 -4 -19 -2q-27 2 -46 22.5t-23 47.5q-16 127 45 489q-2 2 -8 -2q-96 -47 -166 -36q-135 16 -187 211q-27 73 -2 161zM211 578q33 -90 53 -97q25 0 82 23q51 31 109 158l39 98q-43 43 -70 51q-4 0 -16.5 -3t-18.5 -3q-88 -35 -135 -92q-53 -57 -43 -135z" />
<glyph unicode=":" horiz-adv-x="342" d="M81 7q-3 38 21 67q27 29 64 30.5t65 -22.5l27 -23v-2q29 -27 28 -64.5t-30 -62.5q-25 -27 -61 -26q-41 0 -66 26v2q-10 10 -16 13q-29 24 -32 62zM81 577.5q-3 36.5 21.5 65.5t62.5 31t66 -21q25 -20 27 -24h2q27 -27 26 -65t-30 -64q-25 -25 -61 -25q-41 0 -66 25v2 q-10 10 -16 14q-29 25 -32 61.5z" />
<glyph unicode=";" horiz-adv-x="354" d="M9 -187.5q11 35.5 44 52.5q35 18 55.5 70.5t8.5 95.5q-8 35 11 67.5t54 42.5q39 8 71 -10t42 -55q23 -104 -19 -209q-45 -115 -139 -162q-20 -10 -41 -10q-57 0 -80 47q-18 35 -7 70.5zM92 533.5q-4 37.5 19 68.5q20 27 56 33t66 -12l3 -2q16 -8 22 -15q33 -20 41 -56 t-12 -69q-27 -41 -78 -41q-23 0 -47 13l-10 6q-2 2 -11.5 6t-13.5 8q-31 23 -35 60.5z" />
<glyph unicode="&#x3c;" horiz-adv-x="811" d="M72 508q-6 59 51 84l6 4q43 43 98 76q59 35 197 98q154 66 215 109q27 18 59.5 12t51.5 -33q20 -29 14 -60.5t-33 -52.5q-53 -37 -242 -124q-166 -72 -221 -117q4 -4 16.5 -11.5t16.5 -11.5q39 -23 172 -78q160 -63 236 -112q27 -18 33 -51t-13 -60q-25 -37 -67 -37 q-25 0 -46 15q-53 35 -204 96q-137 57 -191 86q-63 41 -92 74q-4 0 -7 1t-5 1q-55 26 -45 92z" />
<glyph unicode="=" horiz-adv-x="808" d="M41 186q-8 35 9.5 62.5t49.5 36.5q143 35 525 14q12 0 34.5 -1t32.5 -1q33 0 56.5 -23.5t21.5 -58.5q-2 -33 -24.5 -55.5t-55.5 -22.5q-12 0 -35.5 1t-36.5 1q-379 14 -479 -12q-6 -2 -20 -2q-27 0 -48.5 17t-29.5 44zM41 578q-8 33 9.5 60.5t49.5 35.5q113 31 525 16 q12 0 34.5 -1t32.5 -1q35 -2 57.5 -25.5t20.5 -58.5q-2 -33 -24.5 -55.5t-55.5 -22.5q-12 0 -35.5 1t-36.5 1q-379 14 -479 -10q-12 -4 -20 -4q-60 1 -78 64z" />
<glyph unicode="&#x3e;" horiz-adv-x="811" d="M47 798.5q-6 32.5 12 59.5q20 27 53 33t60 -12q68 -47 215 -109q143 -68 197 -98q55 -33 98 -76l6 -4q57 -25 51 -84q10 -66 -45 -92q-4 0 -7 -1t-5 -1q-29 -35 -94 -74q-68 -35 -191 -86q-158 -66 -202 -96q-20 -14 -45 -15q-43 0 -68 37q-20 27 -14 59.5t34 51.5 q68 45 234 112q139 57 172 78q6 4 18.5 11.5t16.5 11.5q-51 41 -221 117q-180 82 -242 124q-27 21 -33 53.5z" />
<glyph unicode="?" horiz-adv-x="872" d="M43 881q33 96 119 166q92 76 203 92q100 14 204 -21q98 -37 172 -117q78 -84 90 -182q29 -168 -122 -291q-55 -43 -131 -67q-72 -25 -111 -53q-12 -86 6 -179q8 -33 -10.5 -60.5t-50.5 -35.5h-17q-29 0 -51 17.5t-27 46.5q-29 135 -6 260q4 14 11 22v4q10 14 10 17 q12 16 20 22q76 59 174 90q61 25 82 41q78 66 66 142q-10 53 -54.5 101t-105.5 71q-141 49 -248 -45q-57 -47 -68.5 -92.5t17.5 -108.5q14 -29 3 -60.5t-40 -46.5q-31 -14 -62.5 -2.5t-45.5 41.5q-58 124 -27 228zM371 -54q-2 34 18 60q20 25 54 27t61 -21l26 -26h2 q23 -25 23 -58.5t-25 -56.5q-27 -23 -57 -23q-33 0 -57 25l-2 2q-12 10 -17 14q-24 23 -26 57z" />
<glyph unicode="@" horiz-adv-x="1443" d="M53 121q-41 188 21 391q61 199 213 334q133 115 295 141q184 29 376 -41q141 -12 240 -67q106 -57 158 -152q74 -133 55 -311q-16 -152 -98 -334q-12 -25 -47 -41q-20 -8 -64 -23q-6 -2 -24.5 -7t-28.5 -7q-16 -4 -47 -4q-102 0 -170 61q-14 12 -43 50 q-109 -135 -230 -172q-16 -8 -49 -9q-63 0 -112 41q-61 55 -88 150q-27 82 -21 162q16 121 103 229q88 115 208 152q82 27 162 2q80 -18 154 -101q23 -31 18 -59q-4 -59 -28 -148q-4 -12 -5 -18q4 -20 5 -31q-6 -96 32 -127q33 -33 86 -18l25 6q6 4 18.5 7t14.5 5 q61 143 69 248q12 131 -34 215q-76 125 -281 143q-2 0 -10 1.5t-11 1.5q-315 115 -522 -64q-113 -100 -164 -260t-18 -313q20 -104 82.5 -181t161.5 -110q236 -92 387 -92q147 0 245 125q20 27 52 30.5t59 -17t33 -52t-14 -58.5q-76 -96 -173 -145q-90 -45 -200 -45h-10 q-98 0 -205 29q-80 16 -226 71q-143 47 -235 160q-84 107 -115 252zM549 264q-4 -41 12.5 -95t40.5 -77q8 -2 10 0q90 25 205 193q4 10 10 12q2 16 23 104q4 12 11 40t11 40q-59 47 -124 29q-70 -23 -129.5 -96.5t-69.5 -149.5z" />
<glyph unicode="A" horiz-adv-x="931" d="M17 53q-5 14 -5 27q0 17 8 35q16 35 160 383q-12 29 4 59q10 20 33 39q27 98 53 162q53 147 136 229q25 29 61 29q41 0 68 -43q45 -82 100 -219q47 -117 98 -222q10 -25 29.5 -80t28 -78.5t27 -68.5t33.5 -74.5t36.5 -71.5t48.5 -83q10 -18 10 -38q0 -11 -3 -23 q-9 -32 -38 -50q-25 -12 -41 -12q-45 0 -67 43q-104 170 -193 418q-86 -8 -137 -8q-74 0 -145 12q-92 -233 -156 -369q-23 -49 -72 -49q-14 0 -35 8q-31 14 -42 45zM377 571q43 -5 90 -4q35 0 72 2q-20 41 -54 123q-8 16 -32 82q-31 -56 -76 -203z" />
<glyph unicode="B" horiz-adv-x="876" d="M45 1026q0 18 8 33q4 29 25.5 46t48.5 17l221 13q34 6 69 6q69 0 140 -25q94 -35 164 -102q94 -100 92 -221q-6 -133 -131 -267q80 -72 117 -123q56 -86 55 -172q0 -25 -4 -49q-23 -127 -143 -198q-119 -74 -318 -74q-143 0 -264 39q-53 18 -57 76v407q0 12 1 26.5 t1 18.5v12q-2 8 -2 27q-4 33 -5 64q-4 51 -8 184q-10 215 -10 262zM209 967q2 -184 16 -383q37 2 111 2q131 0 190 10q125 119 125 207q0 47 -45 96q-41 41 -105 66q-43 16 -85 16q-21 0 -41 -4l-13 -4zM229 86q76 -16 183 -16q133 4 215 53q57 37 65 86q2 9 2 18 q0 14 -4 27q-6 23 -13 39t-27.5 39.5t-31 34t-37 34t-32.5 29.5q-2 2 -6 4l-2 2q-68 -12 -205 -12h-107v-338z" />
<glyph unicode="C" horiz-adv-x="892" d="M74 483q20 129 63 234q45 111 119 201q76 94 168 137q74 36 154 36q37 0 75 -8q121 -31 226 -151q22 -24 21 -56q0 -36 -28 -57q-25 -23 -58.5 -20.5t-55.5 28.5q-91 104 -185 104q-39 0 -79 -18q-131 -63 -210 -263q-56 -141 -56 -271q0 -54 10 -107q18 -111 95 -193.5 t232 -96.5q8 0 17 -1q65 0 170 27q33 8 60.5 -8t37.5 -49q8 -33 -9.5 -61.5t-49.5 -36.5q-127 -33 -216 -33q-18 0 -24 2q-203 18 -330 139q-57 57 -94 131q-35 74 -47 152q-13 65 -13 135q0 51 7 104z" />
<glyph unicode="D" horiz-adv-x="866" d="M61 201q7 51 7 76v12q-2 2 0 8t2 8q10 109 12 215q12 305 65 461q16 41 56 53q52 14 107 14q18 0 36 -1q193 -16 328 -187q76 -82 119 -205q32 -88 31 -192q0 -17 -1 -35q-14 -115 -82 -217q-70 -94 -166 -152q-177 -107 -388 -107q-19 0 -37 1h-5q-47 8 -65 43 q-23 44 -23 126q0 36 4 79zM215 115q154 10 277 82q154 96 170 247q1 13 1 27q0 64 -25 135q-30 86 -85 154q-100 117 -219 127q-5 1 -12 0q-14 0 -37 -2q-33 -111 -41 -371q-8 -156 -15 -217q0 -9 1 -19q0 -40 -7 -98q-8 -32 -8 -65z" />
<glyph unicode="E" horiz-adv-x="755" d="M74 254q-6 79 -7 137q0 75 11 115q-24 94 -24 196t24 211q4 25 22.5 42.5t42.5 21.5q63 6 179 6q164 0 237 29q12 4 25 4l37 -9q31 -15 38 -46q12 -31 -1 -61t-46 -40q-98 -37 -290 -37q-66 0 -99 -2q-8 -60 -7 -115q0 -63 9 -120q45 0 127 -4q81 -6 145 -6q74 0 124 8 q33 4 59.5 -14.5t34.5 -51.5q2 -33 -17.5 -60.5t-52.5 -33.5q-82 -10 -145 -10q-53 0 -156 8q-20 0 -59 2t-58 2q-1 -12 -1 -27q0 -46 10 -127q7 -79 6 -127v-22q26 -14 92 -14q42 0 100 6q65 5 115 5q67 0 106 -9q33 -8 51 -37q12 -19 11 -40q0 -10 -2 -20q-18 -63 -78 -63 q-12 0 -21 2q-24 6 -65.5 6t-101.5 -6q-55 -6 -117 -6q-33 0 -51 2q-106 12 -177 76q-25 29 -24 65q1 18 1 39q0 52 -7 125z" />
<glyph unicode="F" horiz-adv-x="776" d="M49 629q-7 56 -7 115t7 120q4 53 53 68q113 35 396 72l116 12q6 1 12 1q26 0 48 -17q27 -19 33 -52q1 -5 0 -11q0 -27 -17 -49q-20 -28 -53 -32l-121 -12q-240 -31 -313 -51q0 -16 -1 -32q0 -141 34 -241q100 27 237 45q33 6 97.5 17.5t93.5 17.5q31 8 58.5 -10.5 t33.5 -50.5q3 -10 2 -21q0 -21 -12 -40q-17 -28 -50 -36q-61 -12 -196 -34q-207 -37 -238 -46v-13q0 -121 35 -288q8 -33 -10.5 -60.5t-50.5 -35.5q-4 -2 -13 -2h-6q-27 0 -48 15q-24 17 -30 49q-36 173 -36 307q0 41 3 78q-45 88 -57 217z" />
<glyph unicode="G" horiz-adv-x="1103" d="M33 313q-2 15 -2 36q0 66 20 190q33 166 187 329q76 76 155 125q80 51 178 70q24 3 47 3q76 0 138 -32q88 -49 141 -153q14 -27 8 -52q-4 -25 -8 -32q-16 -59 -78 -60q-4 0 -10 1t-10 1q-31 10 -47.5 36t-8.5 56q-51 74 -122 74q-12 0 -25 -2q-119 -16 -240 -147 q-121 -123 -147 -250q-16 -107 -16 -150q0 -13 2 -20q16 -92 82.5 -167t168.5 -112q73 -27 145 -27q21 0 43 3q93 10 146 61q63 58 63 163q0 36 -7 77q-25 2 -80 2q-96 0 -150 18q-31 10 -46 41q-9 17 -8 35q0 14 5 29q10 31 41 45t61 2q27 -8 97 -8q94 0 141 -15 q61 27 117 27h8q35 -2 56.5 -24.5t21.5 -55.5q-2 -35 -24.5 -58.5t-55.5 -21.5q-16 0 -25 -4q8 -48 8 -92q0 -49 -10 -92q-27 -117 -102 -185q-92 -86 -236 -102q-20 -2 -63 -2q-102 0 -199 33q-129 45 -231 149q-104 111 -129 258z" />
<glyph unicode="H" horiz-adv-x="892" d="M53 778q3 35 3 58q0 11 -1 20q0 33 22.5 56.5t57.5 23.5q33 2 56.5 -21.5t23.5 -58.5q1 -9 1 -21q0 -25 -3 -65q-1 -27 -1 -51q0 -83 11 -123l156 29q20 2 122.5 19.5t160.5 25.5q3 14 3 38q0 37 -8 97q-10 61 -10 108q0 33 21.5 56.5t54.5 25.5q35 0 59.5 -22.5 t24.5 -54.5q4 -57 10 -93q9 -61 9 -111q0 -78 -21 -130q11 -53 11 -144q0 -61 -5 -139q-5 -66 -5 -119q0 -92 15 -149q4 -13 4 -26q0 -19 -9 -38q-15 -31 -48 -39q-8 -2 -23 -2q-27 0 -48 15.5t-29 40.5q-22 76 -22 211q0 54 3 118q6 77 7 132q0 33 -3 59q-59 -4 -243 -37 l-164 -31q-1 -12 -1 -27q0 -77 27 -216q2 -18 7.5 -50t7.5 -43q4 -33 -16.5 -59.5t-53.5 -32.5h-10q-31 0 -53.5 19.5t-26.5 50.5q-2 10 -7 39.5t-9 46.5q-27 156 -27 259q0 40 4 73q-36 76 -36 223q0 28 1 59z" />
<glyph unicode="I" d="M57 870q-1 5 0 11q0 26 17 49q20 27 53 31q6 1 11 0q26 0 48 -16q27 -19 31 -52q25 -176 25 -485q2 -93 9 -219.5t7 -165.5q0 -29 -19 -53q-22 -26 -55 -29h-8q-31 0 -53.5 21.5t-24.5 51.5q-12 131 -16 392q-5 312 -25 464z" />
<glyph unicode="J" horiz-adv-x="811" d="M16 198q0 29 20 52q22 25 56 29q33 2 58.5 -20.5t27.5 -55.5q4 -80 50 -138.5t104 -70.5q24 -5 46 -5q52 0 91 27q88 59 117 238q13 89 13 181q0 77 -9 156q-20 173 -80 306q-14 31 -3 60.5t42 43.5q17 9 35 9q14 0 27 -5q32 -11 46 -42q70 -160 93 -353q11 -90 11 -177 q0 -102 -16 -202q-16 -115 -61 -200q-49 -96 -123 -146q-82 -57 -182 -57q-35 0 -82 10q-111 27 -188 119q-93 113 -93 241z" />
<glyph unicode="K" horiz-adv-x="874" d="M61 510q-3 26 -2 63q0 49 4 115q2 66 2 111q0 68 -4 92q-3 10 -2 20q0 22 13 40q18 28 53 36q8 1 15 2q24 0 45 -15q28 -19 32 -52q11 -54 11 -131q0 -51 -5 -111q-3 -49 -3 -91q0 -92 16 -147h12q59 68 139 148q186 190 248 307q16 29 48 38t60 -5q31 -14 40.5 -47 t-7.5 -62q-78 -147 -276 -346q-102 -106 -103 -108q63 -57 228 -142q188 -96 270 -172q24 -24 24 -58q0 -31 -22 -54q-23 -27 -57 -27q-33 0 -56 23q-61 59 -233 145q-213 111 -295 201h-12q-3 -13 -3 -37q0 -52 13 -152q6 -39 14 -106q2 -33 -19.5 -57.5t-53.5 -28.5h-9 q-31 0 -54 22.5t-23 52.5q-2 25 -15 93q-13 94 -13 163q0 75 15 121q-29 62 -35 156z" />
<glyph unicode="&#x212a;" horiz-adv-x="874" d="M61 510q-3 26 -2 63q0 49 4 115q2 66 2 111q0 68 -4 92q-3 10 -2 20q0 22 13 40q18 28 53 36q8 1 15 2q24 0 45 -15q28 -19 32 -52q11 -54 11 -131q0 -51 -5 -111q-3 -49 -3 -91q0 -92 16 -147h12q59 68 139 148q186 190 248 307q16 29 48 38t60 -5q31 -14 40.5 -47 t-7.5 -62q-78 -147 -276 -346q-102 -106 -103 -108q63 -57 228 -142q188 -96 270 -172q24 -24 24 -58q0 -31 -22 -54q-23 -27 -57 -27q-33 0 -56 23q-61 59 -233 145q-213 111 -295 201h-12q-3 -13 -3 -37q0 -52 13 -152q6 -39 14 -106q2 -33 -19.5 -57.5t-53.5 -28.5h-9 q-31 0 -54 22.5t-23 52.5q-2 25 -15 93q-13 94 -13 163q0 75 15 121q-29 62 -35 156z" />
<glyph unicode="L" horiz-adv-x="663" d="M78 -14q-7 63 -7 148q0 180 29 460q31 270 31 420v18q0 33 23.5 56.5t56.5 23.5h5q31 0 53 -21q24 -24 24 -57q0 -178 -31 -459q-32 -274 -31 -452v-57q41 0 78 -7q141 -14 239 -13q33 0 60 1q33 2 58 -19q29 -25 28 -60q0 -29 -19 -53q-22 -26 -54 -30q-45 -3 -87 -2 q-56 0 -108 4l-129 13q-61 8 -145 14q-29 0 -49.5 20.5t-24.5 51.5z" />
<glyph unicode="M" horiz-adv-x="1058" d="M66 111q10 78 10 249q0 121 3 188.5t25.5 169t67.5 179.5q28 41 68 41q16 0 32 -6q88 -35 183 -154q51 -66 88 -88q23 23 49 55q37 43 59.5 68t67.5 55.5t92 42.5q12 4 18 4q59 -2 80 -53q33 -82 50.5 -189.5t20.5 -171t5 -194.5q4 -184 14 -280q1 -5 1 -11 q0 -27 -18 -48q-22 -26 -56 -29h-8q-29 0 -52.5 20.5t-25.5 50.5q-12 98 -17 295q-4 285 -37 416q-14 -14 -71 -80q-74 -84 -105 -111q-27 -16 -51 -16q-4 0 -20 4q-45 10 -89 41t-62.5 51.5t-57.5 67.5q-37 45 -54 61q-39 -113 -38 -379q0 -180 -13 -272 q-2 -31 -25.5 -50.5t-52.5 -19.5q-4 0 -8 2h-2q-35 4 -55 31q-17 22 -17 49q0 6 1 11z" />
<glyph unicode="N" horiz-adv-x="886" d="M39 -12q29 106 33 315q8 303 78 457q12 27 41 39q13 5 29 5q21 0 46 -9q92 -59 154 -158q43 -61 94 -178q66 -147 119 -205q40 150 40 378q0 132 -14 290q-2 33 18.5 59.5t53.5 30.5h6q29 0 53 -20q26 -22 29 -54q16 -160 16 -299q0 -333 -90 -551q-12 -29 -39 -42 q-12 -6 -29 -6q-20 0 -44 9q-96 51 -166 158q-31 45 -100 184q-66 143 -109 195q-18 -78 -27 -285q-4 -231 -38 -358q-18 -59 -76 -60q-16 0 -23 4q-33 10 -49 39q-10 18 -10 37q0 12 4 25z" />
<glyph unicode="O" horiz-adv-x="890" d="M45 528q10 115 37 209q35 121 86 189q102 143 270 143q8 0 28.5 -1t31.5 -1q96 -18 178 -86q72 -66 110 -160q62 -131 63 -315q0 -40 -3 -82q-18 -219 -111 -367q-53 -84 -119 -129q-76 -55 -170 -55q-53 0 -114 18q-45 16 -85 50t-59.5 60t-62.5 83l-29 41 q-10 14 -12 22q-43 126 -43 285q0 46 4 96zM205 516q-2 -40 -2 -76q0 -138 30 -229q6 -12 23 -33q49 -68 75.5 -95.5t55.5 -37.5q31 -12 59 -12q94 0 161 123t79 282q2 32 2 63q0 135 -44 249q-54 139 -171 157q-6 0 -17.5 1t-17.5 1q-84 0 -139 -78q-78 -110 -94 -315z" />
<glyph unicode="P" horiz-adv-x="794" d="M41 78q41 145 53 325q-24 109 -24 214q0 165 59 323q12 49 64 53q31 4 118 29q86 25 144 25h16q68 -6 127 -46q76 -45 121 -143q33 -76 39 -182q0 -215 -125 -309q-85 -57 -218 -58q-24 0 -50 2l-80 6l-35 7q-20 -176 -51 -287q-8 -29 -33 -45q-22 -15 -45 -15h-6 q-8 0 -13 3q-33 8 -51 35q-13 19 -13 42q0 10 3 21zM242 485q6 0 29.5 -3t35.5 -3q23 -4 72 -8q20 -1 39 -1q82 0 117 30q60 41 59 152v22q0 141 -82 192q-35 18 -55 19h-8q-39 0 -95 -19q-6 -2 -88 -22q-34 -116 -33 -235q0 -62 9 -124z" />
<glyph unicode="Q" horiz-adv-x="933" d="M43 471q-5 51 -5 99q0 80 13 149q33 147 125 235q57 51 123 68q55 18 117 18q17 0 35 -2q96 -6 178 -75q72 -59 121 -158q76 -150 77 -303q1 -15 1 -31q0 -131 -48 -235q102 -53 181 -144q18 -23 17 -52q0 -40 -30 -63q-23 -18 -49 -18q-41 0 -61 29q-51 57 -107 92 q-70 -111 -141 -162q-70 -47 -144 -47q-39 0 -75 12q-92 31 -166 133q-57 78 -109 209q-41 119 -53 246zM211 686q-12 -61 -12 -126q0 -133 51 -281q33 -94 79 -161t93 -83q11 -3 21 -3q28 0 55 19q49 31 106 131q-82 39 -184 150q-21 23 -21 53q0 39 29 61q25 20 57.5 18.5 t55.5 -24.5q57 -68 108 -98q20 59 20 130q0 30 -3 63q-12 109 -58 196q-74 137 -170 148q-8 2 -30 2q-158 0 -197 -195z" />
<glyph unicode="R" horiz-adv-x="866" d="M74 51q-13 115 -13 205q0 110 19 184q-41 162 -41 300q0 148 47 268q16 29 31 36q109 82 237 95q25 3 50 2q93 0 178 -37q102 -45 166.5 -126t76.5 -179q2 -17 2 -34q0 -183 -204 -337q98 -162 217 -418q8 -18 8 -36q0 -13 -4 -25q-10 -31 -39 -45q-16 -8 -37 -8 q-53 0 -72 45q-123 260 -237 448q-147 -33 -234 -33q-6 -39 -6 -90q0 -83 17 -196q0 -31 8 -84q2 -35 -18.5 -60.5t-53.5 -29.5h-10q-31 0 -54.5 21.5t-25.5 51.5q0 25 -8 82zM225 516q76 2 219 37q35 6 109 22q113 89 113 190v17q-8 53 -47 101.5t-101 72.5q-59 26 -118 26 q-86 0 -171 -54q-28 -86 -27 -194q-1 -100 23 -218z" />
<glyph unicode="S" horiz-adv-x="729" d="M18 92q-6 16 -5 31q0 17 6 33q13 31 47 43q31 10 60.5 -3.5t41.5 -43.5q29 -74 93 -111q58 -33 120 -33h14q121 10 144 103q6 25 6 47q0 52 -33 93q-47 58 -174 150q-98 68 -154 121q-86 88 -100 183q-3 22 -3 43q0 101 71 196q68 100 190 152q63 25 122 24q30 0 58 -6 q98 -20 166 -110q12 -21 12 -43q0 -8 -2 -17v-4q-4 -35 -30.5 -54.5t-59.5 -15.5q-49 6 -67 56q-28 34 -72 34q-30 0 -68 -16q-74 -29 -120 -94q-39 -50 -39 -101q0 -11 2 -22q4 -31 35.5 -67.5t60.5 -59t90 -68.5q152 -106 205 -174q72 -94 72 -199q0 -44 -13 -91 q-25 -100 -112 -162q-78 -53 -181 -60h-18q-106 0 -203 58q-115 65 -162 188z" />
<glyph unicode="T" horiz-adv-x="823" d="M-16 1035q22 20 53 20h6q11 -1 25 -1q42 0 112 9q76 8 135 8q72 0 117 -12q92 47 258 67l101 13q8 1 15 1q24 0 45 -15q28 -19 32 -52q1 -8 1 -16q0 -25 -15 -45q-19 -27 -54 -31q-18 -4 -53 -8t-53 -6q-127 -18 -191 -47q0 -186 6 -355q8 -159 9 -303q0 -176 -13 -330 q-4 -33 -27.5 -53t-54.5 -20h-8q-35 4 -55.5 28.5t-16.5 57.5q13 139 13 322q0 134 -6 292q-8 221 -9 350q-13 2 -34 2q-43 0 -121 -8q-82 -10 -132 -10q-21 0 -36 2q-35 4 -57 28q-20 22 -19 50q0 39 27 62z" />
<glyph unicode="U" horiz-adv-x="851" d="M55 1059q4 33 31 52q22 16 48 16q6 0 11 -1q33 -6 54 -31q17 -21 17 -49q0 -6 -1 -12q-2 -10 -2 -35q0 -51 8 -163l6 -62q16 -309 68.5 -482t116.5 -210q16 -9 33 -9q25 0 53 17q55 23 92 105q35 74 47 211q6 69 6 143q0 188 -41 403q-8 33 11.5 60.5t52.5 34.5 q33 4 59.5 -13.5t34.5 -50.5q46 -238 46 -440q0 -78 -7 -152q-14 -150 -64 -262q-53 -125 -162 -184q-68 -33 -129 -33q-68 0 -112 31q-147 82 -211 393q-39 162 -55 430q0 10 -5 55q-9 112 -9 178q0 38 3 60z" />
<glyph unicode="V" horiz-adv-x="749" d="M51 868q0 29 19 54q20 27 53 30q5 1 10 1q27 0 49 -19q27 -23 29 -55q8 -63 12 -136q10 -127 17.5 -193.5t35 -161.5t72.5 -159q63 96 115 344q49 246 110 357q16 29 49 39q12 4 24 4q19 0 36 -10q29 -16 38 -49q4 -12 3 -24q0 -19 -8 -38q-51 -92 -94 -311 q-43 -195 -68 -254q-51 -147 -150 -236q-29 -24 -58 -23h-2q-30 1 -50 19q-131 123 -182 330q-33 123 -50 354q0 11 -5 58.5t-5 78.5z" />
<glyph unicode="W" horiz-adv-x="1005" d="M74 373q-3 39 -4 92q0 80 8 194q8 124 8 196q0 36 -2 58q-4 33 18.5 58.5t55.5 27.5q5 1 10 1q27 0 48 -19q26 -23 28 -55q3 -37 3 -89q0 -78 -7 -190q-7 -90 -7 -163q0 -153 29 -232q27 37 45 78q25 43 39 66.5t46 58t67 55.5q21 15 43 15q20 0 41 -13q35 -20 63.5 -53 t40.5 -52.5t37 -64.5q43 -68 49 -74q27 186 53 475q2 29 8.5 88.5t8.5 86.5q4 35 30 56q22 18 49 18q5 0 11 -1q33 -4 53 -29q17 -21 17 -48v-11q-4 -53 -17 -176q-37 -401 -69 -590q-8 -35 -34 -52t-55 -17q-96 10 -161 75q-35 35 -82 121q-25 45 -43 72q-8 -10 -53 -84 q-80 -152 -185 -197q-8 -4 -16 -4q-10 -2 -18 -2q-40 0 -66 39q-78 123 -90 285z" />
<glyph unicode="X" horiz-adv-x="761" d="M25 869q8 32 38 49q27 16 61 8t48 -37q6 -10 19.5 -35t21.5 -35q82 -156 147 -215q51 66 121 225q12 25 37 82q16 31 47 41q13 4 26 5l36 -9q31 -14 42 -45t-3 -61l-37 -78q-80 -188 -156 -272q43 -31 79 -71t65.5 -91t46 -84t43.5 -94q45 -94 67 -138q10 -17 11 -37 q0 -11 -4 -23q-9 -34 -40 -48q-20 -12 -36 -12q-49 0 -70 43q-39 63 -76 151q-86 199 -172 266q-90 -115 -178 -288q-23 -43 -72 -43q-20 0 -37 8q-29 14 -39 46q-4 13 -4 26q0 18 9 36q92 190 206 330q-96 76 -202 274l-37 64q-11 20 -11 41q0 10 3 21z" />
<glyph unicode="Y" horiz-adv-x="788" d="M-88 1043q0 30 20 53q23 25 57 25h3q32 0 55 -21q63 -57 164 -219q35 -57 55.5 -88t55 -70t69.5 -61q223 213 324 380q16 29 48 37t60.5 -8t37.5 -49q3 -12 4 -23q0 -20 -11 -38q-106 -180 -365 -429q2 -27 3.5 -57.5t2.5 -65t1 -55.5q0 -219 30 -331q10 -31 -6 -60 t-47 -37q-8 -4 -24 -4q-59 0 -76 58q-39 127 -39 372q0 106 -4 158q-76 43 -140 115q-45 53 -118 172q-80 135 -133 182q-27 27 -27 64z" />
<glyph unicode="Z" horiz-adv-x="724" d="M12 829q6 33 36 51.5t61 10.5q21 -5 50 -5q55 0 142 17q87 15 156 15q89 0 149 -25q51 -24 51 -73q0 -10 -2 -21q-16 -66 -59 -143.5t-76 -124t-100 -134.5q-135 -178 -182 -280q13 -3 37 -3q55 0 165 13q110 15 174 15q29 0 48 -3q33 -4 53 -30q17 -22 17 -51 q0 -6 -1 -11q-6 -29 -29.5 -49.5t-50.5 -20.5h-12q-16 3 -41 4q-50 0 -135 -14q-129 -18 -178 -18q-104 0 -179 45q-29 20 -38 55q-14 27 -5 57q18 63 60.5 138t72 117t95.5 133q135 170 180 268h-5q-30 0 -136 -19q-113 -23 -166 -22q-45 0 -92 12q-33 8 -50 36 q-12 19 -12 40q-1 10 2 20z" />
<glyph unicode="[" horiz-adv-x="653" d="M131 971q16 31 50 41t67 -4q41 8 114 16q14 2 46 2q37 4 66.5 -18.5t31.5 -61.5q4 -37 -19.5 -66.5t-60.5 -33.5q-16 -2 -51 -2l-47 -4q0 -92 -9 -265q-16 -297 0 -430q8 0 37 5q113 23 183 2q35 -10 53 -44t6 -71q-10 -35 -43 -52.5t-70 -7.5q-29 6 -98 -4 q-61 -12 -100 -12t-70 8l-57 15l-8 57q-31 170 -15 543q10 246 10 276q-49 50 -16 111z" />
<glyph unicode="\" horiz-adv-x="561" d="M-2 942q12 35 47 51q33 16 69 3t50 -48q27 -55 164 -366q164 -383 219 -492q18 -35 6 -68.5t-47 -50.5q-12 -12 -39 -12q-57 0 -80 51q-59 117 -227 500l-158 364q-16 33 -4 68z" />
<glyph unicode="]" horiz-adv-x="622" d="M90 958.5q-2 36.5 23 65.5q25 27 61.5 30t65.5 -22q10 -6 43 -6q76 0 125 -29l36 -20l9 -41q59 -342 26 -842v-24l-16 -23q-49 -68 -152 -86q-31 -6 -59 -6q-8 0 -82 8q-37 8 -58.5 39t-15.5 68q8 37 40 58.5t69 12.5q49 -8 78 0q10 0 18 4q25 414 -18 701h-9 q-102 6 -153 51q-29 25 -31 61.5z" />
<glyph unicode="^" horiz-adv-x="792" d="M46 577.5q-1 36.5 24 65.5q8 8 84 100q88 125 159 183q37 33 78 16q86 -25 154 -92q31 -27 96 -115q53 -74 78 -96q27 -27 28 -63.5t-24 -63.5q-27 -29 -66 -29q-35 0 -61 23q-43 43 -100 123q-72 96 -107 121q-53 -55 -92 -113q-63 -86 -94 -119q-27 -29 -64 -30t-63 26 q-29 27 -30 63.5z" />
<glyph unicode="_" horiz-adv-x="774" d="M-57 -258q2 37 30.5 61.5t65.5 22.5q147 -12 461 0q260 10 352 6q37 -2 63.5 -28.5t24.5 -63.5q-2 -39 -28.5 -64.5t-65.5 -25.5q-137 4 -340 -6q-270 -6 -275 -6q-104 0 -204 6q-39 2 -63.5 31.5t-20.5 66.5z" />
<glyph unicode="`" horiz-adv-x="716" d="M182 988q6 32 33 52q27 18 59.5 12.5t53.5 -32.5q18 -33 88 -78q74 -55 96.5 -77.5t21 -56.5t-25.5 -56q-20 -23 -55 -23t-58 23q-16 16 -71 59q-98 70 -129 117q-19 28 -13 60z" />
<glyph unicode="&#x300;" horiz-adv-x="716" d="M182 988q6 32 33 52q27 18 59.5 12.5t53.5 -32.5q18 -33 88 -78q74 -55 96.5 -77.5t21 -56.5t-25.5 -56q-20 -23 -55 -23t-58 23q-16 16 -71 59q-98 70 -129 117q-19 28 -13 60z" />
<glyph unicode="&#x2cb;" horiz-adv-x="716" d="M182 988q6 32 33 52q27 18 59.5 12.5t53.5 -32.5q18 -33 88 -78q74 -55 96.5 -77.5t21 -56.5t-25.5 -56q-20 -23 -55 -23t-58 23q-16 16 -71 59q-98 70 -129 117q-19 28 -13 60z" />
<glyph unicode="a" horiz-adv-x="942" d="M47 264q12 121 103 230q84 113 206 151q46 14 89 14q39 0 75 -12q80 -20 154 -100q19 -26 18 -56q0 -43 -28 -153l-7 -16q6 -14 7 -31q-2 -18 -2 -34q0 -67 34 -95q23 -21 59 -21q13 0 27 2l23 9l65 22q31 12 61 -2t42 -47q4 -13 4 -27q0 -17 -7 -35q-13 -31 -46 -40 q-20 -8 -64 -23q-4 0 -15 -4t-18 -6q-4 -2 -11 -4t-9 -2q-16 -2 -47 -2q-104 0 -172 61q-25 20 -41 49q-115 -139 -230 -174q-33 -8 -51 -8q-59 0 -110 41q-66 57 -90 151q-21 60 -22 120q0 21 3 42zM207 246q-1 -9 -1 -19q0 -36 12 -77q15 -53 40 -74q7 -3 10 -3q2 0 2 1 q90 27 203 190l10 15q4 18 12.5 53t10.5 49q12 37 20 82q-40 35 -84 35q-18 0 -36 -6q-70 -20 -129.5 -95t-69.5 -151z" />
<glyph unicode="b" horiz-adv-x="770" d="M33 809q-3 10 -3 21q0 21 12 40q17 29 48 37q11 3 22 3q21 0 40 -11q29 -16 36 -47q33 -137 50 -287q80 43 147 58q35 8 67.5 8t63.5 -8q70 -18 125 -72l2 -2q88 -88 88 -197v-13q0 -95 -55 -181q-82 -123 -223 -181q-86 -35 -170 -34q-72 0 -133 24q-29 8 -44 39 q-37 72 -36 209q0 46 4 98q5 68 4 121v33q0 6 4 31q-16 186 -49 311zM236 303q-7 -62 -7 -108q0 -53 9 -84q26 -6 51 -6q59 0 120 29q87 42 132 114q32 48 32 91q0 51 -45 95q-34 34 -79 34q-14 0 -29 -3q-47 -8 -172 -76q-2 0 -10 -4q0 -14 -1 -42t-1 -40z" />
<glyph unicode="c" horiz-adv-x="737" d="M37 358q12 111 94 195q76 82 184 117q51 15 100 15q46 0 90 -13q91 -27 152 -105q20 -25 15.5 -58.5t-31.5 -53.5q-25 -20 -57.5 -16.5t-53.5 30.5q-43 55 -109 55q-28 0 -61 -10q-61 -20 -107 -65.5t-54 -104.5q-1 -14 -1 -26q0 -119 85 -175q63 -45 155 -47h9 q88 0 174 41q31 14 61.5 3t46.5 -40q8 -18 8 -36q0 -14 -5 -27q-11 -31 -42 -43q-117 -59 -246 -60q-141 0 -254 74q-78 57 -120 146q-34 76 -34 173q0 15 1 31z" />
<glyph unicode="d" horiz-adv-x="657" d="M31 346q-1 13 -1 25q0 60 17 104q31 61 80 88q53 35 137 35q29 0 62 -4q2 -2 47 -12q-4 61 -8 96q-6 104 -27 170q-6 33 11.5 61.5t49.5 34.5q10 3 20 3q22 0 41 -13q28 -18 38 -49q14 -59 26 -195q16 -145 33 -235q4 -66 39 -146q4 -20 17.5 -54t15.5 -46q2 -20 2 -35.5 t-10.5 -29t-32.5 -25.5q-96 -53 -201 -64h-6q-20 -2 -40 -1q-93 0 -161 40q-126 72 -149 252zM190 356q6 -88 68 -120q38 -22 89 -22q46 0 104 17q-4 12 -5 17q-41 111 -47 151q-89 41 -140 41q-28 0 -46 -12q-23 -12 -23 -57q-1 -7 0 -15z" />
<glyph unicode="e" horiz-adv-x="735" d="M47 399q-1 11 -1 22q0 78 40 148q49 90 147 152q98 63 193 70q12 1 24 0q94 0 156 -58q74 -70 74 -186q-4 -78 -41 -139q-43 -59 -98 -93q-96 -59 -244 -73h-94q14 -96 69 -136q43 -33 109 -32h8h21q98 10 211 63q29 12 59.5 0t44.5 -41q8 -17 8 -34q0 -14 -5 -28 q-11 -32 -42 -44q-139 -66 -264 -78h-31q-135 0 -219 70q-90 68 -117 182q-16 68 -15 138q-1 48 7 97zM207 406q34 -3 57 -3h21q219 16 233 144q-4 53 -20 67q-16 16 -43 16q-8 0 -17 -1q-59 -4 -120.5 -43t-90.5 -92q-22 -38 -21 -73q0 -7 1 -15z" />
<glyph unicode="f" horiz-adv-x="514" d="M0 535q0 35 24.5 58t57.5 23h12q0 317 150 437q68 51 153 51q51 0 109 -19q33 -10 47 -39q8 -17 8 -36q0 -13 -4 -27q-8 -33 -38 -47t-60 -4q-32 11 -59 10q-35 0 -58 -18q-80 -61 -88 -297q109 0 162 -9q33 -6 53 -33.5t12 -58.5q-4 -29 -26.5 -49t-51.5 -20q-4 0 -7 1 t-5 1q-39 6 -121 6q-1 -23 -1 -46q0 -152 59 -298q10 -31 -3.5 -61.5t-41.5 -43.5q-16 -6 -31 -6q-55 0 -74 51q-70 170 -70 362q0 16 1 32h-29q-33 0 -56.5 23.5t-23.5 56.5z" />
<glyph unicode="g" horiz-adv-x="751" d="M-27 -463q4 33 31 55q27 18 59.5 14.5t53.5 -28.5q41 -55 129 -92q66 -27 102 -27q133 18 170 293q13 95 13 247q0 38 -1 79q-86 -35 -174 -35q-76 0 -135 23q-68 29 -110 77q-66 75 -66 194q0 30 4 62q18 133 119 234q106 106 246 106q100 0 184 -55q6 -2 31 -33 q53 -111 52 -252q0 -46 -5 -94l6 -18v-19q10 -160 10 -286q0 -149 -14 -252q-25 -172 -84 -275q-39 -63 -92 -102q-59 -45 -133 -53h-19q-59 0 -153 32q-141 61 -207 146q-17 22 -17 48q-1 6 0 11zM209 373q-3 -20 -3 -39q0 -51 25 -84q43 -47 125 -47q78 0 148 43 q18 77 18 147q0 91 -30 168q-41 18 -78 19q-76 0 -135.5 -63.5t-69.5 -143.5z" />
<glyph unicode="h" horiz-adv-x="774" d="M53 920q-1 5 0 10q0 27 17 50q20 28 53 30q5 1 11 0q26 0 48 -17q27 -20 29 -53q10 -63 10 -188q0 -131 8 -187q82 41 160 58q39 8 73 8q72 0 128 -35q98 -66 123 -223q8 -50 8 -112q0 -82 -14 -185q-2 -31 -26 -50.5t-52 -19.5h-13q-33 4 -52 29.5t-15 58.5 q11 84 11 154q0 56 -7 102q-8 82 -51 111q-18 12 -45 12q-71 0 -205 -82q-9 -39 -9 -94t9 -127q10 -123 10 -154q0 -35 -22.5 -56t-59.5 -26q-35 2 -57.5 26t-22.5 56q0 57 -10 140q0 6 -3 33.5t-3 35.5t-2 34t-2 37v34q0 23 2 37t6 33.5t8 37.5q-37 104 -37 314 q0 115 -6 168z" />
<glyph unicode="i" horiz-adv-x="331" d="M43 840v10q-1 5 -1 10q0 28 19 49q20 27 54 29h5q30 0 54 -20q29 -23 37 -60q4 -27 -4 -43q-16 -57 -76 -57q-8 0 -25 4l-16 6q-47 23 -47 72zM78 549q-2 10 -3 19q0 22 14 41q19 28 52 36q6 1 12 1q26 0 49 -15q28 -18 34 -51q14 -76 14 -263q-1 -27 -1 -51 q0 -123 17 -190q3 -11 3 -21q0 -23 -13 -42q-18 -28 -51 -36q-4 -2 -17 -2q-61 0 -79 60q-21 88 -22 236q0 25 1 51q1 35 1 65q0 108 -11 162z" />
<glyph unicode="j" horiz-adv-x="415" d="M-324 -216q10 32 39 48q29 14 62 4t47 -39q33 -63 127 -108q53 -25 115 -35q66 12 92 53q38 59 38 194q0 25 -1 52q-8 176 -64 399q-8 33 7.5 61.5t47.5 37.5q12 3 23 2q22 0 40 -11q28 -16 36 -49q55 -201 69 -416q6 -44 6 -88q0 -51 -8 -100q-12 -100 -63 -172 q-70 -106 -207 -123h-14q-78 0 -174 45q-152 63 -213 185q-8 17 -9 34q0 13 4 26zM74 861q0 29 20 50q23 27 56 30h7q28 0 52 -19q10 -8 19.5 -18.5t11.5 -12.5h2q23 -25 22.5 -59.5t-24.5 -57.5q-23 -23 -56 -22q-31 0 -59 24v2l-8 8l-13 13q-30 23 -30 62z" />
<glyph unicode="k" horiz-adv-x="811" d="M29 1026q-3 10 -3 20q0 22 13 41q18 29 49 37q10 3 21 3q21 0 39 -12q28 -17 38 -50q18 -70 19 -416q0 -123 22 -190q219 121 394 344q23 27 55.5 31t59 -16.5t29.5 -54.5t-17 -56q-96 -131 -228 -240q-113 -90 -205 -141q217 -131 230 -140q39 -23 99.5 -59.5 t111.5 -65.5q27 -16 36 -49q3 -12 3 -23q0 -20 -11 -38q-25 -41 -71 -41q-20 0 -39 12q-53 31 -119 72t-90 55q-20 12 -95 56.5t-116 68.5q-1 -31 -1 -59q0 -114 19 -193q10 -31 -6 -61.5t-47 -40.5q-12 -4 -22 -4q-61 0 -78 57q-29 96 -29 213t12 233l-6 13 q-53 117 -53 315q0 311 -14 379z" />
<glyph unicode="l" horiz-adv-x="346" d="M90 500q4 244 51 448q10 33 38 50q19 12 40 12q10 0 21 -2q33 -8 49 -36q11 -18 11 -39q0 -10 -3 -22q-47 -209 -47 -447q0 -186 29 -390q6 -33 -13.5 -59.5t-54.5 -30.5h-10q-31 0 -54.5 18t-25.5 49q-31 214 -31 404v45z" />
<glyph unicode="m" horiz-adv-x="1290" d="M53 305q-4 26 -4 50q0 91 55 155q43 51 150 98q106 44 189 44q13 0 26 -1q86 -6 158 -61q74 47 153 69q47 11 92 11q60 0 115 -19q88 -29 151.5 -104.5t88.5 -181.5q11 -45 11 -122q0 -22 -1 -46q-1 -22 -1 -41q0 -57 9 -86q3 -11 3 -22q0 -21 -11 -40q-16 -29 -49 -37 q-6 -4 -21 -4q-59 0 -77 58q-15 54 -16 138q0 19 1 40q1 29 2 52q0 47 -6 73q-29 135 -137 172q-30 11 -62 10q-79 0 -170 -66q2 -25 27 -141q25 -129 29 -176q4 -33 -17.5 -59.5t-54.5 -28.5h-10q-31 0 -53.5 21.5t-24.5 52.5q-4 47 -29 159q-20 96 -28 181q-36 36 -97 36 q-55 0 -129 -30q-72 -29 -91 -56q-14 -19 -13 -47q0 -12 2 -26q23 -147 23 -295q2 -35 -20.5 -59.5t-55.5 -24.5h-4q-33 0 -56.5 21.5t-25.5 54.5q-1 141 -21 278z" />
<glyph unicode="n" horiz-adv-x="782" d="M43 530q-2 8 -2 16q0 23 14 44q18 27 51 35q10 3 20 2q22 0 41 -13q28 -18 34 -51l8 -37q61 33 127 47q58 15 110 16q94 0 166 -50q55 -41 85 -115t35 -124t7 -138v-45q2 -35 -20.5 -59.5t-56.5 -26.5h-3q-33 0 -56 22.5t-23 55.5q0 6 -1 23.5t-1 27.5q-4 205 -62 250 q-28 20 -69 19q-32 0 -72 -11q-98 -27 -158 -74q6 -84 6 -88q4 -45 13 -84q17 -106 17 -169q0 -13 -1 -23q-2 -33 -25.5 -55.5t-54.5 -22.5h-6q-33 2 -54 28q-20 24 -20 54q0 4 0.5 11t0.5 12q0 46 -17 136q-18 102 -19 224q-4 122 -14 163z" />
<glyph unicode="o" horiz-adv-x="673" d="M47 184q-19 50 -19 102q0 71 35 144q49 119 148 182q76 49 158 50q113 0 194 -89q82 -96 82 -223q0 -22 -2 -45q-12 -94 -65 -184q-66 -96 -152 -137h-2q-45 -23 -102 -23q-98 0 -177 76q-61 57 -96 141v2zM197 242q23 -49 56.5 -85t68.5 -36q18 0 34 8q47 23 83 78 t44 117q2 13 2 25q0 63 -43 118q-35 35 -73 35q-31 0 -70 -25q-57 -33 -90 -110q-19 -49 -19 -86q0 -21 7 -39z" />
<glyph unicode="p" horiz-adv-x="735" d="M43 -479l10 563v6q14 119 19 307q0 4 6 138q0 23 14 43v2q4 33 31 53q22 17 49 17q5 0 10 -1q358 -53 473 -221q53 -70 53 -148q0 -34 -10 -69q-33 -168 -168 -242l-2 2q-37 -23 -116 -38q-70 -14 -140 -13h-18q-8 0 -21.5 2t-19.5 2l-8 -405q0 -33 -24.5 -56.5 t-59.5 -23.5h-2q-31 2 -52.5 25.5t-23.5 56.5zM217 86h6q31 -7 63 -7q36 0 74 9q80 8 93 27q63 25 90 127q3 11 2 22q0 33 -21 74q-63 88 -286 139q0 -29 -5 -86q-4 -188 -16 -305z" />
<glyph unicode="q" horiz-adv-x="761" d="M29 270q0 121 102 230q125 129 291 129q63 0 135 -31q61 -27 115 -92q20 -27 16 -57q-1 -9 -1 -22q0 -38 9 -108q5 -60 5 -108q0 -90 -17 -139q20 -75 20 -205q0 -69 -6 -154q-9 -109 -8 -148v-14q0 -33 -23.5 -56t-56.5 -25q-33 0 -56.5 23.5t-23.5 55.5v27q0 57 7 152 q9 91 9 157q0 50 -5 86q-76 -16 -138 -16q-150 0 -249 70q-66 51 -88 104q-33 55 -37 141zM190 272q0 -74 57.5 -114.5t155.5 -40.5q68 0 132 20q7 28 7 69.5t-7 96.5q-8 82 -9 125q-43 39 -104 39q-96 0 -176 -80q-56 -60 -56 -115z" />
<glyph unicode="r" horiz-adv-x="716" d="M43 541q-1 6 -1 11q0 28 17 50q20 27 56 29q5 1 10 0q26 0 48 -17q26 -20 30 -53l4 -35v-10q86 63 153 88q68 28 131 28q93 0 175 -61q27 -20 31 -53q1 -7 1 -14q0 -25 -14 -45q-23 -27 -54 -32q-6 -1 -13 -1q-25 0 -48 16q-33 28 -77 28q-34 0 -74 -15 q-86 -37 -180 -125q-6 -6 -13 -8q6 -33 15 -113q12 -74 18 -150q2 -33 -18.5 -58.5t-53.5 -29.5q-4 -2 -8 -2q-31 0 -54.5 20.5t-25.5 53.5q-2 23 -8 72t-8 73q-14 98 -25 211q-6 86 -10 109q-4 21 -4 33z" />
<glyph unicode="s" horiz-adv-x="638" d="M-14 40q0 34 26 56q27 24 54 25l40 -15l9 -4q6 -4 10 -8l8 -4q77 -73 161 -73q24 0 48 6q57 12 74 59q4 12 3 26q0 17 -5 37q-10 37 -33 64q-14 14 -90 55q-98 55 -137 92q-74 73 -75 171q0 10 1 20q10 125 121 170q45 21 105 21q47 0 104 -13q106 -27 172 -80 q27 -20 30 -54q1 -6 1 -11q0 -27 -17 -45q-20 -29 -53 -33q-5 -1 -11 -1q-27 0 -51 17q-35 29 -112 51q-35 8 -61 8.5t-44 -8.5q-25 -9 -25 -45q0 -29 25 -52q29 -26 105 -66q76 -39 123 -82q61 -66 77 -131q12 -43 12 -82q0 -42 -14 -78v-2q-45 -129 -186 -164 q-37 -9 -80 -9q-32 0 -65 5l-41 8q-102 35 -162 94q-12 4 -23 17q-24 24 -24 58z" />
<glyph unicode="t" horiz-adv-x="669" d="M51 254q-1 12 -1 27q0 69 16 211q8 94 8 98q0 20 4 31q0 4 -1 10q0 33 9 129q5 55 5 84q0 15 -1 22q-4 33 15.5 59.5t52.5 32.5q3 0 6 1q31 0 54 -20q26 -22 30 -54q1 -11 1 -31q0 -39 -5 -113q-7 -56 -7 -86q0 -8 1 -14q102 12 262 115q20 13 41 12q10 0 20 -2 q33 -8 49 -37q13 -19 14 -41q0 -9 -2 -18q-7 -33 -36 -49q-123 -78 -193 -105q-94 -35 -166 -35v-6q-15 -134 -15 -194q0 -13 1 -23q8 -137 45 -186q23 -23 51 -23h6q32 0 113 43q66 37 94 43q10 3 20 3q22 0 42 -13q29 -18 37 -51q3 -10 2 -21q0 -21 -12 -39 q-17 -27 -50 -37q-4 -2 -59 -28q-119 -61 -189 -62h-18q-102 10 -162 84q-70 84 -82 283z" />
<glyph unicode="u" horiz-adv-x="763" d="M51 293q-14 73 -14 148q0 85 18 173q6 33 34 51q20 13 45 12q9 0 18 -1q33 -6 50 -35t11 -61q-14 -67 -14 -134q0 -59 11 -117q24 -124 85 -184q45 -37 99 -37q23 0 48 7q61 16 93 102q18 55 18 125q0 32 -4 68q-14 106 -51 155q-18 27 -13.5 60.5t33.5 52.5q21 14 45 14 q7 0 14 -1q32 -5 52 -34q59 -78 80 -227q6 -46 5 -89q0 -96 -28 -177q-23 -70 -70 -123q-55 -57 -131 -82q-49 -12 -96 -12q-41 0 -70 10q-74 14 -133 72q-100 90 -135 264z" />
<glyph unicode="v" horiz-adv-x="757" d="M14 635q-6 14 -5 28q0 17 7 33q14 31 45 43q14 4 29 5q18 0 35 -8q31 -13 43 -46q31 -84 55 -268q33 -207 68 -279q8 -16 18 -32q57 76 137 274q104 229 152 295q20 29 53 35t60 -15q27 -18 32 -51q2 -8 2 -16q0 -23 -14 -43q-55 -82 -133 -271q-41 -96 -63.5 -143 t-68.5 -119.5t-97 -124.5q-26 -24 -55 -23q-26 0 -54 19q-98 78 -147 224q-31 98 -50 245q-24 175 -49 238z" />
<glyph unicode="w" horiz-adv-x="1069" d="M45 215q-7 48 -6 109q0 92 14 213q4 33 32 52t60 15q33 -2 53 -29q16 -22 16 -49q0 -6 -1 -12q-14 -123 -14 -205q0 -41 4 -71q18 -113 73 -150q29 23 66 98q55 111 113 158q25 20 51 20q23 0 47 -16q53 -39 115 -125q39 -53 60.5 -72.5t45.5 -21.5q78 84 87 228l2 42 q0 118 -46 209q-6 15 -6 31t6 32q12 32 43 42q17 8 35 8l27 -5q31 -11 45 -42q57 -134 57 -276q0 -37 -4 -74q-8 -92 -45 -181q-45 -94 -111 -153q-16 -14 -39 -21h-47q-78 0 -139 47q-45 35 -100 113q-4 4 -12.5 16.5t-14.5 18.5l-27 -49q-25 -49 -41 -76t-53 -63.5 t-84 -55.5q-10 -4 -30.5 -4t-30.5 6q-90 37 -144 123q-41 68 -57 170z" />
<glyph unicode="x" horiz-adv-x="813" d="M-42 666q-1 6 -1 12q0 24 16 47q20 27 53 32q6 1 12 1q25 0 48 -17q61 -43 164 -163q74 -88 125 -132q133 152 203 314q16 29 47 41q14 6 28 5q16 0 31 -7q33 -14 45 -45t-2 -62q-90 -197 -258 -383v-14q74 -55 188 -205q102 -133 152 -170q27 -18 32 -51q1 -6 1 -12 q0 -26 -19 -47q-23 -33 -63 -33q-29 0 -47 16q-80 61 -185 201q-94 119 -137 156q-59 -57 -145 -222q-18 -35 -25 -45q-23 -41 -69 -41q-14 0 -39 8q-29 16 -38 48t7 61q6 16 22 45q111 209 203 289v4q-70 47 -182 176q-78 96 -135 139q-27 23 -32 54z" />
<glyph unicode="y" horiz-adv-x="598" d="M-19 697q5 32 31 55q27 18 59.5 13t53.5 -32q47 -66 102 -221q49 -145 95 -195q25 51 65 236q23 119 47 199q10 33 41 47q18 8 37 8q13 0 27 -4q31 -10 45 -41q8 -18 8 -36q0 -13 -4 -26q-23 -72 -45 -180q-31 -168 -76 -270q0 -2 -1 -4t-1 -4q-133 -440 -176 -633 q-12 -63 -80 -64q-10 0 -16 2q-33 6 -51.5 34t-12.5 61q53 231 141 508q-41 27 -71.5 61.5t-55 84.5t-36 76.5t-31.5 88.5q-43 127 -80 176q-16 23 -16 48q0 6 1 12z" />
<glyph unicode="z" horiz-adv-x="790" d="M-76 553q6 33 33 51q20 14 45 14q8 0 16 -2q22 -5 53 -4q71 0 183 27q142 29 207 29h8q137 0 231 -76q30 -26 30 -60q0 -6 -1 -12q-18 -125 -94 -246q-31 -45 -154 -188q-129 -145 -166 -217q78 -29 193 -31h32q96 0 177 10q41 5 67 5h15q35 -4 55 -29q19 -22 19 -52 q0 -34 -25 -58q-23 -22 -55 -21h-5q-8 0 -57 -4q-203 -12 -211 -13q-43 0 -65 2q-158 8 -283 80l-8 4q-20 14 -29.5 41t-1.5 54q20 61 64.5 128.5t71 99.5t91.5 108q59 66 87 99.5t63 89.5t49 107q-35 15 -91 16q-73 0 -181 -26q-130 -27 -219 -27q-44 0 -78 7q-35 6 -53 34 q-14 21 -14 44q-1 8 1 16z" />
<glyph unicode="{" horiz-adv-x="571" d="M88 502q6 35 37 55.5t68 15.5h14q27 33 -27 177q-51 137 -51 204q0 70 31 125q35 59 102 105q10 6 19 8l24 4q68 4 158 -37q35 -16 48 -52t-3 -69q-25 -53 -84 -53q-20 0 -39 10q-35 14 -47 19q-31 -29 -29 -68t39 -131q49 -135 53 -188q0 -68 -20 -115q-20 -37 -25 -41 q57 -113 58 -344q0 -188 35 -262q18 -35 6.5 -70t-45.5 -51q-18 -12 -39 -12q-55 0 -82 51q-29 53 -42.5 118.5t-15.5 107.5t-2 118q0 190 -36 266q-23 0 -35 2q-37 8 -57.5 39t-12.5 68z" />
<glyph unicode="|" horiz-adv-x="479" d="M154 954q0 35 22.5 58.5t54.5 23.5h5q33 0 56 -22.5t23 -55.5l21 -954q0 -33 -22.5 -56.5t-57.5 -25.5h-2q-33 0 -56.5 22.5t-23.5 55.5z" />
<glyph unicode="}" horiz-adv-x="567" d="M12 1104q0 35 27 61.5t63 26.5h2q154 0 224 -82q45 -53 47 -138t-17 -151q-18 -113 -12 -146.5t45 -49.5l78 -31l-25 -80q-16 -55 -24 -227q-4 -193 -33 -283q-47 -170 -201 -235q-10 -6 -34 -7q-57 0 -84 54q-14 35 0 68.5t49 49.5q74 31 95 110t28 247q4 123 16 207 q-76 57 -88 153q-12 66 14 203q0 6 6.5 47t6.5 57q0 31 -7 37q-20 14 -86 15q-37 0 -63.5 27.5t-26.5 66.5z" />
<glyph unicode="~" horiz-adv-x="929" d="M5 380q-7 36 13 69l21 18q51 78 104 119q57 47 125 51q70 2 140 -53q23 -20 81 -88q86 -111 136 -103q10 0 37 29q12 12 77 86q16 20 27 31q23 29 61.5 31.5t65.5 -21.5q29 -25 32 -61.5t-22 -67.5q-12 -10 -26 -31q-47 -55 -74 -82.5t-67 -56.5t-79 -35q-29 -4 -45 -4 q-82 0 -151 51q-55 43 -113 119q-8 8 -25.5 29.5t-25.5 30t-18 14.5l-5 2l-4 -2q-6 -4 -13 -10.5t-17.5 -16.5t-24.5 -27.5t-31 -40.5q-4 -8 -12 -16l-10 -10q-25 -25 -57.5 -29t-63.5 17q-29 22 -36 58z" />
<glyph unicode="&#xa1;" horiz-adv-x="466" d="M68 811q0 35 24 57q23 23 56.5 23t56.5 -25l2 -2l26 -24q25 -23 28 -55.5t-19 -59.5q-20 -27 -60 -27q-33 0 -53 19q-8 6 -37 35l-2 2q-22 22 -22 57zM178 299q-10 33 4.5 60.5t47 38t62.5 -4t38 -47.5q47 -145 63 -467q6 -111 10.5 -172t20.5 -150t45 -159 q10 -33 -3 -62.5t-42 -44.5q-10 -2 -31 -2q-55 0 -76 49q-33 80 -51 186.5t-22 157t-13 187.5q-12 291 -53 430z" />
<glyph unicode="&#xa2;" horiz-adv-x="768" d="M55 414q12 113 95 196q78 78 165 109q-2 51 -2 123q4 35 29 56.5t57.5 17t55 -29t20.5 -57.5v-92q123 -16 201 -112q18 -27 14 -60t-31 -53q-25 -20 -57.5 -17t-52.5 29q-31 37 -64 47q0 -20 4 -69q16 -262 19 -346q72 10 131 37q31 14 61.5 2.5t47.5 -39.5 q14 -31 2.5 -62t-41.5 -45q-102 -49 -199 -55q-4 -106 -16 -141q-18 -57 -76 -58q-16 0 -25 6q-33 10 -48 38t-5 61q8 23 10 106q-72 14 -141 60q-82 57 -121 143q-39 90 -33 205zM217 399q-8 -143 84 -200q23 -18 45 -25q-2 121 -18 318q0 10 -1 28.5t-1 26.5 q-99 -58 -109 -148z" />
<glyph unicode="&#xa3;" horiz-adv-x="958" d="M66 512q8 33 36.5 49.5t61.5 5.5q16 -4 49 -8q-14 41 -20 80q-12 84 -7 176q8 88 39 168q37 88 92 137q72 63 164 54q88 -8 183 -84q27 -20 28.5 -54.5t-18.5 -58.5q-20 -27 -54 -30t-59 20q-57 45 -94 45q-25 4 -45 -15q-59 -47 -76 -198q-10 -133 31 -219 q147 43 303 24q33 -4 54.5 -29.5t17.5 -58.5t-28 -53.5t-54 -20.5q-4 0 -8 2q-109 12 -209 -12l18 -98q25 -92 27 -178q92 -109 198 -115q84 -6 152 63q23 23 56.5 23t58.5 -23q23 -23 22.5 -57.5t-22.5 -56.5q-109 -109 -252 -109h-25q-92 2 -188 64q-31 18 -72 55 q-2 -4 -4 -11t-4 -12q-27 -51 -45.5 -79.5t-59.5 -65.5t-92 -49q-6 -2 -18 -2q-66 0 -80 59q-8 33 10.5 61.5t48.5 37.5q25 6 42.5 29.5t47.5 82.5q39 74 64 107q0 35 -23 143q-16 86 -18 96q-14 -2 -43 -2q-70 0 -131 17q-33 10 -49 38.5t-6 61.5z" />
<glyph unicode="&#xa4;" horiz-adv-x="552" d="M78 524l6 13l10 12q39 45 101 55q43 16 88 17q106 0 168 -74q53 -59 34 -146v-10q-27 -76 -84 -115q-51 -33 -118 -32q-127 0 -187 94q-59 84 -18 186z" />
<glyph unicode="&#xa5;" horiz-adv-x="921" d="M-27 951.5q-2 33.5 21 58.5q25 25 58.5 25.5t58.5 -21.5q76 -72 161 -219q109 -174 183 -220q229 225 323 381q14 29 47 37t61.5 -8t37 -49t-8.5 -62q-100 -170 -309 -374l76 -4h70q35 -2 57 -27t20 -57q0 -33 -23.5 -55.5t-55.5 -22.5h-72l-121 6v-86l166 -6 q12 0 34.5 -1t35.5 -1q33 -2 56 -26.5t21 -57.5t-25.5 -54.5t-56.5 -21.5h-69l-156 6q4 -82 27 -155q10 -31 -6.5 -60t-48.5 -37q-8 -4 -23 -4q-61 0 -78 58q-25 80 -33 198q-113 -4 -161 -16q-16 -4 -21 -4q-27 0 -49.5 17t-28.5 44q-8 35 8.5 62.5t49.5 35.5q68 16 196 23 v88q-127 -4 -196 -18q-2 0 -9.5 -1t-11.5 -1q-27 0 -48 17t-30 44q-8 33 9.5 61.5t50.5 36.5q53 12 131 19q-12 10 -37 39q-45 53 -119 172q-88 143 -133 184q-27 23 -29 56.5z" />
<glyph unicode="&#xa6;" horiz-adv-x="442" d="M131 1114q0 33 23.5 57.5t56.5 24.5h2q33 0 56.5 -22.5t23.5 -55.5l6 -364q0 -33 -23.5 -57.5t-56.5 -24.5h-2q-33 0 -56.5 23.5t-23.5 56.5zM143 485q-2 33 20.5 55.5t57.5 24.5h2q33 0 56.5 -23.5t23.5 -56.5l12 -704q0 -33 -23.5 -56.5t-58.5 -25.5q-33 0 -56 22.5 t-23 55.5z" />
<glyph unicode="&#xa7;" horiz-adv-x="862" d="M14 -303q-12 31 1.5 61.5t45.5 42.5q31 10 61 -2t42 -45q29 -74 93.5 -109.5t133.5 -31.5q20 0 45 6t56.5 30.5t42.5 63.5q23 82 -25.5 142.5t-175.5 148.5q-115 84 -154 123q-86 86 -100 182q-23 119 65 238q63 88 154 135l-31 29q-86 90 -98 180q-23 121 63 239 q80 111 195 154q94 37 180 16q100 -18 164 -108q18 -33 10 -66q-2 -33 -28.5 -53t-61.5 -16q-53 10 -65 59q-49 51 -142 17q-70 -25 -123 -95q-45 -63 -34 -123q4 -31 34.5 -67.5t63.5 -62t90 -66.5q106 -23 168 -113q12 -29 12 -33q2 -4 10.5 -13t10.5 -15 q104 -129 61 -289q-25 -100 -114 -162q-55 -37 -115 -49q63 -59 82 -84q100 -127 59 -289q-27 -100 -112 -164q-76 -51 -181 -57q-2 0 -9 -1t-11 -1q-98 0 -203 55q-115 74 -160 193zM238 365q12 -16 16 -25q27 -74 91.5 -110.5t133.5 -32.5q121 10 144 100q20 76 -20 133 t-144 133q-37 -4 -62 -14q-72 -29 -121 -96q-32 -41 -38 -88z" />
<glyph unicode="&#xa8;" horiz-adv-x="716" d="M79 832.5q-3 37.5 21 66.5q25 27 62 30t65 -22q16 -12 27 -22l2 -2q25 -27 25 -65t-27 -64q-25 -23 -64 -23q-41 0 -65 25l-2 2l-14 12q-27 25 -30 62.5zM435 832.5q-3 37.5 22 66.5q25 27 61.5 30t65.5 -22l28 -22v-2q25 -27 25 -65t-27 -64q-25 -23 -63 -23 q-41 0 -64 25l-2 2l-14 12q-29 25 -32 62.5z" />
<glyph unicode="&#x308;" horiz-adv-x="716" d="M79 832.5q-3 37.5 21 66.5q25 27 62 30t65 -22q16 -12 27 -22l2 -2q25 -27 25 -65t-27 -64q-25 -23 -64 -23q-41 0 -65 25l-2 2l-14 12q-27 25 -30 62.5zM435 832.5q-3 37.5 22 66.5q25 27 61.5 30t65.5 -22l28 -22v-2q25 -27 25 -65t-27 -64q-25 -23 -63 -23 q-41 0 -64 25l-2 2l-14 12q-29 25 -32 62.5z" />
<glyph unicode="&#xa9;" horiz-adv-x="749" d="M39 307q-16 96 16 189q27 90 103 155q66 49 149 56q74 10 176 -29q80 -10 135 -57q57 -47 82 -117q33 -98 6.5 -209t-104.5 -184q-70 -68 -156 -82q-31 -6 -61 -6q-70 0 -147 30h-2q-86 33 -134 105q-47 59 -63 149zM137 322q23 -121 137 -177q158 -63 258 37 q55 53 77 135t-3 152q-33 104 -149 111q-2 0 -6 2q-141 59 -230 -11q-49 -39 -71.5 -107t-12.5 -142zM168 387q0 55 47 109q49 45 102 59q115 35 187 -53q14 -16 11 -38t-19 -34q-39 -29 -70 8t-82 21q-70 -18 -78 -82q-6 -70 41 -98q70 -45 170 -3q16 10 37 3t29 -25 t1 -37.5t-24 -28.5q-66 -31 -135 -30q-80 0 -137 39q-96 65 -80 190z" />
<glyph unicode="&#xaa;" horiz-adv-x="552" d="M78 524l6 13l10 12q39 45 101 55q43 16 88 17q106 0 168 -74q53 -59 34 -146v-10q-27 -76 -84 -115q-51 -33 -118 -32q-127 0 -187 94q-59 84 -18 186z" />
<glyph unicode="&#xab;" horiz-adv-x="727" d="M72 379q-10 49 32 80q23 16 78 88q49 72 76 96q25 23 58.5 23t58.5 -23q23 -25 21.5 -59.5t-25.5 -57.5q-12 -10 -58 -69q-37 -55 -59 -78q23 -25 59 -80q45 -59 58 -70q25 -23 25.5 -56.5t-21.5 -57.5q-25 -25 -59.5 -25t-57.5 23q-27 25 -76 96q-55 72 -78 88 q-42 31 -32 82zM346 379q-10 49 31 80q29 20 78 88q59 78 77 96q25 23 59 23t56 -23q23 -25 22 -59.5t-26 -57.5q-10 -10 -29.5 -35.5t-25.5 -33.5q-53 -72 -60 -78q14 -16 36 -47t24 -33q6 -8 25.5 -33.5t29.5 -36.5q25 -23 26 -56.5t-21.5 -58t-57.5 -24.5q-37 0 -58 23 q-18 18 -77 96q-49 68 -78 88q-41 31 -31 82z" />
<glyph unicode="&#xac;" horiz-adv-x="831" d="M39 502q6 37 36.5 57.5t69.5 11.5q74 -14 238 13q207 33 324 0l59 -15l8 -59q10 -63 6 -186v-54q0 -39 -26.5 -64.5t-63.5 -25.5q-39 0 -65.5 26.5t-26.5 63.5q0 8 1 28.5t1 31.5v88q-66 4 -190 -15q-197 -29 -301 -8q-37 6 -57.5 37t-12.5 70z" />
<glyph unicode="&#xad;" horiz-adv-x="632" d="M51 356q2 39 30 62.5t66 19.5q63 -2 177 21q135 23 157 22q39 0 66.5 -24.5t27.5 -61.5q4 -37 -18 -64.5t-59 -31.5h-6q-33 0 -134 -18q-74 -16 -122 -21q-47 -6 -101 -2q-39 4 -63.5 31.5t-20.5 66.5z" />
<glyph unicode="&#xae;" horiz-adv-x="751" d="M41 840q-18 94 14 188q31 94 105 156q61 49 147 55q76 12 176 -29q80 -8 138 -57q57 -47 79 -117q35 -98 7.5 -208.5t-105.5 -184.5q-70 -68 -156 -82q-31 -6 -61 -6q-61 0 -147 31q-82 31 -136 104q-49 66 -61 150zM139 854q25 -131 137 -176q156 -61 259 37 q55 53 75.5 135t-4.5 151q-37 98 -139 109q-4 0 -16 4q-137 59 -230 -10q-47 -39 -69.5 -107.5t-12.5 -142.5zM248 768q-8 76 2 121q-25 96 4 176q2 10 14 18q72 53 156 21q74 -33 84 -105q6 -70 -57 -118q23 -37 59 -115q18 -37 -18 -55q-12 -4 -17 -4q-20 0 -39 24 q-25 59 -63 125q-8 -4 -49 -8q0 -37 6 -70v-26q4 -16 -7.5 -28.5t-27.5 -14.5h-2l-2 -2q-35 0 -39 36zM324 928l49 8l28 8q27 20 25 45q0 27 -33 41q-35 14 -69 -6q-8 -49 0 -96z" />
<glyph unicode="&#xaf;" horiz-adv-x="716" d="M31 864q6 37 35.5 60.5t66.5 17.5q94 -10 254 2q160 8 213 6q37 -2 62.5 -29.5t25.5 -64.5q-2 -37 -28.5 -62.5t-61.5 -25.5q-123 0 -199 -6q-160 -6 -163 -6q-63 0 -127 6q-37 6 -59.5 35.5t-18.5 66.5z" />
<glyph unicode="&#x304;" horiz-adv-x="716" d="M31 864q6 37 35.5 60.5t66.5 17.5q94 -10 254 2q160 8 213 6q37 -2 62.5 -29.5t25.5 -64.5q-2 -37 -28.5 -62.5t-61.5 -25.5q-123 0 -199 -6q-160 -6 -163 -6q-63 0 -127 6q-37 6 -59.5 35.5t-18.5 66.5z" />
<glyph unicode="&#x2c9;" horiz-adv-x="716" d="M31 864q6 37 35.5 60.5t66.5 17.5q94 -10 254 2q160 8 213 6q37 -2 62.5 -29.5t25.5 -64.5q-2 -37 -28.5 -62.5t-61.5 -25.5q-123 0 -199 -6q-160 -6 -163 -6q-63 0 -127 6q-37 6 -59.5 35.5t-18.5 66.5z" />
<glyph unicode="&#xb0;" horiz-adv-x="636" d="M39 817q-10 82 12 156q29 84 90 131q109 88 269 24q137 -16 182 -147q29 -82 5 -174t-87 -154q-53 -53 -131 -69q-18 -2 -51 -2q-53 0 -123 24q-70 27 -115 84q-39 59 -51 127zM141 834q12 -100 101 -134q121 -51 198 25q45 43 60.5 105.5t-0.5 117.5q-27 72 -109 82 q-8 0 -12 2q-111 45 -176 -8q-37 -29 -54.5 -82t-7.5 -108z" />
<glyph unicode="&#xb1;" horiz-adv-x="667" d="M45 20q-8 31 9.5 60t49.5 39q109 25 418 12q20 -2 56 -2q33 0 55 -23.5t22 -58.5q-2 -33 -24.5 -55.5t-57.5 -22.5h-2q-35 0 -55 2q-299 10 -375 -10q-4 -2 -16 -2q-66 0 -80 61zM63.5 579.5q-8.5 32.5 10 60.5t51.5 36t123 8q0 20 1 53t1 47q-2 33 22.5 57.5t57.5 26.5 h2q33 0 55.5 -23.5t24.5 -58.5q0 -31 -4 -108q16 0 45 -4q18 0 43 -4q33 -2 55 -27t20 -57.5t-25.5 -54t-53.5 -21.5q-8 0 -23.5 2t-26.5 2q-8 0 -24.5 1t-22.5 1q-6 -74 -4 -119q2 -35 -21.5 -59.5t-56.5 -26.5h-2q-33 0 -55.5 22.5t-24.5 55.5q-2 25 2 135q-49 0 -75 -6 q-33 -6 -59.5 11.5t-35 50z" />
<glyph unicode="&#xb2;" horiz-adv-x="464" d="M49 756q-10 45 21 67l84 68q96 61 106 143v6q-6 6 -28.5 6.5t-32.5 -2.5q2 -12 12 -34q8 -25 -3 -47.5t-36 -30.5q-23 -8 -45.5 4t-30.5 35q-33 92 -4 141q23 39 68 47q35 8 80 6q70 -4 100 -37q45 -37 41 -108q-10 -82 -70 -148l-37 -38q70 -2 109 -17q25 -10 37 -32.5 t4 -45.5q-16 -41 -57 -41q-8 0 -45 13q-74 6 -216 6q-39 0 -57 39z" />
<glyph unicode="&#xb3;" horiz-adv-x="452" d="M45 723q-2 25 12 43q14 20 41 22.5t43 -14.5q43 -33 86 -10q49 20 49 61q2 20 -24 43q-23 -8 -59 -8q-39 0 -58 10q-23 10 -33 32t0 44q8 25 33 35t47 0q18 -4 49 6q6 0 7 2q23 14 33 30.5t3 22.5q-8 14 -38.5 16.5t-71.5 -18.5q-23 -14 -46.5 -9t-35.5 26q-31 49 18 84 q72 45 154 39q82 -10 123 -68q35 -57 10 -121q-4 -25 -31 -57l17 -21q27 -47 26 -92q-2 -51 -39 -100q-37 -47 -84 -68q-43 -18 -83 -18q-68 0 -127 47q-19 16 -21 41z" />
<glyph unicode="&#xb4;" horiz-adv-x="716" d="M182 783.5q0 33.5 23 56.5q20 25 94 78q68 49 90 77q16 27 49 33t62 -14q29 -18 34 -50t-16 -61q-31 -49 -127 -119q-53 -37 -72 -57q-29 -25 -59 -25q-29 0 -55 23q-23 25 -23 58.5z" />
<glyph unicode="&#x301;" horiz-adv-x="716" d="M182 783.5q0 33.5 23 56.5q20 25 94 78q68 49 90 77q16 27 49 33t62 -14q29 -18 34 -50t-16 -61q-31 -49 -127 -119q-53 -37 -72 -57q-29 -25 -59 -25q-29 0 -55 23q-23 25 -23 58.5z" />
<glyph unicode="&#x2ca;" horiz-adv-x="716" d="M182 783.5q0 33.5 23 56.5q20 25 94 78q68 49 90 77q16 27 49 33t62 -14q29 -18 34 -50t-16 -61q-31 -49 -127 -119q-53 -37 -72 -57q-29 -25 -59 -25q-29 0 -55 23q-23 25 -23 58.5z" />
<glyph unicode="&#xb5;" horiz-adv-x="970" d="M102 -381l13 825q-25 154 6 306q18 74 88 63q31 -2 51.5 -25.5t20.5 -54.5l-7 -274q27 -121 86 -174q59 -55 146 -31q57 16 84 76q0 31 18 53q18 74 6 164q-14 104 -51 155q-18 27 -12 61t33 52q27 20 59.5 14t50.5 -32q63 -86 80 -230q18 -141 -18 -254q16 -57 43 -77 q10 -10 32 -9q33 6 61 -13t32 -52t-15.5 -59.5t-52.5 -32.5q-12 -2 -35 -2q-68 0 -119 38q-23 14 -47 48q-45 -37 -104 -56q-80 -23 -166 -6q-63 16 -113 55l-8 -528q-2 -35 -24.5 -58.5t-55.5 -23.5l-2 2q-33 0 -56.5 23.5t-23.5 56.5z" />
<glyph unicode="&#x3bc;" horiz-adv-x="970" d="M102 -381l13 825q-25 154 6 306q18 74 88 63q31 -2 51.5 -25.5t20.5 -54.5l-7 -274q27 -121 86 -174q59 -55 146 -31q57 16 84 76q0 31 18 53q18 74 6 164q-14 104 -51 155q-18 27 -12 61t33 52q27 20 59.5 14t50.5 -32q63 -86 80 -230q18 -141 -18 -254q16 -57 43 -77 q10 -10 32 -9q33 6 61 -13t32 -52t-15.5 -59.5t-52.5 -32.5q-12 -2 -35 -2q-68 0 -119 38q-23 14 -47 48q-45 -37 -104 -56q-80 -23 -166 -6q-63 16 -113 55l-8 -528q-2 -35 -24.5 -58.5t-55.5 -23.5l-2 2q-33 0 -56.5 23.5t-23.5 56.5z" />
<glyph unicode="&#xb6;" horiz-adv-x="552" d="M78 524l6 13l10 12q39 45 101 55q43 16 88 17q106 0 168 -74q53 -59 34 -146v-10q-27 -76 -84 -115q-51 -33 -118 -32q-127 0 -187 94q-59 84 -18 186z" />
<glyph unicode="&#xb7;" horiz-adv-x="358" d="M77 372q-3 38 21 68q25 27 63 30t66 -21l27 -27q27 -27 26 -63.5t-28 -63.5q-31 -27 -64 -27q-37 0 -65 29v2q-2 0 -14 12q-29 23 -32 61z" />
<glyph unicode="&#xb8;" horiz-adv-x="552" d="M78 524l6 13l10 12q39 45 101 55q43 16 88 17q106 0 168 -74q53 -59 34 -146v-10q-27 -76 -84 -115q-51 -33 -118 -32q-127 0 -187 94q-59 84 -18 186z" />
<glyph unicode="&#xb9;" horiz-adv-x="444" d="M18 1061q-10 23 0.5 45t34.5 33q2 0 23 8q76 39 129 22q37 -10 47 -47q16 -74 8 -221q-6 -66 -2 -139q33 -6 47 -2q25 6 46.5 -5.5t27.5 -35.5q8 -25 -4.5 -46.5t-36.5 -29.5q-25 -6 -49 -6q-2 0 -74 10q-37 -23 -76 -22q-23 0 -35 4q-55 23 -38 78q20 49 73 38 q-4 55 0 160q4 96 0 139q-10 -6 -12 -8l-31 -12q-55 -20 -78 37z" />
<glyph unicode="&#xba;" horiz-adv-x="552" d="M78 524l6 13l10 12q39 45 101 55q43 16 88 17q106 0 168 -74q53 -59 34 -146v-10q-27 -76 -84 -115q-51 -33 -118 -32q-127 0 -187 94q-59 84 -18 186z" />
<glyph unicode="&#xbb;" horiz-adv-x="733" d="M68 165q0 34 24 56q10 8 55 70q47 63 62 80q-16 18 -62 78q-45 61 -55 69q-25 23 -24.5 57.5t22.5 59.5q20 23 54 22.5t59 -22.5q33 -31 78 -96q57 -74 77 -88q41 -31 31 -80q10 -51 -31 -82q-20 -14 -77 -88q-45 -66 -78 -97q-20 -23 -57 -22.5t-56 24.5q-22 25 -22 59z M340 165q0 34 25 56q12 10 57 70q31 45 59 80q-27 31 -59 78q-45 59 -57 69q-25 23 -25 57.5t22 59.5q23 23 57 22.5t58 -22.5q29 -25 78 -96q49 -68 76 -88q43 -27 35 -80q8 -55 -35 -82q-27 -20 -76 -88q-49 -72 -78 -97q-23 -23 -57.5 -22.5t-57 25t-22.5 58.5z" />
<glyph unicode="&#xbc;" horiz-adv-x="1110" d="M33 924q-8 23 3 45t34 32l8 3q8 4 14 6q80 35 129 24q43 -14 45 -47q14 -66 10 -223q-4 -96 0 -139q27 -6 46 0q25 6 46 -6.5t27 -36.5q8 -23 -4 -45.5t-37 -28.5q-23 -8 -49 -8q-20 0 -72 10q-45 -25 -77 -25q-18 0 -35 9q-23 8 -35 30.5t-4 46.5q8 23 29.5 33t44.5 4 q-4 55 0 162q2 72 0 135q-4 0 -15 -6l-30 -12q-23 -8 -45.5 3t-32.5 34zM133 -74q-20 37 12 76q96 143 206 333.5t162 291t179 348.5l8 16q18 35 53 46.5t70 -5.5q33 -18 44.5 -53t-5.5 -70l-10 -18q-344 -666 -543 -967q-10 -55 -61 -67q-8 -4 -27 -4q-66 0 -86 63v6z M690 201q6 25 6 49t18.5 41.5t43 17.5t42 -17.5t17.5 -42t-8 -69.5q-8 -72 -4 -94h26q4 39 35 211q6 27 26.5 40t45.5 9t38 -25.5t9 -46.5l-33 -180l49 6q27 4 46.5 -10t23.5 -39q2 -27 -12.5 -46t-36.5 -23l-10 -2q-10 -2 -30.5 -5.5t-39.5 -5.5q0 -61 6 -86q4 -25 -10 -45 t-39 -24q0 -2 -10 -2q-49 0 -60 49q-8 43 -8 104h-20q-78 8 -99 49q-32 62 -12 187z" />
<glyph unicode="&#xbd;" horiz-adv-x="1058" d="M35 924q-10 23 0 45t33 30l24 13q80 33 131 20q35 -6 45 -45q16 -82 8 -223q-4 -94 -2 -139q37 -4 50 0q23 6 45 -7.5t28 -35.5q6 -25 -6 -46.5t-37 -29.5q-16 -4 -49 -4q-31 0 -72 8h-2q-49 -25 -73 -25q-20 0 -35 9q-25 8 -36 30.5t-3 45t28.5 33.5t43.5 7q-4 55 0 160 q4 109 2 135l-15 -4q-16 -8 -30 -12q-25 -10 -46.5 0t-31.5 35zM133 -72q-20 35 12 72q197 289 547 975l10 16q16 35 51 46.5t70 -5.5q33 -16 44.5 -53t-5.5 -70l-8 -18q-338 -657 -543 -967q-14 -53 -63 -67q-12 -6 -25 -7q-29 0 -54.5 19.5t-33.5 46.5q-2 4 -2 12z M645 -86q-14 45 19 68q12 12 86 65q98 76 104 143v7q-6 4 -27 8q-23 0 -30 -2q0 -14 8 -37t-3 -45.5t-34 -30.5q-25 -8 -46.5 3t-31.5 36q-31 96 -2 139q18 41 68 49q31 8 78 7q66 -4 102 -37q47 -41 39 -109q-10 -80 -70 -149q-6 -8 -18.5 -22.5t-14.5 -16.5q66 0 78 -6 l31 -9q23 -8 34 -31.5t3 -45.5q-12 -41 -57 -41q-12 0 -21 4l-22 6q-37 6 -216 6q-43 0 -57 41z" />
<glyph unicode="&#xbe;" horiz-adv-x="1064" d="M41 600q16 20 42 21.5t44 -15.5q43 -31 84 -10q51 25 51 63q2 20 -24 41q-23 -8 -60 -8q-35 0 -57 10q-23 8 -34 32t-1 46.5t33.5 32.5t46.5 2q12 -4 51 4q4 0 6 2q49 35 37 56q-8 16 -39 17t-74 -22q-20 -14 -43.5 -8t-35.5 27q-14 20 -8 46t26 36q74 47 154 41 q82 -12 120 -70q37 -57 13 -121q-8 -29 -33 -55q12 -12 18 -23q25 -41 25 -92q-2 -53 -37 -100q-35 -43 -84 -66q-47 -20 -84 -20q-70 0 -127 47q-43 37 -10 86zM135 -74q-18 35 12 72q98 143 208 334.5t162 293t177 347.5l11 16q16 35 53 46.5t69 -5.5q33 -18 44.5 -54 t-5.5 -69l-10 -18q-350 -680 -541 -969q-12 -49 -63 -65q-20 -4 -27 -5q-29 0 -53.5 18.5t-32.5 47.5q-4 4 -4 10zM643 227q8 37 8 47q0 25 17.5 43.5t42 18.5t42 -18.5t17.5 -43.5q0 -33 -6 -67q-12 -68 -6 -96h26q12 100 39 213q4 27 24.5 40t43.5 7q27 -2 40 -23.5 t9 -46.5q-16 -82 -33 -178l47 4q27 4 47.5 -10.5t24.5 -39t-11.5 -45t-39.5 -24.5l-10 -2q-10 -2 -30 -4t-38 -4q-2 -49 6 -88q4 -27 -10 -46.5t-37 -23.5q-4 -2 -12 -2q-47 0 -62 47q-8 66 -6 107h-22q-78 8 -97 49q-28 59 -14 186z" />
<glyph unicode="&#xbf;" horiz-adv-x="858" d="M41 -100q-25 170 123 290q47 37 131 70q66 20 111 53q12 86 -7 176q-8 33 10.5 61t51.5 36q35 6 61.5 -12.5t32.5 -51.5q29 -137 6 -258q-4 -16 -8 -24l-2 -2q0 -2 -10 -17q-2 -8 -19 -24q-84 -61 -174 -91q-61 -23 -84 -40q-76 -59 -65 -142q10 -53 54 -101t107 -71 q51 -18 93 -18q82 0 155 63q57 45 68.5 91t-17.5 110q-14 29 -3.5 60.5t38.5 45.5q31 14 62.5 3t46.5 -39q57 -123 28 -230q-29 -88 -118 -166q-92 -78 -205 -92q-29 -6 -55 -6q-74 0 -148 29q-106 39 -174 116q-74 81 -90 181zM319 791.5q0 33.5 25 56.5q23 23 56.5 22.5 t56.5 -24.5l2 -2q12 -12 16 -15q25 -23 28 -56.5t-18 -59.5q-25 -27 -63 -27q-31 0 -51 21q-25 20 -29 26q-23 25 -23 58.5z" />
<glyph unicode="&#xc0;" horiz-adv-x="931" d="M17.5 53.5q-11.5 30.5 2.5 61.5q16 35 160 383q-12 29 4 59q10 20 33 39q27 98 53 162q53 147 136 229q25 29 61 29q41 0 68 -43q45 -82 100 -219q47 -117 98 -222q10 -25 29.5 -80t28 -78.5t27 -68.5t33.5 -74.5t36.5 -71.5t48.5 -83q16 -29 7 -60.5t-38 -50.5 q-25 -12 -41 -12q-45 0 -67 43q-104 170 -193 418q-86 -8 -137 -8q-74 0 -145 12q-92 -233 -156 -369q-23 -49 -72 -49q-14 0 -35 8q-30 15 -41.5 45.5zM321.5 1398q6.5 32 32.5 52q27 18 59.5 12t53.5 -32q18 -33 88 -78q74 -55 96.5 -78t21.5 -56.5t-26 -56.5 q-20 -23 -55 -22.5t-57 22.5q-16 16 -72 60q-98 70 -129 116q-19 29 -12.5 61zM377 571q76 -8 162 -2q-20 41 -54 123q-8 16 -32 82q-31 -56 -76 -203z" />
<glyph unicode="&#xc1;" horiz-adv-x="931" d="M17.5 53.5q-11.5 30.5 2.5 61.5q16 35 160 383q-12 29 4 59q10 20 33 39q27 98 53 162q53 147 136 229q25 29 61 29q41 0 68 -43q45 -82 100 -219q47 -117 98 -222q10 -25 29.5 -80t28 -78.5t27 -68.5t33.5 -74.5t36.5 -71.5t48.5 -83q16 -29 7 -60.5t-38 -50.5 q-25 -12 -41 -12q-45 0 -67 43q-104 170 -193 418q-86 -8 -137 -8q-74 0 -145 12q-92 -233 -156 -369q-23 -49 -72 -49q-14 0 -35 8q-30 15 -41.5 45.5zM258 1217.5q0 33.5 23 56.5q20 25 94 78q68 49 90 78q16 27 49 32.5t61 -14.5q29 -18 34 -50t-15 -61 q-31 -49 -127 -118q-53 -37 -72 -58q-29 -25 -59 -24q-29 0 -55 22q-23 25 -23 58.5zM377 571q76 -8 162 -2q-20 41 -54 123q-8 16 -32 82q-31 -56 -76 -203z" />
<glyph unicode="&#xc2;" horiz-adv-x="931" d="M17.5 53.5q-11.5 30.5 2.5 61.5q16 35 160 383q-12 29 4 59q10 20 33 39q27 98 53 162q53 147 136 229q25 29 61 29q41 0 68 -43q45 -82 100 -219q47 -117 98 -222q10 -25 29.5 -80t28 -78.5t27 -68.5t33.5 -74.5t36.5 -71.5t48.5 -83q16 -29 7 -60.5t-38 -50.5 q-25 -12 -41 -12q-45 0 -67 43q-104 170 -193 418q-86 -8 -137 -8q-74 0 -145 12q-92 -233 -156 -369q-23 -49 -72 -49q-14 0 -35 8q-30 15 -41.5 45.5zM164 1217.5q0 33.5 22 56.5q35 37 95 78q70 45 90 78q27 43 80 32q51 10 81 -32q25 -33 89 -78q66 -45 96 -78 q23 -23 22.5 -56.5t-24.5 -58.5q-23 -20 -56 -20q-31 0 -57 22q-29 29 -74 58q-8 6 -34.5 26.5t-42.5 32.5q-39 -33 -78 -59q-47 -33 -72 -58q-27 -23 -57 -22q-35 0 -56 20q-24 25 -24 58.5zM377 571q76 -8 162 -2q-20 41 -54 123q-8 16 -32 82q-31 -56 -76 -203z" />
<glyph unicode="&#xc3;" horiz-adv-x="931" d="M17.5 53.5q-11.5 30.5 2.5 61.5q16 35 160 383q-12 29 4 59q10 20 33 39q27 98 53 162q53 147 136 229q25 29 61 29q41 0 68 -43q45 -82 100 -219q47 -117 98 -222q10 -25 29.5 -80t28 -78.5t27 -68.5t33.5 -74.5t36.5 -71.5t48.5 -83q16 -29 7 -60.5t-38 -50.5 q-25 -12 -41 -12q-45 0 -67 43q-104 170 -193 418q-86 -8 -137 -8q-74 0 -145 12q-92 -233 -156 -369q-23 -49 -72 -49q-14 0 -35 8q-30 15 -41.5 45.5zM217 1243q-6 27 6.5 50.5t36.5 33.5l10 6q74 47 117 47q45 0 105 -22q80 -27 102 -6.5t51 19.5t49 -23q18 -20 16.5 -49 t-22.5 -50q-53 -53 -135 -49q-39 0 -107 23q-33 16 -57 16q-2 0 -39 -22q-37 -20 -49 -25q-4 -2 -14 -2q-60 0 -70 53zM377 571q76 -8 162 -2q-20 41 -54 123q-8 16 -32 82q-31 -56 -76 -203z" />
<glyph unicode="&#xc4;" horiz-adv-x="931" d="M17.5 53.5q-11.5 30.5 2.5 61.5q16 35 160 383q-12 29 4 59q10 20 33 39q27 98 53 162q53 147 136 229q25 29 61 29q41 0 68 -43q45 -82 100 -219q47 -117 98 -222q10 -25 29.5 -80t28 -78.5t27 -68.5t33.5 -74.5t36.5 -71.5t48.5 -83q16 -29 7 -60.5t-38 -50.5 q-25 -12 -41 -12q-45 0 -67 43q-104 170 -193 418q-86 -8 -137 -8q-74 0 -145 12q-92 -233 -156 -369q-23 -49 -72 -49q-14 0 -35 8q-30 15 -41.5 45.5zM157 1244q-3 38 21 67q25 27 61.5 29.5t65.5 -21.5q16 -12 27 -23l2 -2q25 -27 24.5 -64.5t-26.5 -64.5 q-25 -23 -64 -22q-41 0 -65 24l-2 2l-15 13q-26 24 -29 62zM377 571q76 -8 162 -2q-20 41 -54 123q-8 16 -32 82q-31 -56 -76 -203zM513 1244q-3 38 22 67q25 27 61.5 29.5t65.5 -21.5l28 -23v-2q25 -27 25 -64.5t-27 -64.5q-25 -23 -63 -22q-41 0 -64 24l-2 2l-14 13 q-29 24 -32 62z" />
<glyph unicode="&#xc5;" horiz-adv-x="931" d="M17.5 53.5q-11.5 30.5 2.5 61.5q16 35 160 383q-12 29 4 59q10 20 33 39q27 98 53 162q37 98 86 172q-45 23 -63 57q-27 35 -41 96q-8 63 12.5 124t65.5 96q84 68 209 20q106 -14 139 -115q20 -57 4 -133q-16 -70 -68 -119q-27 -27 -53 -36q23 -47 74 -166 q47 -117 98 -222q10 -25 29.5 -80t28 -78.5t27 -68.5t33.5 -74.5t36.5 -71.5t48.5 -83q16 -29 7 -60.5t-38 -50.5q-25 -12 -41 -12q-45 0 -67 43q-104 170 -193 418q-86 -8 -137 -8q-74 0 -145 12q-92 -233 -156 -369q-23 -49 -72 -49q-14 0 -35 8q-30 15 -41.5 45.5z M352 1098q6 -57 66 -86q80 -31 129 18q29 27 39 69t-2 77q-18 45 -64 47q-6 0 -14 4q-70 31 -115 -4q-53 -39 -39 -125zM377 571q76 -8 162 -2q-20 41 -54 123q-8 16 -32 82q-31 -56 -76 -203z" />
<glyph unicode="&#x212b;" horiz-adv-x="931" d="M17.5 53.5q-11.5 30.5 2.5 61.5q16 35 160 383q-12 29 4 59q10 20 33 39q27 98 53 162q37 98 86 172q-45 23 -63 57q-27 35 -41 96q-8 63 12.5 124t65.5 96q84 68 209 20q106 -14 139 -115q20 -57 4 -133q-16 -70 -68 -119q-27 -27 -53 -36q23 -47 74 -166 q47 -117 98 -222q10 -25 29.5 -80t28 -78.5t27 -68.5t33.5 -74.5t36.5 -71.5t48.5 -83q16 -29 7 -60.5t-38 -50.5q-25 -12 -41 -12q-45 0 -67 43q-104 170 -193 418q-86 -8 -137 -8q-74 0 -145 12q-92 -233 -156 -369q-23 -49 -72 -49q-14 0 -35 8q-30 15 -41.5 45.5z M352 1098q6 -57 66 -86q80 -31 129 18q29 27 39 69t-2 77q-18 45 -64 47q-6 0 -14 4q-70 31 -115 -4q-53 -39 -39 -125zM377 571q76 -8 162 -2q-20 41 -54 123q-8 16 -32 82q-31 -56 -76 -203z" />
<glyph unicode="&#xc6;" horiz-adv-x="1177" d="M31.5 36q-11.5 32 1.5 62q57 125 162 383q-10 29 4 60q10 27 34 37q12 55 50 165q55 145 137 230q23 25 56.5 26.5t58.5 -20.5v-4q29 12 32 12q61 6 178 6q164 0 236 27q33 10 63.5 -4.5t38.5 -44.5q12 -31 -2 -60.5t-45 -40.5q-100 -37 -291 -36q-66 0 -98 -3 q-16 -129 2 -235q23 0 64 -2t63 -2q174 -12 266 0q33 6 60.5 -12.5t34.5 -53.5q4 -33 -15.5 -59.5t-52.5 -32.5q-82 -10 -147 -10q-49 0 -156 8h-29q-18 -25 -53 -29h-4q-25 -4 -31 -4q0 -37 8 -118q10 -82 9 -148q43 -23 190 -8q154 12 221 -6q33 -8 50.5 -36t9.5 -60 q-6 -27 -29 -44.5t-49 -17.5q-12 0 -19 2q-47 12 -170 0q-51 -6 -114 -6q-35 0 -51 2q-111 12 -177 76q-27 31 -26 65q4 39 -4 164q-6 41 -11 125h-6q-88 0 -145 12q-92 -233 -156 -368q-18 -47 -71 -47q-14 0 -35 4q-31 14 -42.5 46zM393 557q43 -8 99 -8q-18 115 -11 235 q-49 -84 -88 -227z" />
<glyph unicode="&#xc7;" horiz-adv-x="892" d="M74 498q20 129 63 233q45 113 119 199q74 96 168 139q109 53 229 29q121 -31 226 -152q23 -25 21.5 -57.5t-28.5 -54.5q-25 -23 -58.5 -21t-55.5 27q-129 152 -266 86q-129 -63 -208 -262t-46 -377q18 -111 95 -194t232 -97q68 -4 187 27q33 8 61.5 -8.5t36.5 -49.5 t-9.5 -61.5t-49.5 -38.5q-2 0 -7.5 -1t-9.5 -1q6 -53 -39 -107l19 -20q25 -37 20 -78q-4 -49 -33 -90q-29 -39 -73 -57q-37 -16 -72 -17q-61 0 -111 39q-16 14 -19 35.5t11 38.5q12 16 33.5 17t38.5 -13q31 -25 80 -8q45 23 45 57q2 16 -25 43q-31 -10 -53 -10q-20 0 -51 10 q-18 8 -26.5 27.5t-0.5 38.5q18 47 66 28q6 -4 47 2q4 0 6 2q27 23 35 41q-70 -8 -97 -8h-24q-201 18 -330 141q-61 63 -94 131q-35 74 -47 152q-22 115 -6 240z" />
<glyph unicode="&#xc8;" horiz-adv-x="755" d="M74 254q-14 180 4 252q-47 188 0 407q4 25 22.5 42.5t42.5 21.5q63 6 179 6q164 0 237 29q31 10 61.5 -5.5t38.5 -45.5q12 -31 -1 -61t-46 -40q-98 -37 -290 -37q-66 0 -99 -2q-16 -127 2 -235q45 0 127 -4q176 -12 269 2q33 4 59.5 -14.5t34.5 -51.5q2 -33 -17.5 -60.5 t-52.5 -33.5q-82 -10 -145 -10q-53 0 -156 8q-20 0 -59 2t-58 2q-4 -47 9 -154q8 -98 6 -149q43 -23 192 -8q152 12 221 -4q33 -8 50.5 -37t9.5 -60q-18 -63 -78 -63q-12 0 -21 2q-47 12 -167 0q-55 -6 -117 -6q-33 0 -51 2q-106 12 -177 76q-25 29 -24 65q4 62 -6 164z M205 1402q6 32 33 52q27 18 59.5 12t52.5 -32q18 -33 88 -78q74 -55 96.5 -78t21.5 -56.5t-26 -56.5q-20 -23 -55 -22.5t-57 22.5q-16 16 -72 60q-98 70 -129 116q-18 29 -12 61z" />
<glyph unicode="&#xc9;" horiz-adv-x="755" d="M74 254q-14 180 4 252q-47 188 0 407q4 25 22.5 42.5t42.5 21.5q63 6 179 6q164 0 237 29q31 10 61.5 -5.5t38.5 -45.5q12 -31 -1 -61t-46 -40q-98 -37 -290 -37q-66 0 -99 -2q-16 -127 2 -235q45 0 127 -4q176 -12 269 2q33 4 59.5 -14.5t34.5 -51.5q2 -33 -17.5 -60.5 t-52.5 -33.5q-82 -10 -145 -10q-53 0 -156 8q-20 0 -59 2t-58 2q-4 -47 9 -154q8 -98 6 -149q43 -23 192 -8q152 12 221 -4q33 -8 50.5 -37t9.5 -60q-18 -63 -78 -63q-12 0 -21 2q-47 12 -167 0q-55 -6 -117 -6q-33 0 -51 2q-106 12 -177 76q-25 29 -24 65q4 62 -6 164z M209 1219.5q0 33.5 22 56.5q20 25 95 78q68 49 90 78q16 27 49 32.5t61 -14.5q29 -18 34 -50t-15 -61q-31 -49 -127 -118q-53 -37 -72 -58q-29 -25 -59 -24q-29 0 -56 22q-22 25 -22 58.5z" />
<glyph unicode="&#xca;" horiz-adv-x="755" d="M74 254q-14 180 4 252q-47 188 0 407q4 25 22.5 42.5t42.5 21.5q63 6 179 6q164 0 237 29q31 10 61.5 -5.5t38.5 -45.5q12 -31 -1 -61t-46 -40q-98 -37 -290 -37q-66 0 -99 -2q-16 -127 2 -235q45 0 127 -4q176 -12 269 2q33 4 59.5 -14.5t34.5 -51.5q2 -33 -17.5 -60.5 t-52.5 -33.5q-82 -10 -145 -10q-53 0 -156 8q-20 0 -59 2t-58 2q-4 -47 9 -154q8 -98 6 -149q43 -23 192 -8q152 12 221 -4q33 -8 50.5 -37t9.5 -60q-18 -63 -78 -63q-12 0 -21 2q-47 12 -167 0q-55 -6 -117 -6q-33 0 -51 2q-106 12 -177 76q-25 29 -24 65q4 62 -6 164z M113 1228q0 34 22 56q35 37 94 78q70 45 90 78q27 43 80 33q51 10 82 -33q25 -33 88 -78q66 -45 97 -78q23 -23 22.5 -56.5t-24.5 -58.5q-23 -20 -56 -20q-31 0 -57 22q-29 29 -74 58q-8 6 -34.5 26.5t-43.5 32.5q-39 -33 -77 -59q-47 -33 -72 -58q-27 -23 -57 -22 q-35 0 -56 20q-24 25 -24 59z" />
<glyph unicode="&#xcb;" horiz-adv-x="755" d="M74 254q-14 180 4 252q-47 188 0 407q4 25 22.5 42.5t42.5 21.5q63 6 179 6q164 0 237 29q31 10 61.5 -5.5t38.5 -45.5q12 -31 -1 -61t-46 -40q-98 -37 -290 -37q-66 0 -99 -2q-16 -127 2 -235q45 0 127 -4q176 -12 269 2q33 4 59.5 -14.5t34.5 -51.5q2 -33 -17.5 -60.5 t-52.5 -33.5q-82 -10 -145 -10q-53 0 -156 8q-20 0 -59 2t-58 2q-4 -47 9 -154q8 -98 6 -149q43 -23 192 -8q152 12 221 -4q33 -8 50.5 -37t9.5 -60q-18 -63 -78 -63q-12 0 -21 2q-47 12 -167 0q-55 -6 -117 -6q-33 0 -51 2q-106 12 -177 76q-25 29 -24 65q4 62 -6 164z M83 1260.5q-3 37.5 21 66.5q25 27 62 30t65 -22q16 -12 27 -22l2 -2q25 -27 25 -65t-27 -64q-25 -23 -63 -23q-41 0 -66 25l-2 2l-14 12q-27 25 -30 62.5zM439 1260.5q-3 37.5 22 66.5q25 27 61.5 30t65.5 -22l28 -22v-2q25 -27 25 -65t-27 -64q-25 -23 -63 -23 q-41 0 -64 25l-2 2l-14 12q-29 25 -32 62.5z" />
<glyph unicode="&#xcc;" d="M-31 1363q6 32 33 52q27 18 59.5 12t53.5 -32q18 -33 88 -78q74 -55 96.5 -77.5t21 -56.5t-25.5 -57q-20 -23 -55 -22.5t-58 22.5q-16 16 -71 60q-98 70 -129 117q-19 28 -13 60zM57 870q-4 33 16.5 59.5t53.5 31t59.5 -15t30.5 -52.5q25 -176 25 -485q4 -254 16 -379 q2 -33 -19.5 -58.5t-54.5 -29.5h-8q-31 0 -53.5 21.5t-24.5 51.5q-12 131 -16 392q-5 312 -25 464z" />
<glyph unicode="&#xcd;" d="M-39 1185q0 34 23 56q20 25 94 78q68 49 90 78q16 27 49 33t62 -15q29 -18 33.5 -50t-15.5 -60q-31 -49 -127 -119q-53 -37 -72 -58q-29 -25 -59 -24q-29 0 -55 22q-23 25 -23 59zM57 870q-4 33 16.5 59.5t53.5 31t59.5 -15t30.5 -52.5q25 -176 25 -485q4 -254 16 -379 q2 -33 -19.5 -58.5t-54.5 -29.5h-8q-31 0 -53.5 21.5t-24.5 51.5q-12 131 -16 392q-5 312 -25 464z" />
<glyph unicode="&#xce;" d="M-139 1187q0 34 22 56q35 37 94 78q70 45 91 78q27 43 79 33q51 10 82 -33q25 -33 88 -78q66 -45 97 -78q23 -23 22.5 -56.5t-24.5 -58.5q-23 -20 -56 -20q-31 0 -57 22q-29 29 -74 58q-8 6 -34.5 26.5t-43.5 32.5q-39 -33 -77 -59q-47 -33 -72 -58q-27 -23 -57 -22 q-35 0 -56 20q-24 25 -24 59zM57 870q-4 33 16.5 59.5t53.5 31t59.5 -15t30.5 -52.5q25 -176 25 -485q4 -254 16 -379q2 -33 -19.5 -58.5t-54.5 -29.5h-8q-31 0 -53.5 21.5t-24.5 51.5q-12 131 -16 392q-5 312 -25 464z" />
<glyph unicode="&#xcf;" d="M-157 1213.5q-3 37.5 22 66.5q25 27 61.5 30t65.5 -22q16 -12 26 -22l2 -2q25 -27 25 -65t-27 -64q-25 -23 -63 -23q-41 0 -66 25l-2 2l-14 12q-27 25 -30 62.5zM57 870q-4 33 16.5 59.5t53.5 31t59.5 -15t30.5 -52.5q25 -176 25 -485q4 -254 16 -379q2 -33 -19.5 -58.5 t-54.5 -29.5h-8q-31 0 -53.5 21.5t-24.5 51.5q-12 131 -16 392q-5 312 -25 464zM200 1213.5q-3 37.5 21 66.5q25 27 61.5 30t65.5 -22l29 -22v-2q25 -27 24.5 -65t-26.5 -64q-25 -23 -64 -23q-41 0 -63 25l-2 2l-15 12q-28 25 -31 62.5z" />
<glyph unicode="&#xd0;" horiz-adv-x="956" d="M2 528q8 37 39 58.5t68 13.5q37 -4 57 -4q-8 225 33 373q10 41 49 55q72 25 141 25q193 0 344 -158q86 -88 133 -195q49 -115 49 -225q-4 -117 -65 -223q-53 -92 -152 -164q-180 -131 -417 -141q-47 0 -70 37q-41 66 -37 202q8 59 0 88q-2 4 -2 17v129q-63 0 -96 8 q-37 6 -58.5 36.5t-15.5 67.5zM326 606q80 4 118.5 2t63 -29.5t22.5 -66.5q-2 -35 -28.5 -60.5t-61.5 -25.5h-6h-100v-135q10 -47 2 -117q-2 -25 -2 -65q154 23 270 104q147 115 150 262q0 162 -133 305q-115 109 -232 109q-25 0 -45 -6q-18 -87 -18 -277z" />
<glyph unicode="&#xd1;" horiz-adv-x="886" d="M39 -12q29 106 33 315q8 303 78 457q12 27 41.5 39t74.5 -4q92 -59 154 -158q43 -61 94 -178q66 -147 119 -205q63 238 26 668q-2 33 18.5 59.5t53.5 30.5q33 2 58.5 -19.5t29.5 -54.5q53 -541 -74 -850q-12 -29 -39.5 -42t-72.5 3q-96 51 -166 158q-31 45 -100 184 q-66 143 -109 195q-18 -78 -27 -285q-4 -231 -38 -358q-18 -59 -76 -60q-16 0 -23 4q-33 10 -49 39t-6 62zM180 1114q-6 27 6.5 50.5t36.5 33.5l10 6q74 47 117 47q45 0 105 -22q80 -27 102.5 -6.5t51 19.5t48.5 -23q18 -20 16.5 -49t-22.5 -50q-53 -53 -135 -49 q-39 0 -106 23q-33 16 -58 16q-2 0 -39 -23q-37 -20 -49 -24q-4 -2 -14 -2q-60 0 -70 53z" />
<glyph unicode="&#xd2;" horiz-adv-x="890" d="M45 528q10 115 37 209q35 121 86 189q102 143 270 143q8 0 28.5 -1t31.5 -1q96 -18 178 -86q72 -66 110 -160q76 -160 60 -397q-18 -219 -111 -367q-53 -84 -119 -129q-76 -55 -170 -55q-53 0 -114 18q-45 16 -85 50t-59.5 60t-62.5 83l-29 41q-10 14 -12 22 q-55 164 -39 381zM205 516q-10 -190 28 -305q6 -12 23 -33q49 -68 75.5 -95.5t55.5 -37.5q31 -12 59 -12q94 0 161 123t79 282q12 172 -42 311.5t-171 157.5q-6 0 -17.5 1t-17.5 1q-84 0 -139 -78q-78 -110 -94 -315zM250 1344.5q6 31.5 33 52.5q27 18 59.5 12t52.5 -33 q18 -33 88 -78q74 -55 96.5 -77.5t21.5 -56.5t-26 -56q-20 -23 -55 -23t-57 23q-16 16 -72 59q-98 70 -129 117q-18 29 -12 60.5z" />
<glyph unicode="&#xd3;" horiz-adv-x="890" d="M45 528q10 115 37 209q35 121 86 189q102 143 270 143q8 0 28.5 -1t31.5 -1q96 -18 178 -86q72 -66 110 -160q76 -160 60 -397q-18 -219 -111 -367q-53 -84 -119 -129q-76 -55 -170 -55q-53 0 -114 18q-45 16 -85 50t-59.5 60t-62.5 83l-29 41q-10 14 -12 22 q-55 164 -39 381zM205 516q-10 -190 28 -305q6 -12 23 -33q49 -68 75.5 -95.5t55.5 -37.5q31 -12 59 -12q94 0 161 123t79 282q12 172 -42 311.5t-171 157.5q-6 0 -17.5 1t-17.5 1q-84 0 -139 -78q-78 -110 -94 -315zM252 1168.5q0 33.5 22 56.5q20 25 95 78q68 49 90 77 q16 27 49 33t61 -14q29 -18 34 -50t-15 -61q-31 -49 -127 -119q-53 -37 -72 -57q-29 -25 -59 -25q-29 0 -56 23q-22 25 -22 58.5z" />
<glyph unicode="&#xd4;" horiz-adv-x="890" d="M45 528q10 115 37 209q35 121 86 189q102 143 270 143q8 0 28.5 -1t31.5 -1q96 -18 178 -86q72 -66 110 -160q76 -160 60 -397q-18 -219 -111 -367q-53 -84 -119 -129q-76 -55 -170 -55q-53 0 -114 18q-45 16 -85 50t-59.5 60t-62.5 83l-29 41q-10 14 -12 22 q-55 164 -39 381zM135 1168.5q0 33.5 23 56.5q35 37 94 78q70 45 90 77q27 43 80 33q51 10 82 -33q25 -33 88 -77q66 -45 96 -78q23 -23 23 -56.5t-25 -58.5q-23 -20 -55 -20q-31 0 -58 22q-29 29 -73 57q-8 6 -35 27t-43 33q-39 -33 -78 -60q-47 -33 -72 -57 q-27 -23 -57 -22q-35 0 -55 20q-25 25 -25 58.5zM205 516q-10 -190 28 -305q6 -12 23 -33q49 -68 75.5 -95.5t55.5 -37.5q31 -12 59 -12q94 0 161 123t79 282q12 172 -42 311.5t-171 157.5q-6 0 -17.5 1t-17.5 1q-84 0 -139 -78q-78 -110 -94 -315z" />
<glyph unicode="&#xd5;" horiz-adv-x="890" d="M45 528q10 115 37 209q35 121 86 189q102 143 270 143q8 0 28.5 -1t31.5 -1q96 -18 178 -86q72 -66 110 -160q76 -160 60 -397q-18 -219 -111 -367q-53 -84 -119 -129q-76 -55 -170 -55q-53 0 -114 18q-45 16 -85 50t-59.5 60t-62.5 83l-29 41q-10 14 -12 22 q-55 164 -39 381zM205 516q-10 -190 28 -305q6 -12 23 -33q49 -68 75.5 -95.5t55.5 -37.5q31 -12 59 -12q94 0 161 123t79 282q12 172 -42 311.5t-171 157.5q-6 0 -17.5 1t-17.5 1q-84 0 -139 -78q-78 -110 -94 -315zM205 1194q-6 27 6 50.5t37 33.5l10 6q74 47 117 47 q45 0 104 -22q80 -27 102.5 -6.5t51.5 19.5t49 -24q18 -20 16 -48.5t-22 -49.5q-53 -53 -135 -49q-39 0 -107 23q-33 16 -57 16q-2 0 -39 -23q-37 -20 -49 -24q-4 -2 -15 -2q-59 0 -69 53z" />
<glyph unicode="&#xd6;" horiz-adv-x="890" d="M45 528q10 115 37 209q35 121 86 189q102 143 270 143q8 0 28.5 -1t31.5 -1q96 -18 178 -86q72 -66 110 -160q76 -160 60 -397q-18 -219 -111 -367q-53 -84 -119 -129q-76 -55 -170 -55q-53 0 -114 18q-45 16 -85 50t-59.5 60t-62.5 83l-29 41q-10 14 -12 22 q-55 164 -39 381zM159 1195q-3 38 21 67q25 27 62 29.5t65 -21.5q16 -12 27 -23l2 -2q25 -27 24.5 -64.5t-26.5 -64.5q-25 -23 -64 -22q-41 0 -65 24l-2 2l-15 13q-26 24 -29 62zM205 516q-10 -190 28 -305q6 -12 23 -33q49 -68 75.5 -95.5t55.5 -37.5q31 -12 59 -12 q94 0 161 123t79 282q12 172 -42 311.5t-171 157.5q-6 0 -17.5 1t-17.5 1q-84 0 -139 -78q-78 -110 -94 -315zM515 1195q-3 38 22 67q25 27 61.5 29.5t65.5 -21.5l28 -23v-2q25 -27 25 -64.5t-27 -64.5q-25 -23 -63 -22q-41 0 -64 24l-2 2l-14 13q-29 24 -32 62z" />
<glyph unicode="&#xd7;" horiz-adv-x="1161" d="M55 477.5q4 20.5 21.5 31.5t40.5 7q59 -12 192 -4q119 14 223 -2q-86 47 -167 184q-61 92 -93 121q-16 14 -16 34.5t14 37.5q33 39 70 2q47 -43 109 -141q74 -111 116 -140q102 150 162 344q6 20 24.5 30.5t36.5 2.5q20 -4 30.5 -21.5t4.5 -39.5q-68 -219 -192 -396 q2 -6 2 -16q0 -2 1 -9t1 -11q61 -14 196 -7q143 8 230 -10q20 -4 30.5 -22.5t6.5 -38.5q-10 -39 -49 -39q-8 0 -15 2q-68 18 -196 6q-174 -4 -244 14q106 -80 213 -272q49 -78 84 -129q29 -43 -12 -72q-10 -8 -29 -8q-29 0 -43 21q-37 55 -86 137q-92 164 -166 227 q-51 -78 -123 -240l-8 -20q-16 -31 -47 -31q-12 0 -21 4q-43 23 -24 68l8 20q86 201 166 301l8 9q-55 10 -197 2q-147 -12 -223 4q-20 6 -31.5 22.5t-7.5 37z" />
<glyph unicode="&#xd8;" horiz-adv-x="888" d="M45 541q8 113 37 211q35 121 86 186q102 145 270 145q18 0 60 -4q100 -18 178 -84q74 -70 110 -159q78 -164 58 -398q-16 -217 -109 -366q-55 -88 -119 -131q-78 -53 -170 -54q-61 0 -114 19q-45 16 -84 49t-61.5 60.5t-61.5 82.5l-29 39q-12 18 -12 23q-55 168 -39 381z M205 377q53 55 164 158q164 152 258 264q-55 106 -154 123q-6 0 -17.5 1t-17.5 1q-84 0 -139 -78q-78 -111 -94 -316q-4 -77 0 -153zM252 199q0 -2 2 -6q37 -49 53.5 -69t38 -39t41.5 -26q25 -12 59 -12q94 0 161 122t79 282q4 98 -4 165q-84 -90 -203 -200 q-111 -98 -207 -203q-6 -10 -20 -14z" />
<glyph unicode="&#xd9;" horiz-adv-x="851" d="M55 1059q4 33 31 52t59 15q33 -6 53.5 -31.5t16.5 -60.5q-6 -29 6 -198l6 -62q16 -309 68.5 -482t116.5 -210q39 -20 86 8q55 23 92 105q35 74 47 211q23 246 -35 546q-8 33 11.5 60.5t52.5 34.5q33 4 59.5 -13.5t34.5 -50.5q63 -330 39 -592q-14 -150 -64 -262 q-53 -125 -162 -184q-68 -33 -129 -33q-68 0 -112 31q-147 82 -211 393q-39 162 -55 430q0 10 -5 55q-14 177 -6 238zM252 1445q6 32 33 52q27 18 59.5 12t52.5 -32q18 -33 88 -78q74 -55 96.5 -78t21.5 -56.5t-25 -56.5q-20 -23 -55.5 -22.5t-57.5 22.5q-16 16 -72 60 q-98 70 -129 116q-18 29 -12 61z" />
<glyph unicode="&#xda;" horiz-adv-x="851" d="M55 1059q4 33 31 52t59 15q33 -6 53.5 -31.5t16.5 -60.5q-6 -29 6 -198l6 -62q16 -309 68.5 -482t116.5 -210q39 -20 86 8q55 23 92 105q35 74 47 211q23 246 -35 546q-8 33 11.5 60.5t52.5 34.5q33 4 59.5 -13.5t34.5 -50.5q63 -330 39 -592q-14 -150 -64 -262 q-53 -125 -162 -184q-68 -33 -129 -33q-68 0 -112 31q-147 82 -211 393q-39 162 -55 430q0 10 -5 55q-14 177 -6 238zM252 1262.5q0 33.5 22 56.5q20 25 95 78q68 49 90 78q16 27 49 32.5t61 -14.5q29 -18 34 -50t-15 -61q-31 -49 -127 -118q-53 -37 -72 -58 q-29 -25 -59 -24q-29 0 -56 22q-22 25 -22 58.5z" />
<glyph unicode="&#xdb;" horiz-adv-x="851" d="M55 1059q4 33 31 52t59 15q33 -6 53.5 -31.5t16.5 -60.5q-6 -29 6 -198l6 -62q16 -309 68.5 -482t116.5 -210q39 -20 86 8q55 23 92 105q35 74 47 211q23 246 -35 546q-8 33 11.5 60.5t52.5 34.5q33 4 59.5 -13.5t34.5 -50.5q63 -330 39 -592q-14 -150 -64 -262 q-53 -125 -162 -184q-68 -33 -129 -33q-68 0 -112 31q-147 82 -211 393q-39 162 -55 430q0 10 -5 55q-14 177 -6 238zM152 1283q0 34 22 56q35 37 94 78q70 45 90 78q27 43 80 33q51 10 82 -33q25 -33 88 -78q66 -45 97 -78q23 -23 22.5 -56.5t-25.5 -57.5q-23 -20 -55 -21 q-31 0 -57 23q-29 29 -74 57q-8 6 -34.5 26.5t-43.5 32.5q-39 -33 -78 -59q-47 -33 -71 -57q-27 -23 -58 -23q-35 0 -55 21q-24 24 -24 58z" />
<glyph unicode="&#xdc;" horiz-adv-x="851" d="M55 1059q4 33 31 52t59 15q33 -6 53.5 -31.5t16.5 -60.5q-6 -29 6 -198l6 -62q16 -309 68.5 -482t116.5 -210q39 -20 86 8q55 23 92 105q35 74 47 211q23 246 -35 546q-8 33 11.5 60.5t52.5 34.5q33 4 59.5 -13.5t34.5 -50.5q63 -330 39 -592q-14 -150 -64 -262 q-53 -125 -162 -184q-68 -33 -129 -33q-68 0 -112 31q-147 82 -211 393q-39 162 -55 430q0 10 -5 55q-14 177 -6 238zM136 1322q-3 38 22 67q25 27 61.5 29.5t65.5 -21.5q16 -12 26 -23l2 -2q25 -27 25 -64.5t-27 -64.5q-25 -23 -63 -22q-41 0 -66 24l-2 2l-14 13 q-27 24 -30 62zM492.5 1322q-3.5 38 21.5 67q25 27 61.5 29.5t65.5 -21.5l29 -23v-2q25 -27 24.5 -64.5t-26.5 -64.5q-25 -23 -64 -22q-41 0 -63 24l-2 2l-15 13q-28 24 -31.5 62z" />
<glyph unicode="&#xdd;" horiz-adv-x="788" d="M-88 1037.5q-2 33.5 20.5 58t56.5 25.5t58 -21q63 -57 164 -219q35 -57 55.5 -88t55 -70t69.5 -61q223 213 324 380q16 29 48 37t60.5 -8t37.5 -49t-7 -61q-106 -180 -365 -429q2 -27 3.5 -57.5t2.5 -65t1 -55.5q0 -219 30 -331q10 -31 -6 -60t-47 -37q-8 -4 -24 -4 q-59 0 -76 58q-39 127 -39 372q0 106 -4 158q-76 43 -140 115q-45 53 -118 172q-80 135 -133 182q-25 25 -27 58.5zM213 1258.5q0 33.5 23 56.5q20 25 94 78q68 49 90 77q16 27 49 33t61 -14q29 -18 34 -50t-15 -61q-31 -49 -127 -118q-53 -37 -72 -58q-29 -25 -59 -24 q-29 0 -55 22q-23 25 -23 58.5z" />
<glyph unicode="&#xde;" horiz-adv-x="768" d="M47 1198q-4 33 15.5 58.5t54.5 31.5q33 4 59.5 -16.5t30.5 -52.5q20 -156 24 -363q322 -43 443 -197q72 -94 53 -219q-35 -172 -162 -243v-2q-37 -20 -117.5 -40t-156.5 -20h-39l8 -403q2 -33 -21.5 -57.5t-58.5 -26.5h-2q-31 0 -53.5 23.5t-24.5 56.5l-14 563v6v45 q-14 133 -14 391q0 299 -25 465zM248 299q6 0 6 -2q51 -8 139 8q23 6 92 29q63 39 80 135q14 45 -18 92q-72 90 -293 129v-84q0 -219 -6 -307z" />
<glyph unicode="&#xdf;" horiz-adv-x="806" d="M59 745v416q0 29 17 51l8 9q8 10 17.5 20t24.5 24.5t32 28.5q106 88 207 88q94 0 159 -63q70 -66 115 -191q49 -141 -29 -303q-41 -80 -121 -159l-18 -19q-8 -8 -13 -14t-7 -8q6 -8 161 -232q78 -102 115 -162q72 -111 47 -202q-16 -63 -78 -95q-59 -25 -258 -24 q-246 0 -270 8q-29 2 -50.5 20.5t-25.5 47.5q-37 259 -33 759zM221 743q-4 -461 21 -667q106 -4 196 -4q135 0 180 10q0 23 -24 63q-23 35 -111 154q-178 248 -188 281q-14 45 4 93t32.5 63.5t49.5 49.5q49 43 86 113q47 90 20 174q-37 94 -73 127q-18 20 -49 21 q-43 0 -105 -52q-12 -8 -39 -34v-392z" />
<glyph unicode="&#xe0;" horiz-adv-x="942" d="M47 264q12 121 103 230q84 113 206 151q88 27 164 2q80 -20 154 -100q20 -29 18 -62q-4 -53 -28 -147l-7 -16q6 -14 7 -31q-10 -94 32 -129q31 -29 86 -19l23 9l65 22q31 12 61 -2t42 -47q10 -31 -3.5 -61.5t-45.5 -40.5q-20 -8 -64 -23q-4 0 -15 -4t-18 -6q-4 -2 -11 -4 t-9 -2q-16 -2 -47 -2q-104 0 -172 61q-25 20 -41 49q-115 -139 -230 -174q-33 -8 -51 -8q-59 0 -110 41q-66 57 -90 151q-29 82 -19 162zM207 246q-4 -43 11 -96.5t40 -73.5q10 -4 12 -2q90 27 203 190l10 15q4 18 12.5 53t10.5 49q12 37 20 82q-57 49 -120 29 q-70 -20 -129.5 -95t-69.5 -151zM280.5 1111q6.5 32 32.5 52q27 18 60 12t53 -32q18 -33 88 -78q74 -55 96.5 -77.5t21.5 -56.5t-26 -57q-20 -23 -55 -22.5t-57 22.5q-16 16 -72 60q-98 70 -129 117q-19 28 -12.5 60z" />
<glyph unicode="&#xe1;" horiz-adv-x="942" d="M47 264q12 121 103 230q84 113 206 151q88 27 164 2q80 -20 154 -100q20 -29 18 -62q-4 -53 -28 -147l-7 -16q6 -14 7 -31q-10 -94 32 -129q31 -29 86 -19l23 9l65 22q31 12 61 -2t42 -47q10 -31 -3.5 -61.5t-45.5 -40.5q-20 -8 -64 -23q-4 0 -15 -4t-18 -6q-4 -2 -11 -4 t-9 -2q-16 -2 -47 -2q-104 0 -172 61q-25 20 -41 49q-115 -139 -230 -174q-33 -8 -51 -8q-59 0 -110 41q-66 57 -90 151q-29 82 -19 162zM195 820q0 34 22 57q20 25 94 77q68 49 90 78q16 27 49 33t62 -14q29 -18 34 -50t-16 -61q-31 -49 -127 -119q-53 -37 -71 -57 q-29 -25 -60 -25q-29 0 -55 23q-22 24 -22 58zM207 246q-4 -43 11 -96.5t40 -73.5q10 -4 12 -2q90 27 203 190l10 15q4 18 12.5 53t10.5 49q12 37 20 82q-57 49 -120 29q-70 -20 -129.5 -95t-69.5 -151z" />
<glyph unicode="&#xe2;" horiz-adv-x="942" d="M47 264q12 121 103 230q84 113 206 151q88 27 164 2q80 -20 154 -100q20 -29 18 -62q-4 -53 -28 -147l-7 -16q6 -14 7 -31q-10 -94 32 -129q31 -29 86 -19l23 9l65 22q31 12 61 -2t42 -47q10 -31 -3.5 -61.5t-45.5 -40.5q-20 -8 -64 -23q-4 0 -15 -4t-18 -6q-4 -2 -11 -4 t-9 -2q-16 -2 -47 -2q-104 0 -172 61q-25 20 -41 49q-115 -139 -230 -174q-33 -8 -51 -8q-59 0 -110 41q-66 57 -90 151q-29 82 -19 162zM193 843q0 34 22 56q35 37 94 78q70 45 90 78q27 43 80 32q51 10 82 -32q25 -33 88 -78q66 -45 96 -78q23 -23 23 -56.5t-25 -58.5 q-23 -20 -55 -20q-31 0 -57 22q-29 29 -74 58q-8 6 -34.5 26.5t-43.5 32.5q-39 -33 -78 -59q-47 -33 -71 -58q-27 -23 -58 -22q-35 0 -55 20q-24 25 -24 59zM207 246q-4 -43 11 -96.5t40 -73.5q10 -4 12 -2q90 27 203 190l10 15q4 18 12.5 53t10.5 49q12 37 20 82 q-57 49 -120 29q-70 -20 -129.5 -95t-69.5 -151z" />
<glyph unicode="&#xe3;" horiz-adv-x="942" d="M47 264q12 121 103 230q84 113 206 151q88 27 164 2q80 -20 154 -100q20 -29 18 -62q-4 -53 -28 -147l-7 -16q6 -14 7 -31q-10 -94 32 -129q31 -29 86 -19l23 9l65 22q31 12 61 -2t42 -47q10 -31 -3.5 -61.5t-45.5 -40.5q-20 -8 -64 -23q-4 0 -15 -4t-18 -6q-4 -2 -11 -4 t-9 -2q-16 -2 -47 -2q-104 0 -172 61q-25 20 -41 49q-115 -139 -230 -174q-33 -8 -51 -8q-59 0 -110 41q-66 57 -90 151q-29 82 -19 162zM176 860q-6 27 6.5 50.5t36.5 33.5l10 6q74 47 117 47q45 0 105 -22q80 -27 102 -6.5t51 19.5t49 -23q18 -20 16.5 -49t-22.5 -50 q-53 -53 -135 -49q-39 0 -106 23q-33 16 -58 16q-2 0 -39 -22q-37 -20 -49 -25q-4 -2 -14 -2q-60 0 -70 53zM207 246q-4 -43 11 -96.5t40 -73.5q10 -4 12 -2q90 27 203 190l10 15q4 18 12.5 53t10.5 49q12 37 20 82q-57 49 -120 29q-70 -20 -129.5 -95t-69.5 -151z" />
<glyph unicode="&#xe4;" horiz-adv-x="942" d="M47 264q12 121 103 230q84 113 206 151q88 27 164 2q80 -20 154 -100q20 -29 18 -62q-4 -53 -28 -147l-7 -16q6 -14 7 -31q-10 -94 32 -129q31 -29 86 -19l23 9l65 22q31 12 61 -2t42 -47q10 -31 -3.5 -61.5t-45.5 -40.5q-20 -8 -64 -23q-4 0 -15 -4t-18 -6q-4 -2 -11 -4 t-9 -2q-16 -2 -47 -2q-104 0 -172 61q-25 20 -41 49q-115 -139 -230 -174q-33 -8 -51 -8q-59 0 -110 41q-66 57 -90 151q-29 82 -19 162zM126 847q-3 38 21 66q25 27 62 30t65 -21q16 -12 27 -23l2 -2q25 -27 25 -64.5t-27 -64.5q-25 -23 -63 -23q-41 0 -66 25l-2 2l-14 12 q-27 25 -30 63zM207 246q-4 -43 11 -96.5t40 -73.5q10 -4 12 -2q90 27 203 190l10 15q4 18 12.5 53t10.5 49q12 37 20 82q-57 49 -120 29q-70 -20 -129.5 -95t-69.5 -151zM482 847q-3 38 22 66q25 27 61.5 30t65.5 -21l28 -23v-2q25 -27 25 -64.5t-27 -64.5q-25 -23 -63 -23 q-41 0 -64 25l-2 2l-14 12q-29 25 -32 63z" />
<glyph unicode="&#xe5;" horiz-adv-x="942" d="M47 264q12 121 103 230q68 88 159 133q-45 23 -63 57q-27 35 -41 96q-8 63 12.5 124t65.5 95q84 68 209 21q106 -14 139 -115q20 -57 4 -133q-16 -74 -86 -135q59 -23 125 -90q20 -29 18 -62q-4 -53 -28 -147l-7 -16q6 -14 7 -31q-10 -94 32 -129q31 -29 86 -19l23 9 l65 22q31 12 61 -2t42 -47q10 -31 -3.5 -61.5t-45.5 -40.5q-20 -8 -64 -23q-4 0 -15 -4t-18 -6q-4 -2 -11 -4t-9 -2q-16 -2 -47 -2q-104 0 -172 61q-25 20 -41 49q-115 -139 -230 -174q-33 -8 -51 -8q-59 0 -110 41q-66 57 -90 151q-29 82 -19 162zM207 246q-4 -43 11 -96.5 t40 -73.5q10 -4 12 -2q90 27 203 190l10 15q4 18 12.5 53t10.5 49q12 37 20 82q-57 49 -120 29q-70 -20 -129.5 -95t-69.5 -151zM305 795q6 -57 66 -86q80 -31 129 18q29 27 39 69t-2 76q-18 45 -64 48q-6 0 -14 4q-70 31 -115 -4q-53 -39 -39 -125z" />
<glyph unicode="&#xe6;" horiz-adv-x="1103" d="M47 356q12 113 96 215q82 102 193 140q84 27 153 2q82 -23 140 -92q49 35 63 41q86 43 164 43q96 0 152 -60q59 -68 49 -166q-10 -129 -133 -188q-82 -43 -205 -43h-57q2 -14 10 -33q20 -33 41 -51q10 -10 22 -17q80 -29 226 25q33 10 62.5 -4t41.5 -45q10 -33 -3 -62.5 t-46 -40.5q-117 -45 -217 -45h-33q-49 0 -98 25q-39 16 -76 47q-43 43 -66 94q-16 35 -18 39q-98 -117 -203 -147q-23 -10 -49 -10q-61 0 -109 40q-49 41 -84 140q-26 81 -16 153zM207 336q-4 -51 16 -100q16 -45 33 -52q37 12 74 43t56.5 55.5t55.5 75.5l7 13q8 39 22 92 q14 63 16 74q-47 39 -104 20q-59 -20 -113.5 -86.5t-62.5 -134.5zM674 410q8 0 23.5 -1t21.5 -1q158 0 178 84q2 29 -6 43q-8 8 -35 8q-43 0 -92 -25.5t-72 -62.5q-14 -18 -18 -45z" />
<glyph unicode="&#xe7;" horiz-adv-x="737" d="M37 358q10 111 94 195q78 88 184 115q98 31 189.5 4t150.5 -105q20 -27 16.5 -59.5t-30.5 -52.5q-25 -20 -58.5 -16.5t-54.5 28.5q-63 82 -168 45q-63 -18 -110 -66.5t-51 -101.5v-2q-12 -133 84 -201q63 -45 155 -46t183 42q31 14 61.5 3t44.5 -41.5t4 -61.5t-41 -45 l-49 -21q0 -51 -37 -96q8 -8 14 -22q23 -29 23 -78q0 -45 -33 -88q-25 -37 -73 -60q-35 -14 -74 -14q-59 0 -111 39q-14 14 -16 35.5t10 36.5q14 14 34.5 16t35.5 -10q39 -31 80 -9q45 18 49 56q0 27 -27 41q-49 -6 -55 -6q-27 0 -49 8q-45 23 -27 65q6 20 25.5 28.5 t40.5 0.5q8 -4 49 4h4l24 23q-2 0 -34.5 -3.5t-49.5 -3.5q-145 0 -254 74q-82 57 -120 146q-39 81 -33 204z" />
<glyph unicode="&#xe8;" horiz-adv-x="735" d="M47 399q-6 90 39 170q49 90 147 152q98 63 193 70q111 8 180 -58q74 -70 74 -186q-4 -78 -41 -139q-43 -59 -98 -93q-96 -59 -244 -73h-94q14 -96 69 -136q45 -35 117 -32h21q98 10 211 63q29 12 59.5 0t44.5 -41q14 -31 3 -62.5t-42 -43.5q-139 -66 -264 -78h-31 q-135 0 -219 70q-90 68 -116.5 182t-8.5 235zM207 406q51 -4 78 -3q219 16 233 144q-4 53 -20 67q-20 20 -60 15q-59 -4 -120.5 -43t-90.5 -92q-26 -47 -20 -88zM256 1127.5q6 31.5 33 52.5q27 18 59.5 12t52.5 -33q18 -33 88 -78q74 -55 96.5 -77.5t21.5 -56.5t-25 -56 q-20 -23 -55 -23t-58 23q-16 16 -72 59q-98 70 -129 117q-18 29 -12 60.5z" />
<glyph unicode="&#xe9;" horiz-adv-x="735" d="M47 399q-6 90 39 170q49 90 147 152q98 63 193 70q111 8 180 -58q74 -70 74 -186q-4 -78 -41 -139q-43 -59 -98 -93q-96 -59 -244 -73h-94q14 -96 69 -136q45 -35 117 -32h21q98 10 211 63q29 12 59.5 0t44.5 -41q14 -31 3 -62.5t-42 -43.5q-139 -66 -264 -78h-31 q-135 0 -219 70q-90 68 -116.5 182t-8.5 235zM207 406q51 -4 78 -3q219 16 233 144q-4 53 -20 67q-20 20 -60 15q-59 -4 -120.5 -43t-90.5 -92q-26 -47 -20 -88zM315 945q0 34 23 56q20 25 94 78q68 49 90 78q16 27 49 33t62 -14q29 -18 34 -50t-16 -61q-31 -49 -127 -119 q-53 -37 -71 -57q-29 -25 -60 -25q-29 0 -55 23q-23 24 -23 58z" />
<glyph unicode="&#xea;" horiz-adv-x="735" d="M47 399q-6 90 39 170q49 90 147 152q98 63 193 70q111 8 180 -58q74 -70 74 -186q-4 -78 -41 -139q-43 -59 -98 -93q-96 -59 -244 -73h-94q14 -96 69 -136q45 -35 117 -32h21q98 10 211 63q29 12 59.5 0t44.5 -41q14 -31 3 -62.5t-42 -43.5q-139 -66 -264 -78h-31 q-135 0 -219 70q-90 68 -116.5 182t-8.5 235zM115 933q0 34 22 56q35 37 94 78q70 45 91 78q27 43 79 33q51 10 82 -33q25 -33 88 -78q66 -45 97 -78q23 -23 22.5 -56.5t-24.5 -58.5q-23 -20 -56 -20q-31 0 -57 23q-29 29 -74 57q-8 6 -34.5 26.5t-43.5 32.5 q-39 -33 -77 -59q-47 -33 -72 -57q-27 -23 -57 -23q-35 0 -56 20q-24 25 -24 59zM207 406q51 -4 78 -3q219 16 233 144q-4 53 -20 67q-20 20 -60 15q-59 -4 -120.5 -43t-90.5 -92q-26 -47 -20 -88z" />
<glyph unicode="&#xeb;" horiz-adv-x="735" d="M47 399q-6 90 39 170q49 90 147 152q98 63 193 70q111 8 180 -58q74 -70 74 -186q-4 -78 -41 -139q-43 -59 -98 -93q-96 -59 -244 -73h-94q14 -96 69 -136q45 -35 117 -32h21q98 10 211 63q29 12 59.5 0t44.5 -41q14 -31 3 -62.5t-42 -43.5q-139 -66 -264 -78h-31 q-135 0 -219 70q-90 68 -116.5 182t-8.5 235zM116 955.5q-3 37.5 21 66.5q25 27 62 30t65 -22q16 -12 27 -22l2 -2q25 -27 24.5 -65t-26.5 -64q-25 -23 -64 -23q-41 0 -65 25l-2 2l-15 12q-26 25 -29 62.5zM207 406q51 -4 78 -3q219 16 233 144q-4 53 -20 67q-20 20 -60 15 q-59 -4 -120.5 -43t-90.5 -92q-26 -47 -20 -88zM472 955.5q-3 37.5 22 66.5q25 27 61.5 30t65.5 -22l28 -22v-2q25 -27 25 -65t-27 -64q-25 -23 -63 -23q-41 0 -64 25l-2 2l-14 12q-29 25 -32 62.5z" />
<glyph unicode="&#xec;" horiz-adv-x="331" d="M-20.5 1074q6.5 32 32.5 52q27 18 59.5 12.5t53.5 -32.5q18 -33 88 -78q74 -55 96.5 -77.5t21.5 -56.5t-26 -56q-20 -23 -55 -23t-57 23q-16 16 -72 59q-98 70 -129 117q-19 28 -12.5 60zM78 563q-8 33 11.5 60.5t51.5 35.5q33 4 60.5 -14t34.5 -51q14 -76 14 -262 q-4 -162 16 -242q8 -35 -10 -62.5t-51 -35.5q-4 -2 -17 -2q-61 0 -79 59q-25 102 -21 287q4 157 -10 227z" />
<glyph unicode="&#xed;" horiz-adv-x="331" d="M20 894q0 34 23 56q20 25 94 78q68 49 90 78q16 27 49 33t62 -15q29 -18 34 -50t-16 -60q-31 -49 -127 -119q-53 -37 -71 -57q-29 -25 -60 -25q-29 0 -55 23q-23 24 -23 58zM78 563q-8 33 11.5 60.5t51.5 35.5q33 4 60.5 -14t34.5 -51q14 -76 14 -262q-4 -162 16 -242 q8 -35 -10 -62.5t-51 -35.5q-4 -2 -17 -2q-61 0 -79 59q-25 102 -21 287q4 157 -10 227z" />
<glyph unicode="&#xee;" horiz-adv-x="331" d="M-102 875.5q0 33.5 22 56.5q35 37 94 78q70 45 90 77q27 43 80 33q51 10 82 -33q25 -33 88 -77q66 -45 97 -78q23 -23 22.5 -56.5t-24.5 -58.5q-23 -20 -56 -20q-31 0 -57 22q-29 29 -74 58q-8 6 -34.5 26.5t-43.5 32.5q-39 -33 -78 -59q-47 -33 -71 -58q-27 -23 -58 -22 q-35 0 -55 20q-24 25 -24 58.5zM78 563q-8 33 11.5 60.5t51.5 35.5q33 4 60.5 -14t34.5 -51q14 -76 14 -262q-4 -162 16 -242q8 -35 -10 -62.5t-51 -35.5q-4 -2 -17 -2q-61 0 -79 59q-25 102 -21 287q4 157 -10 227z" />
<glyph unicode="&#xef;" horiz-adv-x="331" d="M-112 830.5q-3 37.5 22 66.5q25 27 61.5 30t65.5 -22q16 -12 26 -22l3 -2q25 -27 24.5 -65t-27.5 -64q-25 -23 -63 -23q-41 0 -66 25l-2 2l-14 12q-27 25 -30 62.5zM78 563q-8 33 11.5 60.5t51.5 35.5q33 4 60.5 -14t34.5 -51q14 -76 14 -262q-4 -162 16 -242 q8 -35 -10 -62.5t-51 -35.5q-4 -2 -17 -2q-61 0 -79 59q-25 102 -21 287q4 157 -10 227zM245 830.5q-3 37.5 21 66.5q25 27 62 30t65 -22l29 -22v-2q25 -27 24.5 -65t-26.5 -64q-25 -23 -64 -23q-41 0 -63 25l-2 2l-15 12q-28 25 -31 62.5z" />
<glyph unicode="&#xf0;" horiz-adv-x="745" d="M-6 1028q8 33 37 49q61 37 143 31q49 -4 129 -41q41 -18 115 -86q76 39 133 61q33 10 62.5 -2t39.5 -41q14 -31 3 -60.5t-42 -41.5l-4 -4l-69 -29q100 -106 137 -256q20 -82 20 -147v-4q29 -74 19 -174q-12 -109 -78 -211q-63 -102 -170 -156q-55 -27 -115 -27 q-104 0 -185 74t-126 178v2q-49 123 16 279q59 135 170 209q82 55 179 55q43 0 69 -8l-31 43q-33 45 -57 67q-25 -16 -82 -45q-49 -20 -84 -28t-61.5 9t-34.5 50q-10 31 6.5 58.5t48.5 35.5q23 4 74 27q-106 66 -143 45q-27 -16 -61 -8t-50 35q-16 28 -8 61zM193 203 q27 -63 70.5 -108.5t90.5 -45.5q20 0 45 12q59 29 104.5 96.5t53.5 143.5q8 109 -51 178q-47 47 -98 47q-37 0 -91 -28q-68 -47 -108.5 -137t-15.5 -158z" />
<glyph unicode="&#xf1;" horiz-adv-x="782" d="M43 530q-6 33 12.5 59.5t51 35t60.5 -10t34 -51.5l8 -37q61 33 127 47q164 43 276 -34q55 -41 85 -115t35 -124t7 -138v-45q2 -35 -20.5 -59.5t-56.5 -26.5h-3q-33 0 -56 22.5t-23 55.5q0 6 -1 23.5t-1 27.5q-4 205 -62 250q-49 35 -141 8q-98 -27 -158 -74q6 -84 6 -88 q4 -45 13 -84q20 -127 16 -192q-2 -33 -25.5 -55.5t-54.5 -22.5h-6q-33 2 -54.5 28.5t-19.5 59.5q4 45 -16 153q-18 102 -19 224q-4 122 -14 163zM100 786q-6 27 6.5 50.5t36.5 33.5l11 7q74 47 116 47q45 0 105 -23q80 -27 102.5 -6.5t51 19.5t49.5 -23q18 -20 16 -49 t-23 -49q-53 -53 -135 -50q-39 0 -106 23q-33 16 -58 16q-2 0 -39 -22q-37 -20 -49 -25q-4 -2 -14 -2q-60 0 -70 53z" />
<glyph unicode="&#xf2;" horiz-adv-x="673" d="M47 184q-45 119 16 246q49 119 148 182q76 49 158 50q113 0 194 -89q96 -113 80 -268q-12 -94 -65 -184q-66 -96 -152 -137h-2q-45 -23 -102 -23q-98 0 -177 76q-61 57 -96 141v2zM197 242q23 -49 56.5 -85t68.5 -36q18 0 34 8q47 23 83 78t44 117q10 78 -41 143 q-35 35 -73 35q-31 0 -70 -25q-57 -33 -90 -110q-30 -78 -12 -125zM211 988q6 32 33 52q27 18 59.5 12.5t52.5 -32.5q18 -33 88 -78q74 -55 96.5 -77.5t21.5 -56.5t-25 -56q-20 -23 -55.5 -23t-57.5 23q-16 16 -72 59q-98 70 -129 117q-18 28 -12 60z" />
<glyph unicode="&#xf3;" horiz-adv-x="673" d="M47 184q-45 119 16 246q49 119 148 182q76 49 158 50q113 0 194 -89q96 -113 80 -268q-12 -94 -65 -184q-66 -96 -152 -137h-2q-45 -23 -102 -23q-98 0 -177 76q-61 57 -96 141v2zM197 242q23 -49 56.5 -85t68.5 -36q18 0 34 8q47 23 83 78t44 117q10 78 -41 143 q-35 35 -73 35q-31 0 -70 -25q-57 -33 -90 -110q-30 -78 -12 -125zM244 783.5q0 33.5 22 56.5q20 25 94 78q68 49 91 77q16 27 48.5 33t61.5 -14q29 -18 34 -50t-15 -61q-31 -49 -127 -119q-53 -37 -72 -57q-29 -25 -59 -25q-29 0 -56 23q-22 25 -22 58.5z" />
<glyph unicode="&#xf4;" horiz-adv-x="673" d="M47 184q-45 119 16 246q49 119 148 182q76 49 158 50q113 0 194 -89q96 -113 80 -268q-12 -94 -65 -184q-66 -96 -152 -137h-2q-45 -23 -102 -23q-98 0 -177 76q-61 57 -96 141v2zM57 785.5q0 33.5 23 56.5q35 37 94 78q70 45 90 77q27 43 80 33q51 10 82 -33 q25 -33 88 -77q66 -45 96 -78q23 -23 23 -56.5t-25 -58.5q-23 -20 -55 -20q-31 0 -57 22q-29 29 -74 57q-8 6 -35 27t-43 33q-39 -33 -78 -60q-47 -33 -71 -57q-27 -23 -58 -22q-35 0 -55 20q-25 25 -25 58.5zM197 242q23 -49 56.5 -85t68.5 -36q18 0 34 8q47 23 83 78 t44 117q10 78 -41 143q-35 35 -73 35q-31 0 -70 -25q-57 -33 -90 -110q-30 -78 -12 -125z" />
<glyph unicode="&#xf5;" horiz-adv-x="673" d="M47 184q-45 119 16 246q49 119 148 182q76 49 158 50q113 0 194 -89q96 -113 80 -268q-12 -94 -65 -184q-66 -96 -152 -137h-2q-45 -23 -102 -23q-98 0 -177 76q-61 57 -96 141v2zM90 776q-6 27 6.5 50.5t36.5 33.5l10 6q74 47 117 47q45 0 105 -22q80 -27 102 -6.5 t51 19.5t49 -23q18 -20 16.5 -49t-22.5 -50q-53 -53 -135 -49q-39 0 -107 23q-33 16 -57 16q-2 0 -39 -22q-37 -20 -49 -25q-4 -2 -14 -2q-60 0 -70 53zM197 242q23 -49 56.5 -85t68.5 -36q18 0 34 8q47 23 83 78t44 117q10 78 -41 143q-35 35 -73 35q-31 0 -70 -25 q-57 -33 -90 -110q-30 -78 -12 -125z" />
<glyph unicode="&#xf6;" horiz-adv-x="673" d="M47 184q-45 119 16 246q49 119 148 182q76 49 158 50q113 0 194 -89q96 -113 80 -268q-12 -94 -65 -184q-66 -96 -152 -137h-2q-45 -23 -102 -23q-98 0 -177 76q-61 57 -96 141v2zM56 832.5q-3 37.5 22 66.5q25 27 61.5 30t65.5 -22q16 -12 26 -22l2 -2q25 -27 25 -65 t-27 -64q-25 -23 -63 -23q-41 0 -66 25l-2 2l-14 12q-27 25 -30 62.5zM197 242q23 -49 56.5 -85t68.5 -36q18 0 34 8q47 23 83 78t44 117q10 78 -41 143q-35 35 -73 35q-31 0 -70 -25q-57 -33 -90 -110q-30 -78 -12 -125zM413 832.5q-3 37.5 21 66.5q25 27 61.5 30t65.5 -22 l29 -22v-2q25 -27 24.5 -65t-26.5 -64q-25 -23 -64 -23q-41 0 -63 25l-2 2l-15 12q-28 25 -31 62.5z" />
<glyph unicode="&#xf7;" horiz-adv-x="847" d="M-30.5 -70.5q-10.5 31.5 3.5 60.5q76 154 283 401q109 133 381 432l96 107q23 25 55.5 25.5t55.5 -21.5q27 -23 28.5 -55.5t-20.5 -57.5l-96 -106q-535 -584 -639 -797q-25 -45 -72 -45q-12 0 -37 10q-28 15 -38.5 46.5z" />
<glyph unicode="&#xf8;" horiz-adv-x="770" d="M49 172q-49 129 19 285q39 90 108 159q0 45 45 66q25 12 51 6q78 39 150 39q131 0 223 -104q113 -125 92 -310q-12 -119 -78 -215q-20 -33 -65 -82q-6 -39 -43 -59q-20 -10 -35 -10q-8 0 -12 2l-19 -10h-2q-61 -29 -116 -29q-104 0 -187.5 75.5t-128.5 182.5q0 2 -2 4z M199 229q29 -63 74.5 -110t93.5 -47q4 0 34 6q-12 25 -112 254l-49 110q-74 -119 -41 -213zM369 555l69 -160q16 -39 47 -109.5t43 -97.5q41 72 50 144q12 109 -54 184q-45 49 -102 49q-22 0 -53 -10z" />
<glyph unicode="&#xf9;" horiz-adv-x="763" d="M51 293q-31 156 4 321q6 33 34 50.5t63 11.5q33 -6 50 -35t11 -61q-27 -127 -3.5 -251t85.5 -184q63 -53 147 -30q61 16 93 102q27 80 14 193q-14 106 -51 155q-18 27 -13.5 60.5t33.5 52.5q27 18 58.5 13t52.5 -34q59 -78 80 -227q18 -147 -23 -266q-23 -70 -70 -123 q-55 -57 -131 -82q-49 -12 -96 -12q-41 0 -70 10q-74 14 -133 72q-100 90 -135 264zM164 961.5q6 31.5 33 52.5q27 18 59.5 12t52.5 -33q18 -33 88 -78q74 -55 96.5 -77.5t21.5 -56t-26 -56.5q-20 -23 -55 -23t-57 23q-16 16 -72 59q-98 70 -129 117q-18 29 -12 60.5z" />
<glyph unicode="&#xfa;" horiz-adv-x="763" d="M51 293q-31 156 4 321q6 33 34 50.5t63 11.5q33 -6 50 -35t11 -61q-27 -127 -3.5 -251t85.5 -184q63 -53 147 -30q61 16 93 102q27 80 14 193q-14 106 -51 155q-18 27 -13.5 60.5t33.5 52.5q27 18 58.5 13t52.5 -34q59 -78 80 -227q18 -147 -23 -266q-23 -70 -70 -123 q-55 -57 -131 -82q-49 -12 -96 -12q-41 0 -70 10q-74 14 -133 72q-100 90 -135 264zM213 824.5q0 33.5 23 56.5q20 25 94 77q68 49 90 78q16 27 49 33t61 -14q29 -18 34 -50t-15 -61q-31 -49 -127 -119q-53 -37 -72 -57q-29 -25 -59 -25q-29 0 -55 23q-23 25 -23 58.5z" />
<glyph unicode="&#xfb;" horiz-adv-x="763" d="M51 293q-31 156 4 321q6 33 34 50.5t63 11.5q33 -6 50 -35t11 -61q-27 -127 -3.5 -251t85.5 -184q63 -53 147 -30q61 16 93 102q27 80 14 193q-14 106 -51 155q-18 27 -13.5 60.5t33.5 52.5q27 18 58.5 13t52.5 -34q59 -78 80 -227q18 -147 -23 -266q-23 -70 -70 -123 q-55 -57 -131 -82q-49 -12 -96 -12q-41 0 -70 10q-74 14 -133 72q-100 90 -135 264zM66 838.5q0 33.5 22 56.5q35 37 94 78q70 45 90 78q27 43 80 32q51 10 82 -32q25 -33 88 -78q66 -45 96 -78q23 -23 23 -56.5t-25 -58.5q-23 -20 -55 -20q-31 0 -57 22q-29 29 -74 58 q-8 6 -34.5 26.5t-43.5 32.5q-39 -33 -78 -59q-47 -33 -71 -58q-27 -23 -58 -22q-35 0 -55 20q-24 25 -24 58.5z" />
<glyph unicode="&#xfc;" horiz-adv-x="763" d="M51 293q-31 156 4 321q6 33 34 50.5t63 11.5q33 -6 50 -35t11 -61q-27 -127 -3.5 -251t85.5 -184q63 -53 147 -30q61 16 93 102q27 80 14 193q-14 106 -51 155q-18 27 -13.5 60.5t33.5 52.5q27 18 58.5 13t52.5 -34q59 -78 80 -227q18 -147 -23 -266q-23 -70 -70 -123 q-55 -57 -131 -82q-49 -12 -96 -12q-41 0 -70 10q-74 14 -133 72q-100 90 -135 264zM66.5 859q-3.5 38 21.5 67q25 27 61.5 29.5t65.5 -21.5q16 -12 27 -23l2 -2q25 -27 24.5 -64.5t-26.5 -64.5q-25 -23 -64 -22q-41 0 -65 24l-2 2l-15 13q-26 24 -29.5 62zM423 859 q-3 38 21 67q25 27 62 29.5t65 -21.5l29 -23v-2q25 -27 25 -64.5t-27 -64.5q-25 -23 -63 -22q-41 0 -64 24l-2 2l-14 13q-29 24 -32 62z" />
<glyph unicode="&#xfd;" horiz-adv-x="598" d="M-19.5 697.5q5.5 31.5 31.5 54.5q27 18 59.5 13t53.5 -32q47 -66 102 -221q49 -145 95 -195q25 51 65 236q23 119 47 199q10 33 41 47t64 4q31 -10 45 -41t4 -62q-23 -72 -45 -180q-31 -168 -76 -270q0 -2 -1 -4t-1 -4q-133 -440 -176 -633q-12 -63 -80 -64q-10 0 -16 2 q-33 6 -51.5 34t-12.5 61q53 231 141 508q-41 27 -71.5 61.5t-55 84.5t-36 76.5t-31.5 88.5q-43 127 -80 176q-21 29 -15.5 60.5zM145 904q0 34 23 57q20 25 94 77q68 49 90 78q16 27 49 33t62 -14q29 -18 34 -50t-16 -61q-31 -49 -127 -119q-53 -37 -71 -57 q-29 -25 -60 -25q-29 0 -55 23q-23 24 -23 58z" />
<glyph unicode="&#xfe;" horiz-adv-x="735" d="M51 82q0 6 2 10q8 115 4 307v136q0 25 13 43v385q0 35 23.5 58t56.5 23q35 0 57 -23.5t22 -57.5v-316q301 -51 412 -194q74 -94 51 -217q-31 -168 -160 -246h-2q-37 -23 -116.5 -42.5t-155.5 -19.5q-29 0 -41 2l10 -403q0 -33 -22.5 -57.5t-54.5 -26.5h-5q-33 0 -55 22.5 t-24 57.5zM213 94q6 0 8 -2q59 -6 137 8q23 4 44.5 11.5t35 12.5t15.5 5q61 37 82 135q8 57 -23 92q-72 90 -293 129v-84q4 -190 -6 -307z" />
<glyph unicode="&#xff;" horiz-adv-x="598" d="M-19.5 697.5q5.5 31.5 31.5 54.5q27 18 59.5 13t53.5 -32q47 -66 102 -221q49 -145 95 -195q25 51 65 236q23 119 47 199q10 33 41 47t64 4q31 -10 45 -41t4 -62q-23 -72 -45 -180q-31 -168 -76 -270q0 -2 -1 -4t-1 -4q-133 -440 -176 -633q-12 -63 -80 -64q-10 0 -16 2 q-33 6 -51.5 34t-12.5 61q53 231 141 508q-41 27 -71.5 61.5t-55 84.5t-36 76.5t-31.5 88.5q-43 127 -80 176q-21 29 -15.5 60.5zM-1 951q-3 38 21 67q25 27 62 30t65 -22q16 -12 27 -22l2 -3q25 -27 25 -64.5t-27 -64.5q-25 -23 -63 -22q-41 0 -66 24l-2 3l-14 12 q-27 24 -30 62zM355 951q-3 38 22 67q25 27 61.5 30t65.5 -22l28 -22v-3q25 -27 25 -64.5t-27 -64.5q-25 -23 -63 -22q-41 0 -64 24l-2 3l-14 12q-29 24 -32 62z" />
<glyph unicode="&#x152;" horiz-adv-x="1347" d="M47 543q2 90 33 211q31 109 86 186q102 145 270 145q20 0 62 -4q100 -18 178 -84l26 -28q14 10 35 14q61 6 178 6q164 0 236 29q33 10 63.5 -5.5t38.5 -45.5q12 -31 -2 -60.5t-45 -40.5q-100 -37 -291 -37q-66 0 -96 -2q-4 -23 -8 -55q27 -76 33 -180l102 -4 q174 -12 266 2q35 4 61.5 -14.5t31.5 -51.5q6 -33 -13.5 -60.5t-52.5 -33.5q-82 -10 -145 -10q-51 0 -158 8q-31 0 -92 4q-6 -74 -21 -129q0 -8 4 -24q10 -115 9 -150q43 -23 190 -8q156 12 221 -4q33 -8 50.5 -37t9.5 -62q-8 -31 -37 -49t-62 -10q-45 12 -168 0 q-55 -6 -112 -6q-37 0 -54 2q-109 12 -172 74q-37 -53 -86 -86q-78 -53 -172 -54q-63 0 -110 19q-45 16 -84 48t-62.5 61.5t-62.5 82.5l-31 39q-2 6 -6 13.5t-6 9.5q-55 158 -35 381zM205 532q-12 -170 26 -307q16 -20 23 -30q49 -68 75.5 -95.5t59.5 -38.5q23 -12 55 -12 q74 0 131.5 75t86.5 193q-12 117 8 195q-27 111 -21 240q-55 152 -176 172q-6 0 -18.5 1t-18.5 1q-80 0 -139 -78q-78 -117 -92 -316z" />
<glyph unicode="&#x153;" horiz-adv-x="1210" d="M33 401q16 119 102 228q88 115 207 149q86 29 164 4q82 -25 145 -94q35 31 90 60q96 53 197 53q113 0 176 -70q66 -74 57 -190q-10 -80 -53 -140q-37 -49 -104 -84q-109 -51 -248 -51q-51 0 -94 6q8 -94 57 -139q43 -41 113 -43h22q98 0 213 43q31 10 61.5 -4t43.5 -45 q10 -31 -5.5 -61.5t-46.5 -40.5q-141 -53 -268 -54h-31q-127 8 -210 86q-18 12 -39 41q-20 -31 -25 -35q-82 -94 -223 -94q-27 0 -39 2q-88 6 -158 88q-59 74 -90 199q-24 108 -14 186zM193 379q-6 -49 13 -131t56 -129q18 -20 47 -31q80 -8 127 39q25 29 56 121q2 8 8 25.5 t8 25.5q4 76 18 143q0 10 2 17l-4 41q-8 61 -8 96q-55 49 -127 31q-70 -23 -129 -97.5t-67 -150.5zM690 459q0 -6 1 -13.5t1 -11.5q33 -6 74 -6q225 0 244 123q8 47 -15 70q-16 18 -57 18q-59 0 -124.5 -34t-98.5 -85q-23 -34 -25 -61z" />
<glyph unicode="&#x178;" horiz-adv-x="788" d="M-88 1037.5q-2 33.5 20.5 58t56.5 25.5t58 -21q63 -57 164 -219q35 -57 55.5 -88t55 -70t69.5 -61q223 213 324 380q16 29 48 37t60.5 -8t37.5 -49t-7 -61q-106 -180 -365 -429q2 -27 3.5 -57.5t2.5 -65t1 -55.5q0 -219 30 -331q10 -31 -6 -60t-47 -37q-8 -4 -24 -4 q-59 0 -76 58q-39 127 -39 372q0 106 -4 158q-76 43 -140 115q-45 53 -118 172q-80 135 -133 182q-25 25 -27 58.5zM126 1318q-3 38 21 66q25 27 62 30t65 -21q16 -12 27 -23l2 -2q25 -27 25 -64.5t-27 -64.5q-25 -23 -63 -22q-41 0 -66 24l-2 2l-14 12q-27 25 -30 63z M482 1318q-3 38 22 66q25 27 61.5 30t65.5 -21l28 -23v-2q25 -27 25 -64.5t-27 -64.5q-25 -23 -63 -22q-41 0 -64 24l-2 2l-14 12q-29 25 -32 63z" />
<glyph unicode="&#x2c6;" horiz-adv-x="716" d="M70 785.5q0 33.5 22 56.5q35 37 94 78q70 45 90 77q27 43 80 33q51 10 82 -33q25 -33 88 -77q66 -45 97 -78q23 -23 22.5 -56.5t-24.5 -58.5q-23 -20 -56 -20q-31 0 -57 22q-29 29 -74 57q-8 6 -34.5 27t-43.5 33q-39 -33 -77 -60q-47 -33 -72 -57q-27 -23 -57 -22 q-35 0 -56 20q-24 25 -24 58.5z" />
<glyph unicode="&#x302;" horiz-adv-x="716" d="M70 785.5q0 33.5 22 56.5q35 37 94 78q70 45 90 77q27 43 80 33q51 10 82 -33q25 -33 88 -77q66 -45 97 -78q23 -23 22.5 -56.5t-24.5 -58.5q-23 -20 -56 -20q-31 0 -57 22q-29 29 -74 57q-8 6 -34.5 27t-43.5 33q-39 -33 -77 -60q-47 -33 -72 -57q-27 -23 -57 -22 q-35 0 -56 20q-24 25 -24 58.5z" />
<glyph unicode="&#x2dc;" horiz-adv-x="716" d="M111 776q-6 27 6 50.5t37 33.5l10 6q74 47 117 47q45 0 104 -22q80 -27 102.5 -6.5t51 19.5t49.5 -23q18 -20 16 -49t-22 -50q-53 -53 -136 -49q-39 0 -106 23q-33 16 -57 16q-2 0 -39 -22q-37 -20 -49 -25q-4 -2 -15 -2q-59 0 -69 53z" />
<glyph unicode="&#x303;" horiz-adv-x="716" d="M111 776q-6 27 6 50.5t37 33.5l10 6q74 47 117 47q45 0 104 -22q80 -27 102.5 -6.5t51 19.5t49.5 -23q18 -20 16 -49t-22 -50q-53 -53 -136 -49q-39 0 -106 23q-33 16 -57 16q-2 0 -39 -22q-37 -20 -49 -25q-4 -2 -15 -2q-59 0 -69 53z" />
<glyph unicode="&#x2000;" horiz-adv-x="763" />
<glyph unicode="&#x2001;" horiz-adv-x="1527" />
<glyph unicode="&#x2002;" horiz-adv-x="763" />
<glyph unicode="&#x2003;" horiz-adv-x="1527" />
<glyph unicode="&#x2004;" horiz-adv-x="507" />
<glyph unicode="&#x2005;" horiz-adv-x="380" />
<glyph unicode="&#x2006;" horiz-adv-x="253" />
<glyph unicode="&#x2007;" horiz-adv-x="253" />
<glyph unicode="&#x2008;" horiz-adv-x="190" />
<glyph unicode="&#x2009;" horiz-adv-x="305" />
<glyph unicode="&#x200a;" horiz-adv-x="83" />
<glyph unicode="&#x2010;" horiz-adv-x="632" d="M51 356q2 39 30 62.5t66 19.5q63 -2 177 21q135 23 157 22q39 0 66.5 -24.5t27.5 -61.5q4 -37 -18 -64.5t-59 -31.5h-6q-33 0 -134 -18q-74 -16 -122 -21q-47 -6 -101 -2q-39 4 -63.5 31.5t-20.5 66.5z" />
<glyph unicode="&#x2011;" horiz-adv-x="632" d="M51 356q2 39 30 62.5t66 19.5q63 -2 177 21q135 23 157 22q39 0 66.5 -24.5t27.5 -61.5q4 -37 -18 -64.5t-59 -31.5h-6q-33 0 -134 -18q-74 -16 -122 -21q-47 -6 -101 -2q-39 4 -63.5 31.5t-20.5 66.5z" />
<glyph unicode="&#x2012;" horiz-adv-x="632" d="M51 356q2 39 30 62.5t66 19.5q63 -2 177 21q135 23 157 22q39 0 66.5 -24.5t27.5 -61.5q4 -37 -18 -64.5t-59 -31.5h-6q-33 0 -134 -18q-74 -16 -122 -21q-47 -6 -101 -2q-39 4 -63.5 31.5t-20.5 66.5z" />
<glyph unicode="&#x2013;" horiz-adv-x="761" d="M51 379q6 37 36 60.5t67 19.5q90 -12 254 0q158 10 213 6q37 -2 62.5 -28.5t23.5 -65.5q0 -37 -27 -62.5t-64 -25.5h-4q-59 4 -192 -4q-106 -8 -164 -9q-70 0 -127 9q-37 4 -59.5 33.5t-18.5 66.5z" />
<glyph unicode="&#x2014;" horiz-adv-x="1103" d="M51 360q4 37 32 61.5t67 22.5q145 -12 458 0q231 8 353 7q37 -2 63.5 -29t24.5 -64q-2 -39 -28 -64.5t-67 -25.5q-170 4 -340 -6q-29 0 -125 -4t-149 -4q-70 0 -205 8q-37 4 -61.5 31.5t-22.5 66.5z" />
<glyph unicode="&#x2018;" d="M53 879q0 92 35 149q20 33 56 43t69 -10.5t41 -56t-10 -68.5q-16 -27 6 -131q10 -35 -8.5 -67.5t-53.5 -43.5q-20 -4 -26 -4q-31 0 -54.5 18.5t-31.5 49.5q-21 84 -23 121z" />
<glyph unicode="&#x2019;" d="M50 767q-11 36 7 69q47 90 37 125q-12 37 4.5 70.5t53.5 45.5q35 12 68.5 -5t45.5 -56q23 -70 0 -154q-6 -25 -47 -112q-14 -27 -44 -40.5t-58 -4.5q-12 4 -23 8q-33 18 -44 54z" />
<glyph unicode="&#x201a;" d="M70.5 -114q-11.5 36 7.5 69q47 90 37 125q-12 37 4 70.5t53 46.5q35 12 68.5 -5.5t46.5 -56.5q23 -70 0 -153q-6 -25 -47 -113q-14 -27 -44 -40t-59 -5q-12 4 -22 8q-33 18 -44.5 54z" />
<glyph unicode="&#x201c;" horiz-adv-x="598" d="M66 870q-6 88 34 152q18 33 55.5 42t67.5 -11q33 -18 42 -54t-11 -69q-25 -39 10 -131q8 -37 -10 -70t-53 -41q-10 -4 -27 -4q-31 0 -54.5 18.5t-31.5 49.5q-20 63 -22 118zM319 883q-6 92 35 151q18 33 54 42t69 -11q33 -18 42 -54t-11 -69q-18 -29 6 -131 q10 -37 -8.5 -69.5t-54.5 -41.5q-6 -4 -23 -4q-68 0 -88 68q-19 74 -21 119z" />
<glyph unicode="&#x201d;" horiz-adv-x="600" d="M69.5 1004.5q8.5 35.5 41 56t69.5 10.5t56 -43q39 -59 32 -149q0 -39 -20 -121q-20 -68 -88 -68q-6 0 -23 4q-37 8 -55.5 41t-7.5 70q23 106 6 131q-19 33 -10.5 68.5zM329.5 764q-14.5 35 0.5 70q39 98 24 129q-14 35 -1.5 68.5t45 50t69.5 3t51 -50.5q29 -68 17 -151 q-8 -45 -37 -117q-27 -66 -95 -57q-4 0 -12 3t-12 3q-35 14 -49.5 49z" />
<glyph unicode="&#x201e;" horiz-adv-x="620" d="M90 124q8 36 41 56.5t70 10t55 -43.5q39 -59 33 -149q0 -39 -21 -121q-20 -68 -88 -67q-6 0 -22 4q-37 8 -55.5 40.5t-8.5 69.5q23 106 6 131q-18 33 -10 69zM350 -47q39 98 25 129q-14 35 -2 68.5t45 50t69.5 3t51.5 -49.5q29 -68 16 -152q-8 -45 -37 -117 q-27 -66 -94 -57q-4 0 -12.5 3t-12.5 3q-35 14 -49 49t0 70z" />
<glyph unicode="&#x2022;" horiz-adv-x="552" d="M78 524l6 13l10 12q39 45 101 55q43 16 88 17q106 0 168 -74q53 -59 34 -146v-10q-27 -76 -84 -115q-51 -33 -118 -32q-127 0 -187 94q-59 84 -18 186z" />
<glyph unicode="&#x2026;" horiz-adv-x="1044" d="M97 44q-3 38 22 67q23 29 60.5 30.5t66.5 -22.5q18 -14 24 -25h2q27 -27 26 -64.5t-27.5 -64t-61.5 -26.5q-37 0 -66 28l-2 2q-2 0 -12 13q-29 24 -32 62zM453 44q-4 38 20.5 66.5t62 30.5t66.5 -22q18 -14 25 -25h2q27 -29 26.5 -64.5t-28.5 -64.5q-23 -27 -62 -26 q-37 0 -65 28l-2 2l-13 13q-28 24 -32 62zM785 44q-3 38 21.5 66.5t62.5 30.5t67 -22q6 -4 11 -10.5t9.5 -9.5t6.5 -5q27 -29 26.5 -64.5t-28.5 -64.5q-27 -27 -64 -26.5t-66 28.5l-2 2l-2 2l-3 3l-7 8q-29 24 -32 62z" />
<glyph unicode="&#x202f;" horiz-adv-x="305" />
<glyph unicode="&#x2039;" horiz-adv-x="475" d="M72 377q-8 55 34 82q35 27 76 88q59 78 78 96q25 23 58.5 23t56 -25t21.5 -58.5t-25 -56.5q-6 -6 -58 -71q-37 -55 -57 -78q27 -31 57 -78q51 -66 58 -72q25 -23 25.5 -56.5t-21.5 -55.5q-23 -25 -59.5 -25t-55.5 21q-18 18 -78 96q-45 66 -76 88q-42 27 -34 82z" />
<glyph unicode="&#x203a;" horiz-adv-x="460" d="M68 163q0 34 24 56q8 8 18.5 19.5t21.5 27t18 23.5q31 45 59 80q-27 31 -59 77q-6 8 -17.5 23.5t-22 27t-18.5 19.5q-25 23 -24.5 57.5t22.5 59.5q23 23 56.5 22.5t56.5 -22.5q29 -25 78 -96q55 -72 77 -88q43 -27 35 -80q8 -55 -35 -82q-23 -16 -77 -88q-49 -72 -78 -97 q-20 -23 -55 -22.5t-57.5 25t-22.5 58.5z" />
<glyph unicode="&#x205f;" horiz-adv-x="380" />
<glyph unicode="&#x20ac;" horiz-adv-x="962" d="M45 251q-12 32 2 62q12 31 44 42.5t63 -1.5q39 -18 92 -16q-2 6 -2 14q0 2 -4 56.5t-2 83.5q-104 14 -150 47q-27 18 -33 51t15 59q18 27 51 33t59 -12q18 -12 76 -17q10 98 59 176q70 119 187 177q100 49 198.5 31.5t173.5 -95.5q23 -25 22 -57.5t-25.5 -55t-57.5 -22.5 t-55 24q-80 82 -185 29q-55 -27 -99 -83t-56 -122h92q147 0 209 -14q33 -8 51 -34.5t10 -59.5q-14 -63 -78 -64q-10 0 -18 2q-51 12 -172 9q-94 0 -113 2q0 -20 4 -131v-17q268 39 445 10q33 -8 51.5 -34.5t13.5 -59.5q-6 -31 -28.5 -49t-50.5 -18q-12 0 -15 2 q-141 25 -389 -11q12 -88 64.5 -165.5t123.5 -112.5q115 -59 220 33q27 23 59.5 19.5t52.5 -30.5q23 -27 20 -59.5t-30 -52.5q-92 -80 -201 -92q-12 -2 -34 -2q-82 0 -160 41q-109 53 -185.5 166.5t-93.5 244.5q-12 -2 -35 -2q-82 0 -143 31q-31 12 -43 44z" />
<glyph unicode="&#x2122;" horiz-adv-x="1007" d="M-51 1161q4 25 21.5 41.5t43.5 14.5q6 0 64 4q84 8 125 -2q61 27 172 38l51 7q25 6 44 -9.5t23.5 -40t-10 -45t-39.5 -24.5l-55 -6q-92 -12 -123 -25q0 -59 4 -162q10 -174 -4 -315q0 -23 -18.5 -39t-40.5 -16h-4q-25 4 -41.5 23.5t-14.5 43.5q12 133 3 299q0 25 -1.5 76 t-1.5 80q-10 0 -27.5 -1t-25.5 -1q-61 -8 -90 -6q-25 4 -41 21t-14 44zM436 698q4 37 4 123q0 186 52 273q12 23 35.5 29.5t39.5 -1.5q55 -25 99 -84l24 -28q8 8 10 14q2 2 14.5 15.5t16.5 18.5t17.5 16t22.5 16.5t22.5 11.5t27.5 10q53 14 74 -37q35 -86 39 -282 q0 -92 6 -136q2 -27 -13.5 -45t-39.5 -22h-6q-23 0 -41.5 15.5t-20.5 37.5q-6 74 -6 148q-4 127 -10 163l-8 -8q-43 -47 -56 -59q-20 -12 -39 -13q-8 0 -14 3q-57 14 -115 86v2q-10 -45 -10 -144q0 -92 -4 -139q-2 -23 -19.5 -38t-39.5 -15h-9q-27 4 -42 24t-11 45z" />
<glyph unicode="&#xe000;" horiz-adv-x="805" d="M0 805h805v-805h-805v805z" />
<glyph unicode="&#xfb01;" horiz-adv-x="618" d="M0 535q0 35 24.5 58t57.5 23h12q6 324 152 437q104 82 262 32q31 -8 46 -38.5t5 -63.5q-8 -31 -37.5 -46t-62.5 -5q-76 25 -115 -6q-86 -68 -86 -299q104 0 160 -9l16 -4q33 8 61.5 -10t34.5 -51q20 -88 17 -234q-4 -143 12 -204q10 -35 -5 -63.5t-48 -37.5 q-16 -4 -23 -4q-59 0 -77 58q-20 72 -21 256q0 115 -2 137q-37 4 -111 4q-10 -180 56 -344q12 -31 -1.5 -60.5t-43.5 -44.5q-12 -6 -29 -6q-55 0 -76 51q-74 184 -69 394h-27q-33 0 -57.5 23.5t-24.5 56.5zM397 821q0 6 2 8q-4 37 19 60q23 25 54.5 28t57.5 -20 q31 -27 35 -61q6 -20 -2 -41q-16 -57 -76 -58q-8 0 -24 4l-9 4.5t-8 2.5q-45 22 -49 73z" />
<glyph unicode="&#xfb02;" horiz-adv-x="677" d="M0 535q0 35 22.5 58t55.5 23h16q0 322 148 437q113 82 264 32q18 -6 31 -18q18 6 36 0q33 -6 52.5 -34.5t11.5 -61.5q-88 -352 -21 -836q4 -33 -15 -59.5t-52 -30.5h-10q-31 0 -53.5 19.5t-28.5 48.5q-35 238 -31 448q4 209 37 369q-2 2 -8 2q-80 27 -113 -6 q-84 -68 -88 -299q70 0 102 -9q33 -6 52.5 -33.5t13.5 -60.5q-6 -29 -29.5 -47t-50.5 -18q-10 0 -16 2q-16 4 -56 4q-10 -180 56 -344q12 -31 -0.5 -60.5t-44.5 -44.5q-14 -6 -31 -6q-53 0 -74 51q-78 188 -67 394h-31q-33 0 -55.5 23.5t-22.5 56.5z" />
<glyph unicode="&#xfb03;" horiz-adv-x="1359" d="M1071 840v10q-1 5 -1 10q0 28 19 49q20 27 54 29h5q30 0 54 -20q29 -23 37 -60q4 -27 -4 -43q-16 -57 -76 -57q-8 0 -25 4l-16 6q-47 23 -47 72zM1106 549q-2 10 -3 19q0 22 14 41q19 28 52 36q6 1 12 1q26 0 49 -15q28 -18 34 -51q14 -76 14 -263q-1 -27 -1 -51 q0 -123 17 -190q3 -11 3 -21q0 -23 -13 -42q-18 -28 -51 -36q-4 -2 -17 -2q-61 0 -79 60q-21 88 -22 236q0 25 1 51q1 35 1 65q0 108 -11 162zM514 535q0 35 24.5 58t57.5 23h12q0 317 150 437q68 51 153 51q51 0 109 -19q33 -10 47 -39q8 -17 8 -36q0 -13 -4 -27 q-8 -33 -38 -47t-60 -4q-32 11 -59 10q-35 0 -58 -18q-80 -61 -88 -297q109 0 162 -9q33 -6 53 -33.5t12 -58.5q-4 -29 -26.5 -49t-51.5 -20q-4 0 -7 1t-5 1q-39 6 -121 6q-1 -23 -1 -46q0 -152 59 -298q10 -31 -3.5 -61.5t-41.5 -43.5q-16 -6 -31 -6q-55 0 -74 51 q-70 170 -70 362q0 16 1 32h-29q-33 0 -56.5 23.5t-23.5 56.5zM0 535q0 35 24.5 58t57.5 23h12q0 317 150 437q68 51 153 51q51 0 109 -19q33 -10 47 -39q8 -17 8 -36q0 -13 -4 -27q-8 -33 -38 -47t-60 -4q-32 11 -59 10q-35 0 -58 -18q-80 -61 -88 -297q109 0 162 -9 q33 -6 53 -33.5t12 -58.5q-4 -29 -26.5 -49t-51.5 -20q-4 0 -7 1t-5 1q-39 6 -121 6q-1 -23 -1 -46q0 -152 59 -298q10 -31 -3.5 -61.5t-41.5 -43.5q-16 -6 -31 -6q-55 0 -74 51q-70 170 -70 362q0 16 1 32h-29q-33 0 -56.5 23.5t-23.5 56.5z" />
<glyph unicode="&#xfb04;" horiz-adv-x="1374" d="M1118 500q4 244 51 448q10 33 38 50q19 12 40 12q10 0 21 -2q33 -8 49 -36q11 -18 11 -39q0 -10 -3 -22q-47 -209 -47 -447q0 -186 29 -390q6 -33 -13.5 -59.5t-54.5 -30.5h-10q-31 0 -54.5 18t-25.5 49q-31 214 -31 404v45zM514 535q0 35 24.5 58t57.5 23h12 q0 317 150 437q68 51 153 51q51 0 109 -19q33 -10 47 -39q8 -17 8 -36q0 -13 -4 -27q-8 -33 -38 -47t-60 -4q-32 11 -59 10q-35 0 -58 -18q-80 -61 -88 -297q109 0 162 -9q33 -6 53 -33.5t12 -58.5q-4 -29 -26.5 -49t-51.5 -20q-4 0 -7 1t-5 1q-39 6 -121 6q-1 -23 -1 -46 q0 -152 59 -298q10 -31 -3.5 -61.5t-41.5 -43.5q-16 -6 -31 -6q-55 0 -74 51q-70 170 -70 362q0 16 1 32h-29q-33 0 -56.5 23.5t-23.5 56.5zM0 535q0 35 24.5 58t57.5 23h12q0 317 150 437q68 51 153 51q51 0 109 -19q33 -10 47 -39q8 -17 8 -36q0 -13 -4 -27 q-8 -33 -38 -47t-60 -4q-32 11 -59 10q-35 0 -58 -18q-80 -61 -88 -297q109 0 162 -9q33 -6 53 -33.5t12 -58.5q-4 -29 -26.5 -49t-51.5 -20q-4 0 -7 1t-5 1q-39 6 -121 6q-1 -23 -1 -46q0 -152 59 -298q10 -31 -3.5 -61.5t-41.5 -43.5q-16 -6 -31 -6q-55 0 -74 51 q-70 170 -70 362q0 16 1 32h-29q-33 0 -56.5 23.5t-23.5 56.5z" />
</font>
</defs>
</svg>
